<svg width="50" height="50" viewBox="0 0 50 50" fill="none" xmlns="http://www.w3.org/2000/svg">
<g id="Property 1=S3">
<path id="Vector" d="M50 0H0V50H50V0Z" fill="#F79820"/>
<path id="Vector_2" d="M25.0687 12.6586C14.7261 12.6586 6.34326 14.5296 6.34326 16.8383C6.34326 17.1356 6.48229 17.4239 6.74555 17.7035L14.4303 34.2192H14.4762C14.9628 35.7737 19.518 36.9923 25.0702 36.9923C30.6223 36.9923 35.1775 35.7737 35.6641 34.2192H35.71L43.3948 17.7035C43.658 17.4239 43.797 17.1356 43.797 16.8383C43.797 14.5296 35.4127 12.6586 25.0716 12.6586H25.0687ZM25.0687 20.1867C16.7864 20.1867 10.0733 18.6885 10.0733 16.8398C10.0733 14.991 16.7878 13.4928 25.0687 13.4928C33.3495 13.4928 40.0641 14.991 40.0641 16.8398C40.0641 18.6885 33.3495 20.1867 25.0687 20.1867Z" fill="white"/>
</g>
</svg>
