<svg width="51" height="50" viewBox="0 0 51 50" fill="none" xmlns="http://www.w3.org/2000/svg">
<g id="Property 1=El Pajaro">
<g id="Group">
<path id="Vector" d="M50.5 0H0.5V50H50.5V0Z" fill="#E5157C"/>
<path id="Vector_2" d="M13.6771 13.8539C13.7436 13.8539 13.81 13.8524 13.8751 13.8509C13.8913 13.8509 13.9061 13.8509 13.9223 13.8494C13.912 13.842 13.9002 13.8331 13.8898 13.8257C12.6826 12.8845 11.7518 11.6079 11.2361 10.1362C11.208 10.0594 11.1814 9.9811 11.1578 9.90131C11.2361 10.0151 11.3174 10.1288 11.4001 10.2411C12.5807 10.9888 13.8898 11.5458 15.2891 11.8738C15.3438 11.8177 15.3955 11.7645 15.4516 11.7128C16.8598 10.3401 18.7673 9.48162 20.8759 9.43286C20.9409 9.43138 21.0059 9.4299 21.0724 9.4299C22.4421 9.4299 23.7291 9.7698 24.858 10.3727C25.0722 10.485 25.2805 10.6091 25.483 10.7421C25.6706 10.8662 25.8538 10.9962 26.0312 11.1336C26.2971 11.3434 26.5513 11.568 26.7892 11.8074C27.5738 12.5964 28.1973 13.5465 28.6036 14.6059C28.9317 15.457 29.1193 16.3775 29.1356 17.3379C29.1326 17.3512 29.1282 17.3646 29.1252 17.3793C29.1296 17.3897 29.1326 17.4 29.137 17.4089C29.1385 17.4369 29.1385 17.468 29.1385 17.4961C29.1385 17.9009 29.109 18.2984 29.0499 18.687C29.0484 18.7092 29.0439 18.7328 29.041 18.755C29.0602 18.7313 29.0838 18.7062 29.1045 18.6841C29.3173 18.6752 29.5271 18.6604 29.7384 18.6427C31.0549 18.5377 32.3375 18.3073 33.5713 17.9645C33.756 17.9128 33.9392 17.8611 34.1209 17.8034C35.2424 17.4592 36.324 17.0217 37.3554 16.5002C39.0649 15.6343 40.6371 14.538 42.0319 13.251C42.5668 12.7575 43.0766 12.2344 43.5583 11.6862C43.7105 11.5148 43.8597 11.339 44.0045 11.1602C44.1183 11.4085 44.2217 11.6626 44.3104 11.9256C44.5852 12.7368 44.7329 13.6086 44.7329 14.5128C44.7329 15.2428 44.6369 15.9505 44.4537 16.6214C44.0503 18.1167 43.2258 19.4406 42.1176 20.4557C41.896 20.661 41.6625 20.8516 41.4187 21.0289C41.7275 20.9994 42.0319 20.9492 42.3304 20.8841C43.2849 20.6758 44.1759 20.299 44.9708 19.7878C44.9014 21.6791 44.1803 23.405 43.0263 24.7451C42.0275 25.9035 40.7065 26.7738 39.2023 27.2186C39.9278 27.4343 40.6977 27.5481 41.4941 27.5481C41.7807 27.5481 42.0629 27.5333 42.3422 27.5022C41.0922 30.2949 38.2995 32.2453 35.0489 32.2704C38.0291 34.4129 41.6049 35.7797 45.4776 36.0752C42.4013 37.8971 38.8123 38.9446 34.9794 38.9446C25.0441 38.9446 16.7504 31.9158 14.8 22.5598C14.5149 21.1945 14.3656 19.7804 14.3656 18.3309C14.3656 17.8403 14.3819 17.3512 14.4173 16.8696C13.9608 16.6804 13.5249 16.4485 13.1156 16.1795C11.9572 15.4215 11.0056 14.3725 10.3643 13.1372C11.3765 13.5938 12.4994 13.8479 13.6815 13.8479L13.6771 13.8539Z" fill="white"/>
</g>
<path id="Vector_3" d="M21.4078 36.5023C16.814 31.9084 12.2468 27.3412 7.65742 22.7518L6.21677 24.1925C5.69962 22.3366 5.20463 20.5547 4.69043 18.7062C6.61129 19.1244 8.47305 19.5308 10.4043 19.9519C9.9329 20.4232 9.49554 20.8605 9.03601 21.3201C12.495 24.7791 15.9201 28.2042 19.3658 31.6499C19.3954 31.5745 19.4323 31.5139 19.4441 31.4489C19.7515 29.825 20.0588 28.1997 20.3558 26.5729C20.375 26.4665 20.3617 26.3084 20.2967 26.239C19.7958 25.7144 19.2771 25.2061 18.7364 24.6668L17.7301 25.673C17.6223 25.5844 17.5351 25.5223 17.4612 25.4484C16.5525 24.5412 15.6512 23.6266 14.7321 22.7297C14.5193 22.5228 14.5282 22.4002 14.7351 22.1978C15.6275 21.326 16.5037 20.4394 17.3858 19.5573C17.4715 19.4716 17.5558 19.3874 17.6518 19.2914C18.7364 20.3759 19.7884 21.4279 20.8685 22.5081L20.1238 23.2528C20.5242 23.6532 20.8981 24.0241 21.2689 24.3979C21.5896 24.723 21.9117 25.0466 22.219 25.382C22.4761 25.6627 22.4791 26.004 22.4126 26.3587C21.9974 28.541 21.5955 30.7249 21.1655 32.9043C21.0931 33.2737 21.1699 33.5116 21.4359 33.7746C23.438 35.7531 25.4269 37.7464 27.4098 39.7441C27.6107 39.9465 27.7496 39.9613 28.0052 39.8327C29.7695 38.9418 31.8824 39.4131 33.1133 40.9528C34.3175 42.4599 34.3382 44.6379 33.1399 46.0903C31.9947 47.4793 30.523 48.0037 28.7765 47.5575C27.0906 47.1275 25.9351 45.7342 25.7298 43.9862C25.6337 43.1706 25.7697 42.3831 26.1627 41.6576C26.2868 41.4285 26.2499 41.2926 26.0711 41.1183C25.155 40.2184 24.2463 39.3112 23.3464 38.3951C23.178 38.2237 23.0213 38.1852 22.7894 38.2384C20.4681 38.7674 18.1409 39.2757 15.8211 39.815C15.2315 39.9524 14.7853 39.8608 14.3642 39.3968C13.751 38.7216 13.0757 38.1025 12.4389 37.4479C12.2645 37.2691 12.1153 37.2159 11.8597 37.2898C10.6126 37.6489 9.48372 37.0711 8.91337 35.9674C8.36223 34.8991 8.70798 33.6239 9.70535 32.8644C10.6259 32.1641 11.9971 32.2321 12.8733 33.0654C13.5678 33.7259 13.8219 34.5548 13.587 35.4975C13.5308 35.7206 13.5633 35.8595 13.7259 36.0161C14.2844 36.5569 14.8237 37.1184 15.3867 37.6547C15.4827 37.7464 15.6733 37.8144 15.7974 37.7878C17.606 37.3962 19.4101 36.9854 21.2157 36.5791C21.2704 36.5673 21.3221 36.5363 21.4108 36.5008L21.4078 36.5023Z" fill="#16233C"/>
</g>
</svg>
