<svg width="50" height="50" viewBox="0 0 50 50" fill="none" xmlns="http://www.w3.org/2000/svg">
<g id="Property 1=Kinesis">
<path id="Vector" d="M49.9985 0H0V50H49.9985V0Z" fill="#725FA8"/>
<path id="Vector_2" d="M33.8841 10.6546C31.3537 7.36535 30.944 3.98883 30.941 3.95629L29.1515 4.15152L27.3605 4.33936C27.3783 4.5124 27.8397 8.60773 30.9055 12.6868C32.7868 15.1892 35.9251 18.0111 41.02 19.5981C34.2894 18.4356 28.8986 15.8873 25.1806 12.0596C21.2525 8.01611 20.5101 3.89862 20.5027 3.85721L18.7265 4.15152L16.9488 4.43696C16.9813 4.64254 17.8125 9.53649 22.4135 14.3772C25.0741 17.1769 28.4594 19.4013 32.4762 20.9883C32.8504 21.1362 33.2304 21.2767 33.615 21.4128C27.6785 20.0625 22.9814 18.1516 19.5754 16.4271C12.9601 13.0772 9.63099 9.67999 9.59846 9.64597L7.00439 12.1439C7.15081 12.2963 10.6825 15.9302 17.7755 19.5522C21.4877 21.4468 26.6373 23.5499 33.1595 25.0008C26.6373 26.4516 21.4877 28.5533 17.7755 30.4493C10.681 34.0714 7.15081 37.7053 7.00439 37.8576L9.59846 40.3556C9.63099 40.3215 12.9601 36.9244 19.5754 33.5745C22.9829 31.8485 27.6785 29.9391 33.615 28.5887C33.2304 28.7248 32.8489 28.8653 32.4762 29.0132C28.4594 30.6002 25.0741 32.8246 22.4135 35.6243C17.8125 40.465 16.9813 45.359 16.9488 45.5646L20.5027 46.1443C20.5101 46.1029 21.2525 41.9854 25.1806 37.9419C28.8986 34.1143 34.2894 31.5659 41.02 30.4035C35.9251 31.9904 32.7853 34.8123 30.9055 37.3148C27.8397 41.3923 27.3783 45.4892 27.3605 45.6622L30.941 46.0452C30.9455 46.0112 31.3537 42.6362 33.8841 39.3469C37.2546 34.9662 42.6764 32.7462 50.0001 32.7462V17.2568C42.6764 17.2568 37.2546 15.0353 33.8841 10.6561V10.6546Z" fill="#F79820"/>
</g>
</svg>
