<svg width="51" height="50" viewBox="0 0 51 50" fill="none" xmlns="http://www.w3.org/2000/svg">
<g id="Property 1=El tambor">
<path id="Vector" d="M50.5 0H0.5V50H50.5V0Z" fill="#32ACB2"/>
<path id="Vector_2" d="M25.5437 6.74564C15.4719 6.74564 7.30786 14.9096 7.30786 24.9815C7.30786 35.0534 15.4719 43.2174 25.5437 43.2174C35.6156 43.2174 43.7796 35.0534 43.7796 24.9815C43.7796 14.9096 35.6156 6.74564 25.5437 6.74564ZM25.5437 27.8271C23.9716 27.8271 22.6982 26.5522 22.6982 24.9815C22.6982 23.4108 23.973 22.1359 25.5437 22.1359C27.1144 22.1359 28.3893 23.4108 28.3893 24.9815C28.3893 26.5522 27.1144 27.8271 25.5437 27.8271Z" fill="white"/>
<path id="Vector (Stroke)" fill-rule="evenodd" clip-rule="evenodd" d="M25.5437 30.6465C28.6723 30.6465 31.2087 28.1102 31.2087 24.9815C31.2087 21.8528 28.6724 19.3165 25.5437 19.3165C22.415 19.3165 19.8787 21.8528 19.8787 24.9815C19.8787 28.1102 22.415 30.6465 25.5437 30.6465ZM17.8787 24.9815C17.8787 20.7482 21.3104 17.3165 25.5437 17.3165C29.7769 17.3165 33.2087 20.7482 33.2087 24.9815C33.2087 29.2148 29.7769 32.6465 25.5437 32.6465C21.3104 32.6465 17.8787 29.2148 17.8787 24.9815Z" fill="#32ACB2"/>
</g>
</svg>
