<svg width="50" height="50" viewBox="0 0 50 50" fill="none" xmlns="http://www.w3.org/2000/svg">
<g id="Property 1=VPC">
<path id="Vector" d="M50 0H0V50H50V0Z" fill="#F79820"/>
<path id="Vector_2" d="M36.3948 19.5448C35.9185 19.5448 35.4527 19.5921 35.0031 19.6838C34.8714 17.1976 32.8142 15.2217 30.294 15.2217C29.6018 15.2217 28.9437 15.3726 28.3521 15.6403C27.0358 12.6778 24.0689 10.6117 20.6185 10.6117C15.9464 10.6117 12.1572 14.3994 12.1572 19.073C12.1572 19.28 12.1676 19.4856 12.1823 19.6897C8.99217 20.3479 6.59326 23.1727 6.59326 26.5581C6.59326 30.4316 9.73314 33.5714 13.6066 33.5714H36.3948C40.2682 33.5714 43.4081 30.4316 43.4081 26.5581C43.4081 22.6847 40.2682 19.5448 36.3948 19.5448Z" fill="white"/>
<g id="Group">
<g id="Group_2">
<path id="Vector_3" d="M39.2968 36.1878L33.5036 41.6512L27.7104 36.1878V24.7878H39.2968V36.1878Z" fill="#F79820"/>
<path id="Vector_4" d="M33.5033 42.5178L27.0786 36.4599V24.1577H39.9265V36.4599L33.5018 42.5178H33.5033ZM28.3402 35.9156L33.5033 40.7844L38.6665 35.9156V25.4193H28.3417V35.9156H28.3402Z" fill="white"/>
</g>
<g id="Group_3">
<path id="Vector_5" d="M37.2912 35.2265L33.5035 38.7982L29.7158 35.2265V26.8096H37.2912V35.2265Z" fill="#F79820"/>
<path id="Vector_6" d="M33.5032 39.6649L29.0854 35.4986V26.178H37.9224V35.4986L33.5047 39.6649H33.5032ZM30.347 34.9543L33.5032 37.9315L36.6593 34.9543V27.4396H30.3455V34.9543H30.347Z" fill="white"/>
</g>
</g>
</g>
</svg>
