<svg width="51" height="50" viewBox="0 0 51 50" fill="none" xmlns="http://www.w3.org/2000/svg">
<g id="Property 1=El Craneo">
<g id="Group">
<path id="Vector" d="M50.5 0H0.5V50H50.5V0Z" fill="#725FA8"/>
<g id="Group_2">
<path id="Vector_2" d="M39.2907 21.7824C39.1399 14.318 33.0435 8.31482 25.5436 8.31482C18.0436 8.31482 11.9473 14.3195 11.7964 21.7824H11.7935V25.1028H11.7949C11.826 28.6642 13.2118 31.9031 15.4628 34.3287C16.7909 38.6355 20.8019 41.765 25.545 41.765C30.2881 41.765 34.2992 38.6355 35.6273 34.3287C37.8768 31.9031 39.2626 28.6642 39.2952 25.1028H39.2966V21.7824H39.2937H39.2907Z" fill="white"/>
<path id="Vector_3" d="M20.0551 30.8634C21.5589 30.8634 22.7779 29.6444 22.7779 28.1406C22.7779 26.6369 21.5589 25.4178 20.0551 25.4178C18.5513 25.4178 17.3323 26.6369 17.3323 28.1406C17.3323 29.6444 18.5513 30.8634 20.0551 30.8634Z" fill="#725FA8"/>
<path id="Vector_4" d="M30.7438 30.8634C32.2476 30.8634 33.4666 29.6444 33.4666 28.1406C33.4666 26.6369 32.2476 25.4178 30.7438 25.4178C29.24 25.4178 28.021 26.6369 28.021 28.1406C28.021 29.6444 29.24 30.8634 30.7438 30.8634Z" fill="#725FA8"/>
<path id="Vector_5" d="M27.3094 33.5093H25.5435H23.7791L25.5435 31.7448L27.3094 33.5093Z" fill="#725FA8"/>
<path id="Vector_6" d="M14.4378 28.5843C14.1923 28.5843 13.9941 28.3862 13.9941 28.1406V22.065C13.9941 21.8195 14.1923 21.6213 14.4378 21.6213C14.6833 21.6213 14.8815 21.8195 14.8815 22.065V28.1406C14.8815 28.3862 14.6833 28.5843 14.4378 28.5843Z" fill="#725FA8"/>
<path id="Vector_7" d="M36.5811 28.5843C36.3356 28.5843 36.1375 28.3862 36.1375 28.1406V22.065C36.1375 21.8195 36.3356 21.6213 36.5811 21.6213C36.8267 21.6213 37.0248 21.8195 37.0248 22.065V28.1406C37.0248 28.3862 36.8267 28.5843 36.5811 28.5843Z" fill="#725FA8"/>
</g>
</g>
<path id="Vector_8" d="M31.2746 18.6367C30.124 18.6367 29.1138 19.3185 28.1377 19.9766C27.2311 20.5874 26.3748 21.1657 25.5007 21.1657C24.6266 21.1657 23.7703 20.5889 22.8637 19.9766C21.8861 19.317 20.8759 18.6367 19.7267 18.6367C17.3722 18.6367 16.5144 21.4172 16.4789 21.5355C16.3975 21.8091 16.5528 22.0975 16.8265 22.1803C17.1001 22.2616 17.3885 22.1063 17.4713 21.8327C17.4772 21.812 18.1457 19.6735 19.7282 19.6735C20.5624 19.6735 21.3995 20.2384 22.2869 20.8374C23.2822 21.5088 24.3116 22.204 25.5022 22.204C26.6928 22.204 27.7221 21.5088 28.7175 20.8374C29.6049 20.2384 30.4435 19.6735 31.2761 19.6735C32.869 19.6735 33.5257 21.812 33.5331 21.8327C33.6144 22.1063 33.9028 22.2616 34.1779 22.1803C34.4515 22.099 34.6083 21.8106 34.5254 21.5355C34.49 21.4172 33.6321 18.6367 31.2776 18.6367H31.2746Z" fill="#725FA8"/>
</g>
</svg>
