<svg width="50" height="50" viewBox="0 0 50 50" fill="none" xmlns="http://www.w3.org/2000/svg">
<g id="Property 1=Cloud Formation">
<path id="Vector" d="M50 0H0V50H50V0Z" fill="#32ACB2"/>
<path id="Vector_2" d="M38.9441 15.4064C38.4798 15.4064 38.0273 15.4537 37.5896 15.5409C37.461 13.1218 35.4589 11.1995 33.0087 11.1995C32.3344 11.1995 31.6956 11.3459 31.119 11.6061C29.8384 8.72419 26.952 6.71466 23.5954 6.71466C19.05 6.71466 15.3636 10.3995 15.3636 14.9464C15.3636 15.149 15.374 15.3487 15.3873 15.5469C12.2836 16.1871 9.94873 18.9344 9.94873 22.2289C9.94873 25.9966 13.0037 29.0516 16.7713 29.0516H38.9426C42.7103 29.0516 45.7653 25.9966 45.7653 22.2289C45.7653 18.4612 42.7103 15.4064 38.9426 15.4064H38.9441Z" fill="white"/>
<path id="Vector_3" d="M25.5823 16.3216H6.55029V42.2266H25.5823V16.3216Z" fill="white"/>
<path id="Vector_4" d="M26.9015 43.5455H5.23145V15.0026H26.9015V43.5455ZM7.86941 40.9076H24.2635V17.6407H7.86941V40.9076Z" fill="#30ACB2"/>
<path id="Vector_5" d="M20.0745 20.0642H11.6948V22.0367H20.0745V20.0642Z" fill="#30ACB2"/>
<path id="Vector_6" d="M37.5939 24.6806H11.6948V26.6531H37.5939V24.6806Z" fill="#30ACB2"/>
<path id="Vector_7" d="M20.0745 29.2955H11.6948V31.2681H20.0745V29.2955Z" fill="#30ACB2"/>
<path id="Vector_8" d="M15.8839 33.9119H11.6948V35.8846H15.8839V33.9119Z" fill="#30ACB2"/>
<path id="Vector_9" d="M22.1681 33.9119H17.979V35.8846H22.1681V33.9119Z" fill="#30ACB2"/>
</g>
</svg>
