<svg width="51" height="50" viewBox="0 0 51 50" fill="none" xmlns="http://www.w3.org/2000/svg">
<g id="Property 1=La rosa">
<path id="Vector" d="M50.5 0H0.5V50H50.5V0Z" fill="#E5157C"/>
<path id="Vector_2" d="M18.7448 34.6349C18.588 34.6334 18.3676 34.6748 18.1546 34.7517C16.9581 35.1776 15.7616 35.6036 14.5651 36.0295C14.1481 36.1774 13.7635 36.0813 13.4677 35.7515C12.5611 34.7458 11.792 33.6439 11.162 32.446C10.7434 31.6488 10.3915 30.822 10.1178 29.9642C9.99508 29.5782 10.0823 29.2306 10.387 28.9644C10.9904 28.4394 11.6057 27.9291 12.215 27.413C12.6173 27.0728 13.0255 26.74 13.4189 26.3895C14.0519 25.8231 14.2117 24.8839 13.8183 24.1296C13.694 23.8915 13.5239 23.6919 13.3184 23.5188C12.357 22.7068 11.3972 21.8949 10.4358 21.0829C10.1652 20.8552 10.0306 20.5682 10.0779 20.2162C10.1016 20.0491 10.1637 19.8879 10.2199 19.7267C10.7893 18.0983 11.5953 16.5972 12.6513 15.2321C12.9161 14.8904 13.1971 14.5606 13.4825 14.2367C13.7665 13.9143 14.1274 13.8211 14.5296 13.9616C15.4925 14.2959 16.4508 14.6434 17.4107 14.9836C17.6873 15.0812 17.9609 15.1877 18.2404 15.275C19.3423 15.6166 20.4707 14.9437 20.6852 13.8122C20.873 12.8272 21.0475 11.8393 21.228 10.8513C21.2782 10.5762 21.3271 10.2997 21.3818 10.0246C21.4646 9.60453 21.753 9.32648 22.173 9.24218C23.0308 9.07062 23.8946 8.95822 24.7672 8.91976C25.6427 8.88131 26.5183 8.90202 27.3879 9.01442C27.8597 9.07506 28.33 9.15492 28.7989 9.23923C29.284 9.32649 29.5458 9.60601 29.633 10.0867C29.846 11.2536 30.059 12.422 30.2764 13.5874C30.3163 13.7975 30.3548 14.0149 30.4406 14.2071C30.76 14.9215 31.3235 15.3031 32.1044 15.3578C32.3647 15.3755 32.6147 15.3282 32.8602 15.2409C34.0537 14.815 35.2487 14.3905 36.4423 13.9646C36.8519 13.8182 37.2365 13.9173 37.5278 14.2397C38.5202 15.34 39.347 16.5528 40.0066 17.8809C40.3527 18.576 40.647 19.2934 40.8837 20.0329C41.0064 20.4159 40.9221 20.7635 40.6189 21.0267C40.014 21.5547 39.3973 22.0664 38.785 22.5841C38.3797 22.9287 37.9656 23.2629 37.5693 23.6194C36.7736 24.3352 36.7647 25.6382 37.5545 26.3599C37.976 26.7445 38.4226 27.1024 38.8574 27.4721C39.4446 27.9706 40.0392 28.4616 40.6189 28.9689C40.9192 29.2307 41.0064 29.5782 40.8837 29.9568C40.3142 31.7094 39.4683 33.32 38.3383 34.7768C38.0751 35.1155 37.797 35.4439 37.5116 35.7663C37.232 36.0828 36.8741 36.1745 36.4763 36.0384C35.6421 35.75 34.8124 35.4483 33.9798 35.154C33.5671 35.0076 33.1574 34.8537 32.7419 34.7192C31.7642 34.4041 30.6875 34.9558 30.3814 35.9364C30.2897 36.2292 30.2468 36.5383 30.1906 36.843C29.9969 37.8886 29.8075 38.9343 29.6153 39.9814C29.5428 40.3792 29.247 40.6691 28.8403 40.7519C27.9914 40.925 27.135 41.0359 26.2698 41.0758C25.3366 41.1187 24.4048 41.0906 23.4775 40.9649C23.0368 40.9057 22.5975 40.8288 22.1597 40.7505C21.7427 40.675 21.4557 40.3866 21.3773 39.9695C21.2058 39.0496 21.0401 38.1297 20.8715 37.2098C20.805 36.8459 20.7458 36.4821 20.6674 36.1212C20.4766 35.2472 19.709 34.6349 18.7418 34.6319L18.7448 34.6349ZM20.7991 24.9948C20.7991 27.5831 22.8992 29.698 25.4741 29.6995C28.0919 29.7024 30.198 27.6067 30.201 24.9978C30.2039 22.414 28.0964 20.302 25.5096 20.3005C22.9096 20.2991 20.8005 22.3992 20.7991 24.9934V24.9948Z" fill="white"/>
</g>
</svg>
