<svg width="50" height="50" viewBox="0 0 50 50" fill="none" xmlns="http://www.w3.org/2000/svg">
<g id="Property 1=Api Getway">
<path id="Vector" d="M50 0H0V50H50V0Z" fill="#725FA8"/>
<g id="Vector_2">
<path d="M45.3351 35.889L34.7841 41.9558V8.04419L45.3351 14.111V35.889Z" fill="white"/>
<path d="M4.66455 35.889L15.2156 41.9558V8.04419L4.66455 14.111V35.889Z" fill="white"/>
<path fill-rule="evenodd" clip-rule="evenodd" d="M18.9688 17.4098H17.0939V15.5596H18.9688V17.4098ZM24.5933 17.4098H20.8436V15.5596H24.5933V17.4098ZM30.2179 17.4098H26.4682V15.5596H30.2179V17.4098ZM33.9676 17.4098H32.0928V15.5596H33.9676V17.4098ZM17.9764 34.4418H16.1015V32.5916H17.9764V34.4418ZM23.6009 34.4418H19.8512V32.5916H23.6009V34.4418ZM29.2255 34.4418H25.4758V32.5916H29.2255V34.4418ZM32.9752 34.4418H31.1004V32.5916H32.9752V34.4418Z" fill="white"/>
<path d="M29.7629 29.3342L28.454 28.0267L31.48 25.0007L28.454 21.9747L29.7629 20.6658L34.0963 25.0007L29.7629 29.3342Z" fill="white"/>
<path d="M20.327 29.3342L15.9921 25.0007L20.327 20.6658L21.6344 21.9747L18.6084 25.0007L21.6344 28.0267L20.327 29.3342Z" fill="white"/>
<path d="M26.2638 19.6891L21.6948 30.2173L23.392 30.9539L27.9611 20.4257L26.2638 19.6891Z" fill="white"/>
</g>
</g>
</svg>
