<svg width="51" height="50" viewBox="0 0 51 50" fill="none" xmlns="http://www.w3.org/2000/svg">
<g id="Property 1=La Campana">
<path id="Vector" d="M50.5 0H0.5V50H50.5V0Z" fill="#32ACB2"/>
<path id="Vector_2" d="M22.9415 10.2309C22.3919 8.45184 22.2441 6.88415 23.8857 5.78187C24.9924 5.04012 26.1745 5.03125 27.2575 5.81585C28.8075 6.94029 28.8578 8.45772 28.119 10.1643C28.6509 10.3845 29.1223 10.5574 29.5774 10.7702C34.1017 12.8816 36.4659 16.4544 36.6934 21.425C36.7688 23.0829 36.7954 24.7496 36.7111 26.4045C36.6151 28.2855 37.2933 29.8398 38.3069 31.3558C39.288 32.8201 40.3578 34.2845 40.9932 35.9039C41.9167 38.2592 41.1143 39.2462 38.6069 39.2506C29.9039 39.2639 21.2009 39.2624 12.4965 39.2506C10.0378 39.2462 9.28272 38.3773 10.0732 36.0501C10.5756 34.5696 11.4681 33.1719 12.4078 31.9011C13.7598 30.0748 14.4971 28.1643 14.3937 25.8593C14.3036 23.8631 14.2445 21.824 14.5459 19.8618C15.2935 15.0109 18.2088 11.8724 22.94 10.2323L22.9415 10.2309Z" fill="white"/>
<path id="Vector_3" d="M29.7814 41.0252C29.406 43.1455 27.9713 44.3867 25.8096 44.4916C23.5105 44.6024 21.9309 43.4514 21.2616 41.0252H29.7814Z" fill="white"/>
<path id="Vector_4" d="M44.3994 13.6997C44.3994 17.3999 41.3998 20.3994 37.6997 20.3994C33.9996 20.3994 31 17.3999 31 13.6997C31 9.9996 33.9996 7 37.6997 7C41.3998 7 44.3994 9.9996 44.3994 13.6997Z" fill="#DD354C" stroke="#32ACB2" stroke-width="2"/>
</g>
</svg>
