<svg width="50" height="50" viewBox="0 0 50 50" fill="none" xmlns="http://www.w3.org/2000/svg">
<g id="Property 1=SNS">
<path id="Vector" d="M50 0H0V50H50V0Z" fill="#E5157C"/>
<g id="Group">
<path id="Vector_2" d="M25.6441 19.9691L25.6042 20.0268C24.9105 20.9808 22.9258 21.6685 20.583 21.6685C18.2403 21.6685 16.2467 20.9778 15.5575 20.0209L15.5234 19.9706H25.6456L25.6441 19.9691Z" fill="#F79820"/>
<path id="Vector_3" d="M25.6044 20.0269L25.6443 19.9692H15.5221C15.3772 19.7518 15.3003 19.5211 15.3003 19.2815C15.3003 17.9637 17.6652 16.8944 20.5832 16.8944C23.5013 16.8944 25.8676 17.9637 25.8676 19.2815C25.8676 19.5418 25.7759 19.7918 25.6044 20.0269Z" fill="#F79820"/>
<path id="Vector_4" d="M25.6044 20.0268L22.324 24.7862V32.1885C22.324 32.6233 21.5445 32.9753 20.5832 32.9753C19.6219 32.9753 18.8424 32.6233 18.8424 32.1885V24.7862L15.5576 20.0194C16.2468 20.9763 18.2361 21.667 20.5832 21.667C22.9303 21.667 24.9107 20.9793 25.6044 20.0253V20.0268Z" fill="white"/>
<path id="Vector_5" d="M15.522 19.9691L15.556 20.0194C15.5442 20.0031 15.5323 19.9854 15.522 19.9691Z" fill="#F79820"/>
</g>
<path id="Vector (Stroke)" fill-rule="evenodd" clip-rule="evenodd" d="M31.9019 32.582V17.1917H34.7001V32.582H31.9019Z" fill="white"/>
<path id="Vector (Stroke)_2" fill-rule="evenodd" clip-rule="evenodd" d="M40.8571 18.5908H31.9019V15.7926H40.8571V18.5908Z" fill="white"/>
<path id="Vector (Stroke)_3" fill-rule="evenodd" clip-rule="evenodd" d="M40.8568 26.286H25.3911V23.4877H40.8568V26.286Z" fill="white"/>
<path id="Vector (Stroke)_4" fill-rule="evenodd" clip-rule="evenodd" d="M40.8571 33.9811H31.9019V31.1829H40.8571V33.9811Z" fill="white"/>
<path id="Vector (Stroke)_5" fill-rule="evenodd" clip-rule="evenodd" d="M16.0929 26.286H7.1377V23.4877H16.0929V26.286Z" fill="white"/>
<path id="Vector (Stroke)_6" fill-rule="evenodd" clip-rule="evenodd" d="M6.4541 24.8884C6.4541 14.0053 15.277 5.18237 26.1601 5.18237C31.4784 5.18237 36.3058 7.29002 39.8499 10.7131L37.9059 12.7258C34.8625 9.78635 30.7244 7.98061 26.1601 7.98061C16.8225 7.98061 9.25234 15.5507 9.25234 24.8884C9.25234 34.226 16.8225 41.7961 26.1601 41.7961C30.723 41.7961 34.8626 39.9903 37.9059 37.0509L39.8499 39.0636C36.3058 42.4867 31.4768 44.5943 26.1601 44.5943C15.277 44.5943 6.4541 35.7714 6.4541 24.8884Z" fill="white"/>
<path id="Vector_6" d="M40.8571 35.3019C42.3592 35.3019 43.5769 34.0842 43.5769 32.582C43.5769 31.0799 42.3592 29.8622 40.8571 29.8622C39.3549 29.8622 38.1372 31.0799 38.1372 32.582C38.1372 34.0842 39.3549 35.3019 40.8571 35.3019Z" fill="#E4157B"/>
<path id="Vector (Stroke)_7" fill-rule="evenodd" clip-rule="evenodd" d="M40.8569 30.5617C39.7411 30.5617 38.8366 31.4663 38.8366 32.582C38.8366 33.6978 39.7411 34.6023 40.8569 34.6023C41.9727 34.6023 42.8772 33.6978 42.8772 32.582C42.8772 31.4663 41.9727 30.5617 40.8569 30.5617ZM37.4375 32.582C37.4375 30.6935 38.9684 29.1626 40.8569 29.1626C42.7454 29.1626 44.2763 30.6935 44.2763 32.582C44.2763 34.4705 42.7454 36.0014 40.8569 36.0014C38.9684 36.0014 37.4375 34.4705 37.4375 32.582Z" fill="white"/>
<path id="Vector_7" d="M7.64954 27.6067C9.15167 27.6067 10.3694 26.389 10.3694 24.8868C10.3694 23.3847 9.15167 22.167 7.64954 22.167C6.14741 22.167 4.92969 23.3847 4.92969 24.8868C4.92969 26.389 6.14741 27.6067 7.64954 27.6067Z" fill="#E4157B"/>
<path id="Vector (Stroke)_8" fill-rule="evenodd" clip-rule="evenodd" d="M7.64939 22.8666C6.53362 22.8666 5.6291 23.7711 5.6291 24.8869C5.6291 26.0026 6.53361 26.9071 7.64939 26.9071C8.76517 26.9071 9.66968 26.0026 9.66968 24.8869C9.66968 23.7711 8.76517 22.8666 7.64939 22.8666ZM4.22998 24.8869C4.22998 22.9984 5.7609 21.4674 7.64939 21.4674C9.53788 21.4674 11.0688 22.9984 11.0688 24.8869C11.0688 26.7753 9.53788 28.3063 7.64939 28.3063C5.7609 28.3063 4.22998 26.7753 4.22998 24.8869Z" fill="white"/>
<path id="Vector_8" d="M40.8571 19.9116C42.3592 19.9116 43.5769 18.6939 43.5769 17.1917C43.5769 15.6896 42.3592 14.4719 40.8571 14.4719C39.3549 14.4719 38.1372 15.6896 38.1372 17.1917C38.1372 18.6939 39.3549 19.9116 40.8571 19.9116Z" fill="#E4157B"/>
<path id="Vector (Stroke)_9" fill-rule="evenodd" clip-rule="evenodd" d="M40.8569 15.1714C39.7411 15.1714 38.8366 16.0759 38.8366 17.1917C38.8366 18.3075 39.7411 19.212 40.8569 19.212C41.9727 19.212 42.8772 18.3075 42.8772 17.1917C42.8772 16.0759 41.9727 15.1714 40.8569 15.1714ZM37.4375 17.1917C37.4375 15.3032 38.9684 13.7723 40.8569 13.7723C42.7454 13.7723 44.2763 15.3032 44.2763 17.1917C44.2763 19.0802 42.7454 20.6111 40.8569 20.6111C38.9684 20.6111 37.4375 19.0802 37.4375 17.1917Z" fill="white"/>
<path id="Vector_9" d="M42.4396 27.6067C43.9417 27.6067 45.1594 26.389 45.1594 24.8868C45.1594 23.3847 43.9417 22.167 42.4396 22.167C40.9374 22.167 39.7197 23.3847 39.7197 24.8868C39.7197 26.389 40.9374 27.6067 42.4396 27.6067Z" fill="#E4157B"/>
<path id="Vector (Stroke)_10" fill-rule="evenodd" clip-rule="evenodd" d="M42.4394 22.8666C41.3237 22.8666 40.4191 23.7711 40.4191 24.8869C40.4191 26.0026 41.3237 26.9071 42.4394 26.9071C43.5552 26.9071 44.4597 26.0026 44.4597 24.8869C44.4597 23.7711 43.5552 22.8666 42.4394 22.8666ZM39.02 24.8869C39.02 22.9984 40.5509 21.4674 42.4394 21.4674C44.3279 21.4674 45.8588 22.9984 45.8588 24.8869C45.8588 26.7753 44.3279 28.3063 42.4394 28.3063C40.5509 28.3063 39.02 26.7753 39.02 24.8869Z" fill="white"/>
</g>
</svg>
