<svg width="51" height="50" viewBox="0 0 51 50" fill="none" xmlns="http://www.w3.org/2000/svg">
<g id="Property 1=El Arbol">
<g id="Group">
<path id="Vector" d="M50.5 0H0.5V50H50.5V0Z" fill="#00A88C"/>
<path id="Vector_2" d="M45.5574 19.154L44.9752 18.0886L34.8464 23.6162L34.8715 12.0763L33.6584 12.0734L33.6333 23.6088L33.5106 23.5364L25.5583 36.9707L17.761 23.8025L17.7344 11.6301L16.5213 11.633L16.5465 23.1729L6.41762 17.6438L5.83545 18.7091L16.2022 24.3668L16.1918 24.3727L24.852 39.0008L25.5583 38.5826L26.2645 39.0008L34.4903 25.1041L34.5287 25.1721L45.5574 19.154Z" fill="white"/>
<path id="Vector_3" d="M25.5583 41.7182C27.2899 41.7182 28.6937 40.3143 28.6937 38.5826C28.6937 36.851 27.2899 35.4472 25.5583 35.4472C23.8266 35.4472 22.4229 36.851 22.4229 38.5826C22.4229 40.3143 23.8266 41.7182 25.5583 41.7182Z" fill="white"/>
<path id="Vector_4" d="M34.3071 26.9379C36.0387 26.9379 37.4425 25.5341 37.4425 23.8025C37.4425 22.0708 36.0387 20.6669 34.3071 20.6669C32.5754 20.6669 31.1716 22.0708 31.1716 23.8025C31.1716 25.5341 32.5754 26.9379 34.3071 26.9379Z" fill="white"/>
</g>
<path id="Vector_5" d="M16.808 26.9379C18.5397 26.9379 19.9435 25.5341 19.9435 23.8025C19.9435 22.0708 18.5397 20.6669 16.808 20.6669C15.0764 20.6669 13.6726 22.0708 13.6726 23.8025C13.6726 25.5341 15.0764 26.9379 16.808 26.9379Z" fill="white"/>
<path id="Vector_6" d="M45.3816 20.8767C46.6619 20.8767 47.6999 19.8389 47.6999 18.5585C47.6999 17.2781 46.6619 16.2401 45.3816 16.2401C44.1012 16.2401 43.0632 17.2781 43.0632 18.5585C43.0632 19.8389 44.1012 20.8767 45.3816 20.8767Z" fill="white"/>
<path id="Vector_7" d="M34.2658 14.2631C35.5462 14.2631 36.5842 13.2252 36.5842 11.9449C36.5842 10.6645 35.5462 9.62646 34.2658 9.62646C32.9855 9.62646 31.9475 10.6645 31.9475 11.9449C31.9475 13.2252 32.9855 14.2631 34.2658 14.2631Z" fill="white"/>
<path id="Vector_8" d="M6.01291 20.432C7.29329 20.432 8.33124 19.3941 8.33124 18.1137C8.33124 16.8334 7.29329 15.7953 6.01291 15.7953C4.73253 15.7953 3.69458 16.8334 3.69458 18.1137C3.69458 19.3941 4.73253 20.432 6.01291 20.432Z" fill="white"/>
<path id="Vector_9" d="M17.1286 13.8184C18.409 13.8184 19.447 12.7804 19.447 11.5C19.447 10.2196 18.409 9.18173 17.1286 9.18173C15.8483 9.18173 14.8103 10.2196 14.8103 11.5C14.8103 12.7804 15.8483 13.8184 17.1286 13.8184Z" fill="white"/>
</g>
</svg>
