<svg width="50" height="50" viewBox="0 0 50 50" fill="none" xmlns="http://www.w3.org/2000/svg">
<g id="Property 1=IAM">
<path id="Vector" d="M50 0H0V50H50V0Z" fill="#E5157C"/>
<path id="Vector_2" d="M21.694 25.8837H14.9365V21.6109C14.9365 19.7474 16.4525 18.2314 18.316 18.2314C20.1795 18.2314 21.6955 19.7474 21.6955 21.6109V25.8837H21.694ZM16.2499 24.5689H20.3792V21.6109C20.3792 20.4721 19.4533 19.5462 18.3145 19.5462C17.1757 19.5462 16.2499 20.4721 16.2499 21.6109V24.5689Z" fill="white"/>
<path id="Vector_3" d="M22.9659 24.4388H13.6646V31.5438H22.9659V24.4388Z" fill="white"/>
<path id="Vector_4" d="M43.9065 37.93H6.90381V11.8851H43.9065V37.93ZM8.87529 35.9585H41.935V13.8566H8.87529V35.9585Z" fill="white"/>
<path id="Vector_5" d="M33.8346 19.2741H26.3096V21.2456H33.8346V19.2741Z" fill="white"/>
<path id="Vector_6" d="M31.4875 24.6354H26.3096V26.6069H31.4875V24.6354Z" fill="white"/>
<path id="Vector_7" d="M39.0775 24.7671H34.75V26.7386H39.0775V24.7671Z" fill="white"/>
<path id="Vector_8" d="M39.0764 19.2741H36.4971V21.2456H39.0764V19.2741Z" fill="white"/>
<path id="Vector_9" d="M35.0814 29.0827H26.3096V31.0542H35.0814V29.0827Z" fill="white"/>
</g>
</svg>
