<svg width="51" height="50" viewBox="0 0 51 50" fill="none" xmlns="http://www.w3.org/2000/svg">
<g id="Property 1=La Chulapa">
<path id="Vector" d="M50.5 0H0.5V50H50.5V0Z" fill="#16233C"/>
<path id="Vector_2" d="M39.4994 11.0272H11.5908V38.9359H39.4994V11.0272Z" fill="white"/>
<path id="Vector_3" d="M32.7631 19.2987V16.1412H28.5815V13.3145H22.5057V16.1412H18.3256V19.2987H14.4425V35.8462H36.6462V19.2987H32.7631Z" fill="#16233C"/>
<path id="Vector_4" d="M17.937 31.4785H17.2115V35.0572H17.937V31.4785Z" fill="white"/>
<path id="Vector_5" d="M20.2139 31.4785H19.4884V35.0572H20.2139V31.4785Z" fill="white"/>
<path id="Vector_6" d="M22.4923 31.4785H21.7668V35.0572H22.4923V31.4785Z" fill="white"/>
<path id="Vector_7" d="M24.7693 31.4785H24.0438V35.0572H24.7693V31.4785Z" fill="white"/>
<path id="Vector_8" d="M27.0463 31.4785H26.3208V35.0572H27.0463V31.4785Z" fill="white"/>
<path id="Vector_9" d="M29.3233 31.4785H28.5978V35.0572H29.3233V31.4785Z" fill="white"/>
<path id="Vector_10" d="M31.6017 31.4785H30.8762V35.0572H31.6017V31.4785Z" fill="white"/>
<path id="Vector_11" d="M33.8787 31.4785H33.1532V35.0572H33.8787V31.4785Z" fill="white"/>
</g>
</svg>
