<svg width="50" height="50" viewBox="0 0 50 50" fill="none" xmlns="http://www.w3.org/2000/svg">
<g id="Property 1=Fargate">
<g id="Vector">
<path d="M50 0H0V50H50V0Z" fill="#E5157C"/>
<path d="M25.0436 7.96875L33.6853 12.9574V22.9346L25.0436 27.9247L16.4034 22.9346V12.9574L25.0436 7.96875Z" fill="#F79820"/>
<path d="M33.6853 12.9574L25.0436 17.946L16.4034 12.9574L25.0436 7.96875L33.6853 12.9574Z" fill="white"/>
<path d="M37.7156 19.6912C37.0574 19.4812 36.3579 19.2904 35.6228 19.1174V21.1465C36.1419 21.2781 36.6418 21.4186 37.1166 21.5695C40.3925 22.6136 41.555 23.8412 41.555 24.5748C41.555 25.3084 40.3925 26.5359 37.1166 27.5801C33.9057 28.6036 29.6196 29.167 25.0451 29.167C20.4706 29.167 16.183 28.6036 12.9722 27.5801C9.69622 26.5359 8.53374 25.3084 8.53374 24.5748C8.53374 23.8412 9.69622 22.6136 12.9722 21.5695C13.4735 21.4098 14.0001 21.2619 14.5502 21.1243V19.0981C13.7856 19.2756 13.0565 19.4738 12.3732 19.6912C8.57219 20.9039 6.56225 22.593 6.56225 24.5763C6.56225 26.5596 8.57219 28.2486 12.3732 29.4614C15.7719 30.5455 20.2724 31.1415 25.0451 31.1415C29.8178 31.1415 34.3169 30.544 37.717 29.4614C41.518 28.2486 43.528 26.5596 43.528 24.5763C43.528 22.593 41.518 20.9039 37.717 19.6912H37.7156Z" fill="white"/>
<path d="M17.2834 31.9179L20.1645 33.5818V36.908L17.2834 38.5704L14.4038 36.908V33.5818L17.2834 31.9179Z" fill="#F79820"/>
<path d="M20.1645 33.5818L17.2834 35.2442L14.4038 33.5818L17.2834 31.9179L20.1645 33.5818Z" fill="white"/>
<path d="M32.7166 31.9179L35.5977 33.5818V36.908L32.7166 38.5704L29.837 36.908V33.5818L32.7166 31.9179Z" fill="#F79820"/>
<path d="M35.5977 33.5818L32.7166 35.2442L29.837 33.5818L32.7166 31.9179L35.5977 33.5818Z" fill="white"/>
<path d="M25.2936 36.2041L28.1732 37.8679V41.1942L25.2936 42.8565L22.4125 41.1942V37.8679L25.2936 36.2041Z" fill="#F79820"/>
<path d="M28.1732 37.8679L25.2936 39.5303L22.4125 37.8679L25.2936 36.2041L28.1732 37.8679Z" fill="white"/>
</g>
</g>
</svg>
