<svg width="50" height="50" viewBox="0 0 50 50" fill="none" xmlns="http://www.w3.org/2000/svg">
<g id="Property 1=Cloud Front">
<path id="Vector" d="M50 0H0V50H50V0Z" fill="#32ACB2"/>
<path id="Vector_2" d="M25.0005 7.88591C15.5631 7.88591 7.88574 15.5633 7.88574 25.0007C7.88574 34.4381 15.5631 42.1155 25.0005 42.1155C34.4379 42.1155 42.1153 34.4381 42.1153 25.0007C42.1153 15.5633 34.4379 7.88591 25.0005 7.88591ZM29.2112 10.4564C27.4142 10.8675 25.7075 11.5198 24.1279 12.3776C22.8353 11.6765 21.4584 11.1116 20.0149 10.7049C21.5767 10.1591 23.2539 9.86035 25.0005 9.86035C26.4618 9.86035 27.8742 10.0689 29.2112 10.4564ZM17.0821 12.101C18.8702 12.3524 20.5769 12.8642 22.1609 13.5977C18.4398 16.2096 15.6371 20.0461 14.3459 24.5171C12.7871 24.8721 11.2978 25.4089 9.90012 26.1026C9.8735 25.7387 9.86018 25.3719 9.86018 25.0007C9.86018 19.5521 12.7531 14.7676 17.0835 12.101H17.0821ZM24.1279 14.6597C29.1476 17.7862 32.5389 23.2895 32.7149 29.5841C29.0973 26.1351 24.2034 24.0142 18.8213 24.0142C18.0478 24.0142 17.2862 24.0601 16.5348 24.1459C17.9118 20.1851 20.6227 16.8426 24.1279 14.6597ZM10.1944 28.1702C11.3451 27.5475 12.5682 27.0447 13.8505 26.6794C13.6597 27.7916 13.5591 28.9333 13.5591 30.0988C13.5591 32.0702 13.846 33.9752 14.3755 35.7766C12.3079 33.7386 10.823 31.1119 10.1944 28.1702ZM17.3823 38.0808C16.1991 35.6701 15.5321 32.9606 15.5321 30.0988C15.5321 28.7662 15.677 27.4662 15.9506 26.2135C16.8854 26.0641 17.8437 25.9872 18.8199 25.9872C24.3172 25.9872 29.2511 28.4408 32.5862 32.3084C32.2831 34.7901 31.4785 37.1195 30.2761 39.1901C28.6314 39.8038 26.8537 40.1396 24.9976 40.1396C22.2215 40.1396 19.6185 39.3883 17.3808 38.0794L17.3823 38.0808ZM34.2102 34.5002C34.5577 35.0519 34.8772 35.6228 35.1641 36.2129C34.5518 36.769 33.8937 37.2748 33.1971 37.7244C33.6215 36.6891 33.9617 35.6124 34.2102 34.5002ZM36.6106 34.7073C36.0412 33.6395 35.3771 32.6293 34.6317 31.6872C34.6731 31.1621 34.6953 30.6327 34.6953 30.0988C34.6953 23.2806 31.2907 17.2449 26.0935 13.5963C28.1138 12.6601 30.3338 12.0847 32.672 11.9516C37.1386 14.5872 40.1409 19.4486 40.1409 24.9992C40.1409 28.6893 38.8128 32.0762 36.6106 34.7058V34.7073Z" fill="white"/>
<path id="Vector_3" d="M15.1403 27.1719C16.1368 27.1719 16.9447 26.364 16.9447 25.3675C16.9447 24.371 16.1368 23.5631 15.1403 23.5631C14.1438 23.5631 13.3359 24.371 13.3359 25.3675C13.3359 26.364 14.1438 27.1719 15.1403 27.1719Z" fill="#32ACB2"/>
<path id="Vector (Stroke)" fill-rule="evenodd" clip-rule="evenodd" d="M15.1402 24.2731C14.5358 24.2731 14.0458 24.7631 14.0458 25.3675C14.0458 25.972 14.5358 26.462 15.1402 26.462C15.7447 26.462 16.2347 25.972 16.2347 25.3675C16.2347 24.7631 15.7447 24.2731 15.1402 24.2731ZM12.626 25.3675C12.626 23.979 13.7516 22.8533 15.1402 22.8533C16.5288 22.8533 17.6545 23.979 17.6545 25.3675C17.6545 26.7561 16.5288 27.8818 15.1402 27.8818C13.7517 27.8818 12.626 26.7561 12.626 25.3675Z" fill="white"/>
<path id="Vector_4" d="M33.3405 34.0048C34.337 34.0048 35.1449 33.197 35.1449 32.2004C35.1449 31.2039 34.337 30.3961 33.3405 30.3961C32.344 30.3961 31.5361 31.2039 31.5361 32.2004C31.5361 33.197 32.344 34.0048 33.3405 34.0048Z" fill="#32ACB2"/>
<path id="Vector (Stroke)_2" fill-rule="evenodd" clip-rule="evenodd" d="M33.3409 31.106C32.7365 31.106 32.2465 31.5959 32.2465 32.2004C32.2465 32.8049 32.7365 33.2949 33.3409 33.2949C33.9454 33.2949 34.4354 32.8049 34.4354 32.2004C34.4354 31.5959 33.9454 31.106 33.3409 31.106ZM30.8267 32.2004C30.8267 30.8118 31.9523 29.6861 33.3409 29.6861C34.7295 29.6861 35.8552 30.8118 35.8552 32.2004C35.8552 33.589 34.7295 34.7147 33.3409 34.7147C31.9523 34.7147 30.8267 33.589 30.8267 32.2004Z" fill="white"/>
<path id="Vector_5" d="M24.0602 15.5293C25.0567 15.5293 25.8646 14.7215 25.8646 13.725C25.8646 12.7285 25.0567 11.9206 24.0602 11.9206C23.0637 11.9206 22.2559 12.7285 22.2559 13.725C22.2559 14.7215 23.0637 15.5293 24.0602 15.5293Z" fill="#32ACB2"/>
<path id="Vector (Stroke)_3" fill-rule="evenodd" clip-rule="evenodd" d="M24.0602 12.6305C23.4557 12.6305 22.9657 13.1205 22.9657 13.7249C22.9657 14.3294 23.4557 14.8194 24.0602 14.8194C24.6646 14.8194 25.1546 14.3294 25.1546 13.7249C25.1546 13.1205 24.6646 12.6305 24.0602 12.6305ZM21.5459 13.7249C21.5459 12.3363 22.6716 11.2107 24.0602 11.2107C25.4488 11.2107 26.5744 12.3363 26.5744 13.7249C26.5744 15.1135 25.4488 16.2392 24.0602 16.2392C22.6716 16.2392 21.5459 15.1135 21.5459 13.7249Z" fill="white"/>
</g>
</svg>
