<svg width="51" height="50" viewBox="0 0 51 50" fill="none" xmlns="http://www.w3.org/2000/svg">
<g id="Property 1=La Mano">
<path id="Vector" d="M50.5 0H0.5V50H50.5V0Z" fill="#32ACB2"/>
<path id="Vector_2" d="M30.4893 44.76C27.3657 45.7731 24.3412 45.3737 21.4734 43.7971C19.8569 42.9097 18.5865 41.6467 17.5497 40.1233C14.5991 35.7929 11.6293 31.4757 8.66397 27.1556C8.30901 26.638 8.09012 26.1025 8.27795 25.4607C8.47762 24.7789 8.91687 24.3589 9.6046 24.1947C10.3012 24.029 10.912 24.2154 11.3394 24.7715C12.002 25.6367 12.6099 26.5448 13.2414 27.4351C13.7635 28.1731 14.2797 28.9171 14.8077 29.6492C15.3933 30.4611 16.3059 30.7688 17.2376 30.4878C18.1324 30.2156 18.7595 29.3933 18.8039 28.4334C18.8098 28.29 18.8083 28.1465 18.8083 28.0031V17.4416C18.8083 13.8063 18.8024 10.1709 18.8098 6.5356C18.8128 5.24001 19.9974 4.38663 21.1717 4.82885C21.7796 5.05809 22.1641 5.50181 22.2736 6.15109C22.315 6.3892 22.3253 6.63766 22.3253 6.88022C22.3283 12.7725 22.3268 18.6633 22.3283 24.5555C22.3283 24.7419 22.3283 24.9297 22.3505 25.1131C22.4052 25.5642 22.7454 25.8674 23.1891 25.8763C23.6594 25.8866 24.0084 25.5894 24.072 25.1146C24.0942 24.9445 24.0986 24.7715 24.0986 24.5999C24.1001 22.201 24.0927 19.8006 24.109 17.4002C24.1105 17.0349 24.1548 16.643 24.2939 16.3102C24.603 15.5604 25.4416 15.1832 26.2609 15.3533C27.0167 15.5101 27.6083 16.2215 27.6112 17.0334C27.6216 19.6202 27.6142 22.2069 27.6171 24.7937C27.6171 25.5169 27.9913 25.9192 28.5977 25.8718C29.108 25.8334 29.4082 25.443 29.4082 24.7937C29.4126 22.9405 29.4082 21.0859 29.4082 19.2327C29.4082 19.0744 29.4082 18.9162 29.4126 18.7579C29.4452 17.8439 30.1906 17.1 31.0987 17.0719C32.0216 17.0438 32.8498 17.7167 32.8735 18.6441C32.9252 20.6111 32.903 22.5796 32.9149 24.5481C32.9149 24.7493 32.9208 24.9504 32.9518 25.1486C33.0169 25.5687 33.2743 25.8112 33.6913 25.8674C34.1114 25.9221 34.487 25.7106 34.6187 25.3291C34.6763 25.159 34.6822 24.9623 34.6852 24.7789C34.6911 24.0039 34.6763 23.2274 34.6911 22.4524C34.7059 21.6671 35.0416 21.0607 35.7841 20.7457C36.4541 20.4617 37.0812 20.5874 37.6269 21.0637C38.0129 21.4023 38.2111 21.846 38.2126 22.3578C38.2141 26.4102 38.2865 30.4641 38.1904 34.515C38.075 39.3217 35.0712 43.2795 30.4908 44.7644L30.4893 44.76Z" fill="white"/>
</g>
</svg>
