<svg width="51" height="50" viewBox="0 0 51 50" fill="none" xmlns="http://www.w3.org/2000/svg">
<g id="Property 1=Las Jarras">
<path id="Vector" d="M50.5 0H0.5V50H50.5V0Z" fill="#32ACB2"/>
<g id="Group">
<path id="Vector_2" d="M18.4534 14.1671C23.5381 19.3007 28.6273 24.4402 33.6573 29.5175C31.2643 29.8059 28.6805 30.1165 26.0198 30.4374C27.2578 32.8437 28.4587 35.1805 29.6744 37.5439C29.0917 37.8501 28.5386 38.1415 27.9381 38.458C26.7179 36.0339 25.5037 33.6246 24.2569 31.1458C22.3135 32.7772 20.4175 34.3701 18.4548 36.0176V14.1671H18.4534Z" fill="white"/>
<path id="Vector_3" d="M33.2729 38.705C31.0825 39.832 28.9158 40.9486 26.7225 42.0771C25.6132 39.8689 24.5188 37.6919 23.3977 35.4645C20.8598 37.5839 18.3558 39.6767 15.8016 41.8108V7.6981C23.7098 15.5811 31.6608 23.5084 39.6576 31.4786C36.5237 31.8676 33.4045 32.2522 30.2129 32.6485C31.2319 34.6659 32.2331 36.6477 33.2729 38.705ZM27.9382 38.458C28.5386 38.1415 29.0918 37.8501 29.6745 37.544C28.4588 35.1805 27.2564 32.8438 26.0199 30.4375C28.6806 30.1165 31.2644 29.806 33.6574 29.5175C28.6274 24.4387 23.5382 19.3007 18.4535 14.1672V36.0177C20.4175 34.3686 22.3136 32.7772 24.2555 31.1459C25.5023 33.6247 26.7165 36.0339 27.9367 38.458H27.9382Z" fill="white"/>
</g>
</g>
</svg>
