<svg width="50" height="50" viewBox="0 0 50 50" fill="none" xmlns="http://www.w3.org/2000/svg">
<g id="Property 1=Athena">
<path id="Vector" d="M50 0H0V50H50V0Z" fill="#735FA8"/>
<path id="Vector_2" d="M25.4973 23.5431L25.4962 23.544C24.1866 24.5664 23.9538 26.4569 24.9762 27.7664L37.5062 43.8156C38.5286 45.1252 40.4191 45.358 41.7286 44.3356L41.7298 44.3347C43.0394 43.3123 43.2722 41.4218 42.2498 40.1123L29.7198 24.0631C28.6974 22.7535 26.8069 22.5207 25.4973 23.5431Z" fill="#735FA8"/>
<path id="Vector (Stroke)" fill-rule="evenodd" clip-rule="evenodd" d="M26.1031 24.321C25.2226 25.0084 25.0661 26.2794 25.7535 27.1599L38.2835 43.2091C38.9709 44.0895 40.2419 44.246 41.1223 43.5586L41.1235 43.5577C42.0039 42.8703 42.1605 41.5993 41.4731 40.7189L28.9431 24.6697C28.2557 23.7892 26.9847 23.6327 26.1043 24.3201L26.1031 24.321ZM24.1995 28.3731C22.8421 26.6344 23.1512 24.1245 24.8899 22.7671L24.891 22.7662C26.6297 21.4087 29.1396 21.7178 30.4971 23.4565L43.027 39.5057C44.3845 41.2444 44.0754 43.7543 42.3367 45.1117L42.3356 45.1126C40.5969 46.47 38.087 46.161 36.7295 44.4223L24.1995 28.3731Z" fill="white"/>
<path id="Vector_3" d="M24.384 37.4907C32.8593 37.4907 39.73 30.6201 39.73 22.1448C39.73 13.6695 32.8593 6.79884 24.384 6.79884C15.9087 6.79884 9.03809 13.6695 9.03809 22.1448C9.03809 30.6201 15.9087 37.4907 24.384 37.4907Z" fill="#735FA8"/>
<path id="Vector (Stroke)_2" fill-rule="evenodd" clip-rule="evenodd" d="M24.3839 7.78466C16.453 7.78466 10.0237 14.2139 10.0237 22.1449C10.0237 30.0758 16.453 36.505 24.3839 36.505C32.3148 36.505 38.7441 30.0758 38.7441 22.1449C38.7441 14.2139 32.3148 7.78466 24.3839 7.78466ZM8.05225 22.1449C8.05225 13.1251 15.3642 5.81317 24.3839 5.81317C33.4037 5.81317 40.7156 13.1251 40.7156 22.1449C40.7156 31.1646 33.4037 38.4765 24.3839 38.4765C15.3642 38.4765 8.05225 31.1646 8.05225 22.1449Z" fill="white"/>
<path id="Vector_4" d="M24.3839 33.9515C30.9045 33.9515 36.1906 28.6655 36.1906 22.1448C36.1906 15.6241 30.9045 10.3381 24.3839 10.3381C17.8632 10.3381 12.5771 15.6241 12.5771 22.1448C12.5771 28.6655 17.8632 33.9515 24.3839 33.9515Z" fill="#735FA8"/>
<path id="Vector (Stroke)_3" fill-rule="evenodd" clip-rule="evenodd" d="M24.3838 11.3238C18.4075 11.3238 13.5628 16.1685 13.5628 22.1448C13.5628 28.1211 18.4075 32.9658 24.3838 32.9658C30.36 32.9658 35.2048 28.1211 35.2048 22.1448C35.2048 16.1685 30.36 11.3238 24.3838 11.3238ZM11.5913 22.1448C11.5913 15.0797 17.3187 9.35234 24.3838 9.35234C31.4489 9.35234 37.1762 15.0797 37.1762 22.1448C37.1762 29.2099 31.4489 34.9373 24.3838 34.9373C17.3187 34.9373 11.5913 29.2099 11.5913 22.1448Z" fill="white"/>
<path id="Vector_5" d="M24.4951 16.8752C19.5893 16.8752 15.6123 17.7626 15.6123 18.8585C15.6123 18.999 15.6789 19.1366 15.8031 19.2682L19.4488 27.1024H19.471C19.7017 27.8404 21.8625 28.4187 24.4951 28.4187C27.1277 28.4187 29.2885 27.8404 29.5192 27.1024H29.5414L33.1871 19.2682C33.3113 19.1351 33.3779 18.999 33.3779 18.8585C33.3779 17.7641 29.4009 16.8752 24.4951 16.8752ZM24.4951 20.4455C20.9426 20.4455 18.063 19.8125 18.063 19.033C18.063 18.2536 20.9426 17.6206 24.4951 17.6206C28.0476 17.6206 30.9272 18.2536 30.9272 19.033C30.9272 19.8125 28.0476 20.4455 24.4951 20.4455Z" fill="white"/>
</g>
</svg>
