<svg width="50" height="50" viewBox="0 0 50 50" fill="none" xmlns="http://www.w3.org/2000/svg">
<g id="Property 1=Step Functions">
<path id="Vector" d="M50 0H0V50H50V0Z" fill="#E5157C"/>
<path id="Vector_2" d="M46.9607 22.8651H31.2568V28.0726H46.9607V22.8651Z" fill="#E4157B"/>
<path id="Vector (Stroke)" fill-rule="evenodd" clip-rule="evenodd" d="M30.4824 22.0908H47.7348V28.8468H30.4824V22.0908ZM32.0309 23.6393V27.2983H46.1863V23.6393H32.0309Z" fill="white"/>
<path id="Vector (Stroke)_2" fill-rule="evenodd" clip-rule="evenodd" d="M24.2695 42.3729V35.4098H25.818V42.3729H24.2695Z" fill="white"/>
<path id="Vector (Stroke)_3" fill-rule="evenodd" clip-rule="evenodd" d="M24.2695 15.692V8.72897H25.818V15.692H24.2695Z" fill="white"/>
<path id="Vector_3" d="M25.0438 45.1179C26.5598 45.1179 27.7888 43.8889 27.7888 42.3729C27.7888 40.8569 26.5598 39.6279 25.0438 39.6279C23.5278 39.6279 22.2988 40.8569 22.2988 42.3729C22.2988 43.8889 23.5278 45.1179 25.0438 45.1179Z" fill="#E4157B"/>
<path id="Vector (Stroke)_4" fill-rule="evenodd" clip-rule="evenodd" d="M25.0437 40.4021C23.9552 40.4021 23.0729 41.2845 23.0729 42.3729C23.0729 43.4613 23.9552 44.3436 25.0437 44.3436C26.1321 44.3436 27.0144 43.4613 27.0144 42.3729C27.0144 41.2845 26.1321 40.4021 25.0437 40.4021ZM21.5244 42.3729C21.5244 40.4293 23.1 38.8537 25.0437 38.8537C26.9873 38.8537 28.5629 40.4293 28.5629 42.3729C28.5629 44.3165 26.9873 45.8921 25.0437 45.8921C23.1 45.8921 21.5244 44.3165 21.5244 42.3729Z" fill="white"/>
<path id="Vector_4" d="M25.0438 10.7212C26.5598 10.7212 27.7888 9.4922 27.7888 7.97618C27.7888 6.46016 26.5598 5.23119 25.0438 5.23119C23.5278 5.23119 22.2988 6.46016 22.2988 7.97618C22.2988 9.4922 23.5278 10.7212 25.0438 10.7212Z" fill="#E4157B"/>
<path id="Vector (Stroke)_5" fill-rule="evenodd" clip-rule="evenodd" d="M25.0437 6.00537C23.9552 6.00537 23.0729 6.88771 23.0729 7.97612C23.0729 9.06453 23.9552 9.94687 25.0437 9.94687C26.1321 9.94687 27.0144 9.06453 27.0144 7.97612C27.0144 6.88771 26.1321 6.00537 25.0437 6.00537ZM21.5244 7.97612C21.5244 6.0325 23.1 4.45688 25.0437 4.45688C26.9873 4.45688 28.5629 6.0325 28.5629 7.97612C28.5629 9.91974 26.9873 11.4954 25.0437 11.4954C23.1 11.4954 21.5244 9.91974 21.5244 7.97612Z" fill="white"/>
<path id="Vector_5" d="M38.3663 30.0544V34.6363H12.4235V16.3028H38.3663V20.7413H39.9134V14.7558H10.875V36.1833H39.9134V30.0544H38.3663Z" fill="white"/>
<path id="Vector_6" d="M17.7908 18.7047H5.50635V22.7793H17.7908V18.7047Z" fill="#E4157B"/>
<path id="Vector (Stroke)_6" fill-rule="evenodd" clip-rule="evenodd" d="M4.73193 17.9304H18.5649V23.5535H4.73193V17.9304ZM6.28043 19.4789V22.005H17.0164V19.4789H6.28043Z" fill="white"/>
<path id="Vector_7" d="M17.7908 28.4823H5.50635V32.5569H17.7908V28.4823Z" fill="#E4157B"/>
<path id="Vector (Stroke)_7" fill-rule="evenodd" clip-rule="evenodd" d="M4.73193 27.7081H18.5649V33.3311H4.73193V27.7081ZM6.28043 29.2565V31.7827H17.0164V29.2565H6.28043Z" fill="white"/>
</g>
</svg>
