<svg width="51" height="50" viewBox="0 0 51 50" fill="none" xmlns="http://www.w3.org/2000/svg">
<g id="Property 1=La Bo(o)ta">
<path id="Vector" d="M50.5 0H0.5V50H50.5V0Z" fill="#725FA8"/>
<path id="Vector_2" d="M26.9605 5.29475H24.0026V18.5257H26.9605V5.29475Z" fill="white"/>
<path id="Vector_3" d="M29.1464 9.25104V12.3066C34.6616 13.8921 38.7066 18.9828 38.7066 25.0007C38.7066 32.2833 32.7818 38.2066 25.5007 38.2066C18.2197 38.2066 12.2949 32.2818 12.2949 25.0007C12.2949 18.9961 16.3236 13.9158 21.8195 12.317V9.2599C14.6746 10.9312 9.33691 17.3544 9.33691 25.0007C9.33691 33.9146 16.5884 41.1645 25.5007 41.1645C34.4131 41.1645 41.6645 33.9131 41.6645 25.0007C41.6645 17.3411 36.3091 10.909 29.1464 9.25104Z" fill="white"/>
</g>
</svg>
