<svg width="51" height="50" viewBox="0 0 51 50" fill="none" xmlns="http://www.w3.org/2000/svg">
<g id="Property 1=El Musico">
<path id="Vector" d="M50.5 0H0.5V50H50.5V0Z" fill="#16233C"/>
<g id="Group">
<path id="Vector_2" d="M36.4393 12.1281C42.9998 18.3472 43.7608 30.586 36.432 37.9178C35.8705 37.2987 35.309 36.6796 34.6722 35.9763C37.4101 32.9665 38.9512 29.2873 38.9616 25.0481C38.9719 20.7971 37.4707 17.1001 34.5835 13.9248C35.2336 13.2954 35.8365 12.7117 36.4393 12.1281Z" fill="white"/>
<path id="Vector_3" d="M32.667 15.9742C36.8796 19.9637 37.9849 28.4021 32.7128 34.0568C32.144 33.4244 31.5721 32.7892 30.9501 32.0962C34.6958 27.7004 34.282 21.7146 30.8215 17.7724C31.4362 17.174 32.0509 16.5756 32.667 15.9742Z" fill="white"/>
<path id="Vector_4" d="M28.8017 19.72C31.5013 22.1624 31.5279 27.5052 28.8756 30.2225C28.2964 29.596 27.7157 28.9682 27.07 28.2722C28.5786 26.1637 28.6052 23.8586 26.9636 21.5758C27.5916 20.9419 28.1974 20.3302 28.8017 19.72Z" fill="white"/>
<path id="Vector_5" d="M14.6347 31.7547C12.8955 31.7902 11.1535 31.7666 9.35229 31.7666V18.2424C11.0294 18.2424 12.6872 18.198 14.3421 18.2615C15.1577 18.2926 15.7133 18.028 16.2748 17.4518C18.5975 15.0625 20.9676 12.719 23.3214 10.3608C23.5238 10.1584 23.7336 9.96636 24.0336 9.68118V40.3204C21.3133 37.6002 18.6877 34.9921 16.0886 32.3576C15.666 31.9276 15.2405 31.7414 14.6347 31.7547ZM13.7289 20.9565C13.1778 20.8679 12.6 20.9433 12.0504 20.9433V29.0567C13.3226 29.0567 14.5357 29.0833 15.7443 29.0449C16.3442 29.0257 16.7875 29.1868 17.2057 29.633C18.2001 30.6939 19.2432 31.7075 20.2716 32.7374C20.5952 33.0625 20.9306 33.3772 21.3754 33.8072V16.1515C20.3692 17.1578 19.394 17.9497 18.6493 18.919C17.3711 20.5842 15.8049 21.2949 13.7289 20.9565Z" fill="white"/>
<path id="Vector_6" d="M15.7443 29.0449C14.5356 29.0833 13.3225 29.0567 12.0503 29.0567V20.9433C12.6 20.9433 13.1777 20.8679 13.7288 20.9566C15.8048 21.2949 17.3711 20.5842 18.6492 18.919C19.3939 17.9497 20.3691 17.1578 21.3753 16.1516V33.8072C20.9306 33.3772 20.5952 33.0625 20.2716 32.7374C19.2432 31.7075 18.2 30.6939 17.2056 29.633C16.7874 29.1868 16.3442 29.0257 15.7443 29.0449Z" fill="white"/>
</g>
</g>
</svg>
