<svg width="51" height="50" viewBox="0 0 51 50" fill="none" xmlns="http://www.w3.org/2000/svg">
<g id="Property 1=El Pescado">
<path id="Vector" d="M50.5 0H0.5V50H50.5V0Z" fill="#16233C"/>
<path id="Vector_2" d="M37.017 32.3665C36.3004 26.465 33.6791 20.7527 29.1504 16.2224C24.4915 11.5636 18.5797 8.92463 12.4994 8.30109L12.9117 11.3183L8.89709 9.67817C9.07884 16.4795 11.7636 23.2276 16.9544 28.4184C21.4832 32.9472 27.197 35.5699 33.0985 36.285L34.9868 43.3302L44.0636 34.2533L37.0185 32.365L37.017 32.3665ZM12.1079 15.4068C11.6351 15.4068 11.2509 15.0226 11.2509 14.5498C11.2509 14.077 11.6351 13.6928 12.1079 13.6928C12.5807 13.6928 12.9649 14.077 12.9649 14.5498C12.9649 15.0226 12.5807 15.4068 12.1079 15.4068Z" fill="#E5157C"/>
</g>
</svg>
