<svg width="51" height="50" viewBox="0 0 51 50" fill="none" xmlns="http://www.w3.org/2000/svg">
<g id="Property 1=El Pino">
<path id="Vector" d="M50.5 0H0.5V50H50.5V0Z" fill="#32ACB2"/>
<g id="Group">
<path id="Vector_2" d="M6.0625 30.3916C6.28139 29.7896 6.57275 29.2424 7.15695 28.9052C8.02067 28.4068 9.01455 28.4955 9.79693 29.1685C10.5645 29.8266 11.2937 30.535 12.0908 31.1533C15 33.4131 18.2848 34.8315 21.9246 35.4112C26.7579 36.1818 31.3576 35.4512 35.7102 33.209C37.6462 32.2122 39.3707 30.9196 40.9429 29.4154C41.2283 29.1418 41.5699 28.8845 41.9323 28.741C42.9188 28.3506 44.0324 28.7499 44.5871 29.6269C45.1787 30.5617 45.013 31.7005 44.1729 32.5257C41.493 35.1539 38.4138 37.1638 34.8982 38.4905C32.4979 39.3971 30.0176 39.9399 27.4545 40.1159C21.4543 40.5285 15.9303 39.1072 10.8899 35.8268C9.40204 34.8581 8.02659 33.7415 6.78868 32.4681C6.47662 32.1471 6.3021 31.6946 6.06398 31.3026V30.3916H6.0625Z" fill="white"/>
<path id="Vector_3" d="M25.5954 32.8274C20.2903 32.7343 15.8001 30.9314 12.0553 27.3064C11.3439 26.6172 11.094 25.7904 11.4253 24.8542C11.7462 23.9476 12.434 23.4522 13.3953 23.3797C13.9558 23.3368 14.4735 23.4921 14.9083 23.8589C15.46 24.3233 15.985 24.8187 16.5514 25.2624C18.4371 26.737 20.5654 27.7013 22.9259 28.0814C27.5477 28.8238 31.6607 27.6969 35.2236 24.6265C35.6984 24.2183 36.1776 23.7642 36.7366 23.5187C37.6876 23.1016 38.8072 23.5379 39.3559 24.3958C39.9342 25.2994 39.8336 26.4796 38.9965 27.2324C38.0307 28.1006 37.0383 28.9584 35.9675 29.6861C33.3808 31.4431 30.4864 32.4045 27.3806 32.7254C26.752 32.7905 26.119 32.8008 25.5939 32.8289L25.5954 32.8274Z" fill="white"/>
<path id="Vector_4" d="M25.0733 25.4577C22.914 25.3468 20.9114 24.7463 19.1204 23.5454C18.3602 23.0366 17.6384 22.4376 17.0114 21.7735C16.2334 20.9483 16.3488 19.6275 17.1445 18.8185C17.9357 18.0154 19.2343 17.9149 20.1098 18.641C20.8508 19.2548 21.5563 19.9115 22.4599 20.2827C25.2774 21.4437 27.8848 21.0991 30.266 19.172C30.55 18.9413 30.8073 18.6677 31.1164 18.4784C32.0955 17.8779 33.329 18.1264 34.033 19.0359C34.734 19.9411 34.6379 21.2071 33.7904 22.0294C31.8411 23.924 29.5147 25.0421 26.8141 25.3616C26.2387 25.4296 25.6545 25.4266 25.0748 25.4562L25.0733 25.4577Z" fill="white"/>
<path id="Vector_5" d="M21.6746 13.6244C21.6879 11.4887 23.3946 9.79825 25.5259 9.81452C27.6378 9.83079 29.3401 11.5464 29.3209 13.6436C29.3032 15.7556 27.6112 17.486 25.5066 17.4579C23.3074 17.4283 21.713 15.7837 21.6746 13.6244Z" fill="white"/>
</g>
</g>
</svg>
