<svg width="51" height="50" viewBox="0 0 51 50" fill="none" xmlns="http://www.w3.org/2000/svg">
<g id="Property 1=La botella">
<path id="Vector" d="M50.5 0H0.5V50H50.5V0Z" fill="#725FA8"/>
<g id="Group">
<path id="Vector_2" d="M17.532 43.701C16.8679 43.4688 16.1935 43.2691 15.6315 42.8077C14.5799 41.9454 13.9765 40.8421 13.9735 39.4889C13.9573 30.791 13.9602 22.0931 13.9676 13.3966C13.9691 11.0332 15.8962 9.14307 18.267 9.13568C18.6205 9.13568 18.974 9.1268 19.3275 9.13568C19.6247 9.14159 19.7445 9.00257 19.7401 8.71417C19.7327 8.34886 19.7327 7.98355 19.7445 7.61824C19.7682 6.86544 20.3287 6.3049 21.0786 6.30342C24.0262 6.29899 26.9738 6.29899 29.9229 6.30342C30.6727 6.30342 31.2333 6.86396 31.2569 7.61824C31.2673 7.94657 31.2569 8.27639 31.2629 8.60472C31.2688 9.08687 31.3117 9.11497 31.7835 9.13863C32.449 9.17265 33.1323 9.14455 33.7771 9.28801C35.6747 9.70804 37.0309 11.4207 37.0338 13.3611C37.0427 22.0827 37.0412 30.8057 37.0338 39.5273C37.0338 41.3213 35.7664 42.9571 33.9857 43.5265C33.8126 43.5812 33.6425 43.6433 33.471 43.7025H17.5335L17.532 43.701ZM34.7754 26.5137C34.7754 22.0679 34.7754 17.6221 34.7754 13.1777C34.7754 11.6529 34.2075 11.0835 32.696 11.082C31.4936 11.082 30.2897 11.0731 29.0873 11.0865C28.7205 11.0909 28.5652 10.9607 28.5741 10.5836C28.5903 9.89144 28.5711 9.19779 28.5785 8.50415C28.5829 8.18321 28.4676 8.02052 28.1245 8.022C26.3719 8.0294 24.6207 8.02792 22.8681 8.022C22.5502 8.022 22.4215 8.16251 22.4245 8.47309C22.4318 9.15342 22.4274 9.83228 22.4245 10.5126C22.4215 11.0332 22.3801 11.0776 21.8669 11.0791C20.5728 11.082 19.2787 11.0805 17.9831 11.082C17.4151 11.082 16.8797 11.2447 16.5943 11.7416C16.3843 12.107 16.2541 12.5684 16.2438 12.9899C16.2038 14.6109 16.2275 16.2318 16.2275 17.8528C16.2275 25.1753 16.2349 32.4962 16.2216 39.8187C16.2186 41.064 16.6401 41.9913 18.3291 41.9647C22.1849 41.9026 26.0435 41.9454 29.9007 41.9454C30.9863 41.9454 32.0719 41.9514 33.156 41.9425C33.9827 41.9366 34.5477 41.4707 34.7 40.6661C34.7533 40.3866 34.7725 40.0952 34.774 39.8098C34.7784 35.3773 34.7769 30.9448 34.7769 26.5123L34.7754 26.5137Z" fill="white"/>
<path id="Vector_3" d="M32.7226 26.4472C32.7226 30.2231 32.7211 33.9989 32.7255 37.7748C32.7255 38.2051 32.6412 38.5971 32.3395 38.9195C32.06 39.2182 31.7243 39.3735 31.3042 39.3735C27.4308 39.3691 23.5573 39.3735 19.6839 39.3676C18.9163 39.3676 18.3276 38.7849 18.2847 38.0158C18.2803 37.93 18.2803 37.8457 18.2803 37.76C18.2803 30.2201 18.2803 22.6802 18.2773 15.1404C18.2773 14.5177 18.4149 13.9602 19.0065 13.6584C19.2653 13.5268 19.5877 13.4603 19.8806 13.4588C23.6327 13.4455 27.3834 13.447 31.1356 13.4529C32.1487 13.4529 32.7196 14.0282 32.7196 15.0457C32.7241 18.8467 32.7211 22.6462 32.7211 26.4472H32.7226Z" fill="white"/>
</g>
</g>
</svg>
