<svg width="50" height="50" viewBox="0 0 50 50" fill="none" xmlns="http://www.w3.org/2000/svg">
<g id="Property 1=El Diablo">
<path id="Vector" d="M50 0H0V50H50V0Z" fill="#E5157C"/>
<g id="Group">
<path id="Vector_2" d="M8.93066 9.32214H14.4184H8.93066ZM15.2015 9.32214H15.9861H15.2015ZM19.1216 9.32214H21.4739H19.1216ZM23.0401 9.32214H23.8247H23.0401ZM24.6078 9.32214H28.5279H24.6078ZM30.0956 9.32214H33.231H30.0956ZM35.5833 9.32214H41.0711H35.5833ZM8.93066 10.1067H9.71526H8.93066ZM13.6338 10.1067H14.4184H13.6338ZM15.2015 10.1067H17.5539H15.2015ZM23.0401 10.1067H23.8247H23.0401ZM24.6078 10.1067H25.3924H24.6078ZM30.0956 10.1067H31.6633H30.0956ZM32.4479 10.1067H33.2325H32.4479ZM35.5833 10.1067H36.3679H35.5833ZM40.2865 10.1067H41.0711H40.2865ZM8.93066 10.8898H9.71526H8.93066ZM10.4984 10.8898H12.8507H10.4984ZM13.6338 10.8898H14.4184H13.6338ZM16.7693 10.8898H19.1216H16.7693ZM20.6893 10.8898H21.4739H20.6893ZM22.257 10.8898H23.0416H22.257ZM25.3924 10.8898H28.5279H25.3924ZM29.3125 10.8898H30.8802H29.3125ZM32.4479 10.8898H33.2325H32.4479ZM34.0156 10.8898H34.8002H34.0156ZM35.5833 10.8898H36.3679H35.5833ZM37.1511 10.8898H39.5034H37.1511ZM40.2865 10.8898H41.0711H40.2865ZM8.93066 11.6744H9.71526H8.93066ZM10.4984 11.6744H12.8507H10.4984ZM13.6338 11.6744H14.4184H13.6338ZM15.2015 11.6744H15.9861H15.2015ZM16.7693 11.6744H18.337H16.7693ZM21.4724 11.6744H23.0401H21.4724ZM23.8247 11.6744H24.6093H23.8247ZM26.1756 11.6744H27.7433H26.1756ZM28.5279 11.6744H29.3125H28.5279ZM30.0956 11.6744H33.231H30.0956ZM34.0156 11.6744H34.8002H34.0156ZM35.5833 11.6744H36.3679H35.5833ZM37.1511 11.6744H39.5034H37.1511ZM40.2865 11.6744H41.0711H40.2865ZM8.93066 12.4575H9.71526H8.93066ZM10.4984 12.4575H12.8507H10.4984ZM13.6338 12.4575H14.4184H13.6338ZM15.2015 12.4575H15.9861H15.2015ZM16.7693 12.4575H18.337H16.7693ZM20.6893 12.4575H22.257H20.6893ZM23.0401 12.4575H23.8247H23.0401ZM24.6078 12.4575H25.3924H24.6078ZM26.1756 12.4575H27.7433H26.1756ZM28.5279 12.4575H29.3125H28.5279ZM30.0956 12.4575H30.8802H30.0956ZM31.6633 12.4575H34.0156H31.6633ZM35.5833 12.4575H36.3679H35.5833ZM37.1511 12.4575H39.5034H37.1511ZM40.2865 12.4575H41.0711H40.2865ZM8.93066 13.2421H9.71526H8.93066ZM13.6338 13.2421H14.4184H13.6338ZM15.2015 13.2421H15.9861H15.2015ZM17.5539 13.2421H19.9062H17.5539ZM21.4724 13.2421H24.6078H21.4724ZM26.1756 13.2421H26.9602H26.1756ZM27.7433 13.2421H31.6633H27.7433ZM33.231 13.2421H34.0156H33.231ZM35.5833 13.2421H36.3679H35.5833ZM40.2865 13.2421H41.0711H40.2865ZM8.93066 14.0253H14.4184H8.93066ZM15.2015 14.0253H15.9861H15.2015ZM16.7693 14.0253H17.5539H16.7693ZM18.337 14.0253H19.1216H18.337ZM19.9047 14.0253H20.6893H19.9047ZM21.4724 14.0253H22.257H21.4724ZM23.0401 14.0253H23.8247H23.0401ZM24.6078 14.0253H25.3924H24.6078ZM26.1756 14.0253H26.9602H26.1756ZM27.7433 14.0253H28.5279H27.7433ZM29.3125 14.0253H30.0971H29.3125ZM30.8802 14.0253H31.6648H30.8802ZM32.4479 14.0253H33.2325H32.4479ZM34.0156 14.0253H34.8002H34.0156ZM35.5833 14.0253H41.0711H35.5833ZM15.9861 14.8098H17.5539H15.9861ZM18.337 14.8098H19.1216H18.337ZM20.6893 14.8098H21.4739H20.6893ZM23.0401 14.8098H23.8247H23.0401ZM25.3924 14.8098H26.177H25.3924ZM26.9602 14.8098H27.7448H26.9602ZM29.3125 14.8098H33.2325H29.3125ZM11.2815 15.5929H12.0661H11.2815ZM13.6338 15.5929H14.4184H13.6338ZM16.7693 15.5929H18.337H16.7693ZM19.1216 15.5929H19.9062H19.1216ZM22.257 15.5929H23.8247H22.257ZM24.6078 15.5929H25.3924H24.6078ZM26.1756 15.5929H26.9602H26.1756ZM27.7433 15.5929H28.5279H27.7433ZM30.8802 15.5929H31.6648H30.8802ZM33.231 15.5929H34.7987H33.231ZM36.3665 15.5929H38.7188H36.3665ZM39.5019 15.5929H41.0696H39.5019ZM10.4984 16.3776H11.283H10.4984ZM12.0661 16.3776H13.6338H12.0661ZM14.4184 16.3776H15.9861H14.4184ZM17.5539 16.3776H18.3384H17.5539ZM19.1216 16.3776H19.9062H19.1216ZM27.7433 16.3776H28.5279H27.7433ZM29.3125 16.3776H30.0971H29.3125ZM31.6633 16.3776H32.4479H31.6633ZM34.0156 16.3776H35.5833H34.0156ZM37.9342 16.3776H40.2865H37.9342ZM8.93066 17.1607H15.9861H8.93066ZM19.1216 17.1607H20.6893H19.1216ZM23.0401 17.1607H25.3924H23.0401ZM30.8802 17.1607H32.4479H30.8802ZM33.231 17.1607H34.0156H33.231ZM34.7987 17.1607H37.1511H34.7987ZM37.9342 17.1607H40.2865H37.9342ZM8.93066 17.9452H12.0661H8.93066ZM12.8492 17.9452H13.6338H12.8492ZM14.4184 17.9452H15.203H14.4184ZM15.9861 17.9452H17.5539H15.9861ZM18.337 17.9452H19.1216H18.337ZM19.9047 17.9452H23.0401H19.9047ZM23.8247 17.9452H25.3924H23.8247ZM26.9602 17.9452H27.7448H26.9602ZM28.5279 17.9452H29.3125H28.5279ZM30.0956 17.9452H31.6633H30.0956ZM32.4479 17.9452H33.2325H32.4479ZM34.7987 17.9452H37.9342H34.7987ZM38.7188 17.9452H39.5034H38.7188ZM11.2815 18.7283H15.9847H11.2815ZM16.7693 18.7283H17.5539H16.7693ZM19.9047 18.7283H23.8247H19.9047ZM26.1756 18.7283H26.9602H26.1756ZM28.5279 18.7283H30.0956H28.5279ZM30.8802 18.7283H32.4479H30.8802ZM33.231 18.7283H34.0156H33.231ZM34.7987 18.7283H35.5833H34.7987ZM36.3665 18.7283H37.1511H36.3665ZM37.9342 18.7283H38.7188H37.9342ZM40.2865 18.7283H41.0711H40.2865ZM9.71378 19.513H13.6338H9.71378ZM14.4184 19.513H15.203H14.4184ZM18.337 19.513H19.9047H18.337ZM22.257 19.513H23.0416H22.257ZM24.6078 19.513H25.3924H24.6078ZM26.1756 19.513H26.9602H26.1756ZM30.0956 19.513H30.8802H30.0956ZM34.7987 19.513H36.3665H34.7987ZM37.9342 19.513H38.7188H37.9342ZM39.5019 19.513H40.2865H39.5019ZM8.93066 20.2975H11.283H8.93066ZM13.6338 20.2975H15.2015H13.6338ZM17.5539 20.2975H19.1216H17.5539ZM19.9047 20.2975H20.6893H19.9047ZM22.257 20.2975H23.8247H22.257ZM24.6078 20.2975H26.9602H24.6078ZM27.7433 20.2975H32.4464H27.7433ZM34.0156 20.2975H34.8002H34.0156ZM35.5833 20.2975H36.3679H35.5833ZM37.1511 20.2975H38.7188H37.1511ZM39.5019 20.2975H41.0696H39.5019ZM8.93066 21.0808H10.4984H8.93066ZM11.2815 21.0808H12.0661H11.2815ZM12.8492 21.0808H13.6338H12.8492ZM15.2015 21.0808H17.5539H15.2015ZM18.337 21.0808H21.4724H18.337ZM23.0401 21.0808H23.8247H23.0401ZM24.6078 21.0808H25.3924H24.6078ZM26.1756 21.0808H27.7433H26.1756ZM30.8802 21.0808H34.0156H30.8802ZM35.5833 21.0808H37.1511H35.5833ZM37.9342 21.0808H38.7188H37.9342ZM40.2865 21.0808H41.0711H40.2865ZM8.93066 21.8653H9.71526H8.93066ZM10.4984 21.8653H11.283H10.4984ZM12.8492 21.8653H14.4169H12.8492ZM17.5539 21.8653H19.1216H17.5539ZM19.9047 21.8653H20.6893H19.9047ZM22.257 21.8653H23.8247H22.257ZM24.6078 21.8653H25.3924H24.6078ZM26.9602 21.8653H27.7448H26.9602ZM28.5279 21.8653H29.3125H28.5279ZM30.0956 21.8653H30.8802H30.0956ZM31.6633 21.8653H32.4479H31.6633ZM33.231 21.8653H34.7987H33.231ZM36.3665 21.8653H37.1511H36.3665ZM37.9342 21.8653H38.7188H37.9342ZM8.93066 22.6484H9.71526H8.93066ZM10.4984 22.6484H12.8507H10.4984ZM14.4184 22.6484H15.203H14.4184ZM18.337 22.6484H19.9047H18.337ZM21.4724 22.6484H22.257H21.4724ZM23.0401 22.6484H24.6078H23.0401ZM25.3924 22.6484H26.9602H25.3924ZM28.5279 22.6484H31.6633H28.5279ZM32.4479 22.6484H34.0156H32.4479ZM35.5833 22.6484H37.1511H35.5833ZM37.9342 22.6484H38.7188H37.9342ZM39.5019 22.6484H41.0696H39.5019ZM8.93066 23.4331H14.4184H8.93066ZM15.9861 23.4331H16.7707H15.9861ZM18.337 23.4331H19.9047H18.337ZM21.4724 23.4331H23.0401H21.4724ZM24.6078 23.4331H25.3924H24.6078ZM32.4479 23.4331H33.2325H32.4479ZM34.7987 23.4331H36.3665H34.7987ZM37.1511 23.4331H41.0711H37.1511ZM8.93066 24.2161H10.4984H8.93066ZM11.2815 24.2161H12.0661H11.2815ZM12.8492 24.2161H13.6338H12.8492ZM15.9861 24.2161H17.5539H15.9861ZM18.337 24.2161H19.9047H18.337ZM23.0401 24.2161H25.3924H23.0401ZM26.1756 24.2161H26.9602H26.1756ZM27.7433 24.2161H30.0956H27.7433ZM31.6633 24.2161H33.231H31.6633ZM34.0156 24.2161H34.8002H34.0156ZM36.3665 24.2161H37.1511H36.3665ZM39.5019 24.2161H40.2865H39.5019ZM8.93066 25.0007H11.283H8.93066ZM12.0661 25.0007H21.4724H12.0661ZM22.257 25.0007H23.0416H22.257ZM26.1756 25.0007H26.9602H26.1756ZM27.7433 25.0007H29.311H27.7433ZM30.0956 25.0007H30.8802H30.0956ZM31.6633 25.0007H33.231H31.6633ZM34.0156 25.0007H34.8002H34.0156ZM35.5833 25.0007H39.5034H35.5833ZM40.2865 25.0007H41.0711H40.2865ZM9.71378 25.7838H11.2815H9.71378ZM12.8492 25.7838H13.6338H12.8492ZM15.2015 25.7838H15.9861H15.2015ZM16.7693 25.7838H18.337H16.7693ZM19.9047 25.7838H20.6893H19.9047ZM23.0401 25.7838H23.8247H23.0401ZM24.6078 25.7838H25.3924H24.6078ZM26.9602 25.7838H27.7448H26.9602ZM28.5279 25.7838H29.3125H28.5279ZM30.0956 25.7838H31.6633H30.0956ZM32.4479 25.7838H33.2325H32.4479ZM35.5833 25.7838H37.1511H35.5833ZM37.9342 25.7838H38.7188H37.9342ZM39.5019 25.7838H41.0696H39.5019ZM9.71378 26.5684H10.4984H9.71378ZM11.2815 26.5684H12.0661H11.2815ZM12.8492 26.5684H15.2015H12.8492ZM15.9861 26.5684H16.7707H15.9861ZM18.337 26.5684H23.0401H18.337ZM23.8247 26.5684H30.0956H23.8247ZM30.8802 26.5684H32.4479H30.8802ZM33.231 26.5684H34.0156H33.231ZM36.3665 26.5684H38.7188H36.3665ZM39.5019 26.5684H40.2865H39.5019ZM8.93066 27.3515H9.71526H8.93066ZM10.4984 27.3515H12.0661H10.4984ZM14.4184 27.3515H15.9861H14.4184ZM18.337 27.3515H19.1216H18.337ZM19.9047 27.3515H20.6893H19.9047ZM22.257 27.3515H24.6093H22.257ZM25.3924 27.3515H28.5279H25.3924ZM32.4479 27.3515H33.2325H32.4479ZM36.3665 27.3515H37.1511H36.3665ZM38.7188 27.3515H40.2865H38.7188ZM8.93066 28.1362H10.4984H8.93066ZM11.2815 28.1362H12.0661H11.2815ZM13.6338 28.1362H14.4184H13.6338ZM15.2015 28.1362H15.9861H15.2015ZM17.5539 28.1362H18.3384H17.5539ZM20.6893 28.1362H22.257H20.6893ZM23.0401 28.1362H23.8247H23.0401ZM24.6078 28.1362H26.1756H24.6078ZM26.9602 28.1362H27.7448H26.9602ZM31.6633 28.1362H32.4479H31.6633ZM34.0156 28.1362H36.3679H34.0156ZM37.1511 28.1362H37.9357H37.1511ZM40.2865 28.1362H41.0711H40.2865ZM9.71378 28.9193H12.0661H9.71378ZM12.8492 28.9193H13.6338H12.8492ZM14.4184 28.9193H15.203H14.4184ZM15.9861 28.9193H17.5539H15.9861ZM20.6893 28.9193H22.257H20.6893ZM23.8247 28.9193H25.3924H23.8247ZM26.1756 28.9193H28.5279H26.1756ZM29.3125 28.9193H30.0971H29.3125ZM31.6633 28.9193H34.0156H31.6633ZM35.5833 28.9193H36.3679H35.5833ZM37.9342 28.9193H38.7188H37.9342ZM8.93066 29.7038H9.71526H8.93066ZM11.2815 29.7038H12.8492H11.2815ZM13.6338 29.7038H20.6893H13.6338ZM21.4724 29.7038H23.0401H21.4724ZM25.3924 29.7038H28.5279H25.3924ZM30.8802 29.7038H31.6648H30.8802ZM34.0156 29.7038H34.8002H34.0156ZM35.5833 29.7038H37.1511H35.5833ZM39.5019 29.7038H41.0696H39.5019ZM10.4984 30.4869H13.6338H10.4984ZM15.2015 30.4869H16.7693H15.2015ZM18.337 30.4869H19.1216H18.337ZM21.4724 30.4869H24.6078H21.4724ZM25.3924 30.4869H26.177H25.3924ZM26.9602 30.4869H27.7448H26.9602ZM28.5279 30.4869H33.231H28.5279ZM34.0156 30.4869H34.8002H34.0156ZM36.3665 30.4869H37.9342H36.3665ZM8.93066 31.2716H10.4984H8.93066ZM12.0661 31.2716H12.8507H12.0661ZM13.6338 31.2716H15.2015H13.6338ZM16.7693 31.2716H17.5539H16.7693ZM19.1216 31.2716H21.4739H19.1216ZM22.257 31.2716H23.0416H22.257ZM23.8247 31.2716H26.177H23.8247ZM26.9602 31.2716H30.0956H26.9602ZM30.8802 31.2716H31.6648H30.8802ZM34.0156 31.2716H34.8002H34.0156ZM36.3665 31.2716H37.9342H36.3665ZM39.5019 31.2716H40.2865H39.5019ZM9.71378 32.0547H12.8492H9.71378ZM14.4184 32.0547H15.9861H14.4184ZM16.7693 32.0547H18.337H16.7693ZM19.1216 32.0547H20.6893H19.1216ZM21.4724 32.0547H22.257H21.4724ZM23.8247 32.0547H24.6093H23.8247ZM26.9602 32.0547H27.7448H26.9602ZM30.0956 32.0547H30.8802H30.0956ZM32.4479 32.0547H34.0156H32.4479ZM36.3665 32.0547H37.1511H36.3665ZM40.2865 32.0547H41.0711H40.2865ZM8.93066 32.8392H9.71526H8.93066ZM12.8492 32.8392H15.2015H12.8492ZM16.7693 32.8392H18.337H16.7693ZM19.1216 32.8392H20.6893H19.1216ZM21.4724 32.8392H23.8247H21.4724ZM24.6078 32.8392H26.9602H24.6078ZM27.7433 32.8392H28.5279H27.7433ZM29.3125 32.8392H30.0971H29.3125ZM31.6633 32.8392H32.4479H31.6633ZM33.231 32.8392H34.7987H33.231ZM37.1511 32.8392H38.7188H37.1511ZM39.5019 32.8392H41.0696H39.5019ZM14.4184 33.6225H15.203H14.4184ZM16.7693 33.6225H19.9047H16.7693ZM20.6893 33.6225H22.257H20.6893ZM23.0401 33.6225H23.8247H23.0401ZM27.7433 33.6225H35.5819H27.7433ZM37.9342 33.6225H38.7188H37.9342ZM8.93066 34.407H9.71526H8.93066ZM10.4984 34.407H12.8507H10.4984ZM13.6338 34.407H14.4184H13.6338ZM15.2015 34.407H16.7693H15.2015ZM17.5539 34.407H18.3384H17.5539ZM19.1216 34.407H19.9062H19.1216ZM20.6893 34.407H23.0416H20.6893ZM24.6078 34.407H26.9602H24.6078ZM27.7433 34.407H29.311H27.7433ZM30.8802 34.407H31.6648H30.8802ZM33.231 34.407H37.9342H33.231ZM38.7188 34.407H40.2865H38.7188ZM15.2015 35.1917H23.0401H15.2015ZM24.6078 35.1917H25.3924H24.6078ZM26.1756 35.1917H29.311H26.1756ZM30.0956 35.1917H31.6633H30.0956ZM32.4479 35.1917H33.2325H32.4479ZM34.0156 35.1917H34.8002H34.0156ZM37.1511 35.1917H37.9357H37.1511ZM38.7188 35.1917H41.0711H38.7188ZM8.93066 35.9748H14.4184H8.93066ZM15.9861 35.9748H17.5539H15.9861ZM22.257 35.9748H24.6093H22.257ZM26.1756 35.9748H29.311H26.1756ZM30.8802 35.9748H32.4479H30.8802ZM34.0156 35.9748H34.8002H34.0156ZM35.5833 35.9748H36.3679H35.5833ZM37.1511 35.9748H37.9357H37.1511ZM38.7188 35.9748H40.2865H38.7188ZM8.93066 36.7593H9.71526H8.93066ZM13.6338 36.7593H14.4184H13.6338ZM15.9861 36.7593H16.7707H15.9861ZM17.5539 36.7593H18.3384H17.5539ZM19.9047 36.7593H20.6893H19.9047ZM21.4724 36.7593H22.257H21.4724ZM25.3924 36.7593H26.9602H25.3924ZM28.5279 36.7593H29.3125H28.5279ZM30.0956 36.7593H32.4479H30.0956ZM34.0156 36.7593H34.8002H34.0156ZM37.1511 36.7593H37.9357H37.1511ZM38.7188 36.7593H41.0711H38.7188ZM8.93066 37.5424H9.71526H8.93066ZM10.4984 37.5424H12.8507H10.4984ZM13.6338 37.5424H14.4184H13.6338ZM15.9861 37.5424H16.7707H15.9861ZM17.5539 37.5424H19.9062H17.5539ZM20.6893 37.5424H22.257H20.6893ZM23.8247 37.5424H24.6093H23.8247ZM25.3924 37.5424H26.177H25.3924ZM28.5279 37.5424H29.3125H28.5279ZM30.8802 37.5424H31.6648H30.8802ZM34.0156 37.5424H37.9357H34.0156ZM39.5019 37.5424H40.2865H39.5019ZM8.93066 38.3271H9.71526H8.93066ZM10.4984 38.3271H12.8507H10.4984ZM13.6338 38.3271H14.4184H13.6338ZM15.2015 38.3271H15.9861H15.2015ZM16.7693 38.3271H17.5539H16.7693ZM19.1216 38.3271H19.9062H19.1216ZM21.4724 38.3271H22.257H21.4724ZM23.8247 38.3271H25.3924H23.8247ZM26.1756 38.3271H30.0956H26.1756ZM31.6633 38.3271H32.4479H31.6633ZM33.231 38.3271H36.3665H33.231ZM37.1511 38.3271H37.9357H37.1511ZM38.7188 38.3271H39.5034H38.7188ZM8.93066 39.1101H9.71526H8.93066ZM10.4984 39.1101H12.8507H10.4984ZM13.6338 39.1101H14.4184H13.6338ZM16.7693 39.1101H18.337H16.7693ZM19.1216 39.1101H20.6893H19.1216ZM21.4724 39.1101H23.8247H21.4724ZM25.3924 39.1101H28.5279H25.3924ZM30.8802 39.1101H32.4479H30.8802ZM33.231 39.1101H34.7987H33.231ZM37.1511 39.1101H37.9357H37.1511ZM40.2865 39.1101H41.0711H40.2865ZM8.93066 39.8947H9.71526H8.93066ZM13.6338 39.8947H14.4184H13.6338ZM15.9861 39.8947H16.7707H15.9861ZM18.337 39.8947H19.9047H18.337ZM20.6893 39.8947H25.3924H20.6893ZM26.9602 39.8947H27.7448H26.9602ZM28.5279 39.8947H30.8802H28.5279ZM31.6633 39.8947H33.231H31.6633ZM34.0156 39.8947H34.8002H34.0156ZM36.3665 39.8947H37.1511H36.3665ZM39.5019 39.8947H40.2865H39.5019ZM8.93066 40.6779H14.4184H8.93066ZM16.7693 40.6779H17.5539H16.7693ZM19.9047 40.6779H20.6893H19.9047ZM21.4724 40.6779H24.6078H21.4724ZM26.1756 40.6779H26.9602H26.1756ZM27.7433 40.6779H29.311H27.7433ZM30.0956 40.6779H32.4479H30.0956ZM34.0156 40.6779H34.8002H34.0156ZM36.3665 40.6779H37.9342H36.3665ZM38.7188 40.6779H40.2865H38.7188Z" fill="white"/>
<path id="Vector_3" d="M40.2863 41.0694H38.7186V40.2849H39.5032V39.5002H40.2878V41.068L40.2863 41.0694ZM37.934 41.0694H36.3663V39.5018H37.1509V40.2863H37.9355V41.0708L37.934 41.0694ZM34.7986 41.0694H34.014V39.5018H33.2294V37.934H34.014V34.7986H33.2294V34.0139H31.6617V35.5817H32.4463V37.1495H31.6617V37.934H32.4463V39.5018H33.2309V40.2863H32.4463V41.0708H30.094V40.2863H29.3094V41.0708H27.7416V40.2863H26.957V39.5018H25.3893V38.7171H23.8216V37.1495H24.6062V37.934H25.3908V38.7185H26.1754V37.934H25.3908V36.3662H26.1754V34.7986H25.3908V35.5832H24.6062V34.0154H26.9585V34.8001H27.7431V32.4478H26.9585V30.0955H26.1739V31.6631H24.6062V32.4478H26.9585V33.2323H24.6062V32.4478H23.8216V30.88H23.037V31.6647H22.2524V30.88H21.4678V29.3124H20.6832V27.7446H19.8986V26.9599H19.114V27.7446H18.3294V26.1768H16.7617V25.3923H15.9771V26.1768H16.7617V26.9615H15.9771V26.1768H15.1925V25.3923H13.6248V26.1768H15.1925V26.9615H15.9771V28.5291H17.5448V29.3138H20.6803V30.0983H19.1125V30.883H21.4649V31.6676H22.2495V32.4522H23.8172V34.0199H23.0326V33.2353H22.248V34.0199H23.0326V35.5876H24.6003V36.3722H22.248V35.5876H17.5448V36.3722H18.3294V37.1568H19.8971V38.7245H20.6817V39.5091H21.4663V37.9414H20.6817V37.1568H19.8971V36.3722H20.6817V37.1568H21.4663V36.3722H22.2509V38.7245H23.8187V39.5091H25.3864V40.2937H24.6018V41.0783H21.4663V40.2937H20.6817V39.5091H19.8971V40.2937H20.6817V41.0783H19.8971V40.2937H18.3294V39.5091H16.7617V37.9414H15.9771V35.5891H15.1925V34.0213H14.4079V33.2368H12.8402V32.4522H9.70476V31.6676H8.92017V30.883H10.4879V31.6676H12.0556V30.883H10.4879V30.0983H11.2725V29.3138H9.70476V28.5291H8.92017V26.9615H9.70476V27.746H10.4894V28.5307H11.274V27.746H10.4894V26.9615H9.70476V25.3937H8.92017V19.9061H9.70476V19.1214H11.2725V18.3369H8.92017V16.7691H10.4879V15.9846H11.2725V16.7691H12.0571V15.9846H11.2725V15.1999H12.0571V15.9846H13.6248V16.7691H14.4094V15.9846H13.6248V15.1999H14.4094V15.9846H15.9771V17.5522H17.5448V19.1199H16.7602V18.3354H15.9756V17.5507H15.191V18.3354H15.9756V19.1199H15.191V20.6877H17.5434V21.4722H18.3279V20.6877H17.5434V19.903H18.3279V19.1185H19.8957V19.903H20.6803V20.6877H21.4649V21.4722H20.6803V22.2569H19.8957V21.4722H19.1111V22.2569H19.8957V24.6092H21.4634V25.3937H20.6788V26.1784H23.0311V26.963H23.8157V26.1784H23.0311V25.3937H22.2465V24.6092H23.0311V25.3937H23.8157V26.1784H24.6003V25.3937H25.3849V26.1784H26.9526V25.3937H26.168V23.826H26.9526V25.3937H27.7372V26.1784H28.5218V25.3937H27.7372V23.826H30.0895V24.6107H30.8741V25.3952H31.6587V26.1799H32.4433V26.9644H33.2279V27.7491H32.4433V26.9644H30.8756V26.1799H30.091V24.6121H29.3064V26.1799H30.091V26.9644H28.5233V27.7491H27.7387V28.5336H28.5233V30.1014H30.8756V29.3167H31.6602V30.1014H33.2279V30.8859H31.6602V31.6706H30.8756V30.8859H30.091V31.6706H30.8756V32.4551H30.091V31.6706H27.7387V32.4551H28.5233V33.2397H29.3079V32.4551H30.0925V33.2397H31.6602V32.4551H32.4448V33.2397H33.2294V32.4551H32.4448V31.6706H34.0125V32.4551H34.7971V33.2397H35.5817V34.0243H37.934V39.512H37.1494V37.9444H36.3648V38.7289H34.7971V41.0812L34.7986 41.0694ZM30.88 40.2863H31.6646V39.5018H30.88V38.7171H31.6646V37.9326H30.88V37.1479H30.0954V36.3634H30.88V35.5787H30.0954V34.7941H30.88V34.0096H29.3123V37.9295H30.0969V38.7142H28.5292V39.4987H30.8815V40.2834L30.88 40.2863ZM27.7431 40.2863H28.5277V39.5018H27.7431V40.2863ZM18.3368 39.5018H19.1214V37.934H17.5537V36.3662H16.7691V37.934H17.5537V38.7185H18.3383V39.5032L18.3368 39.5018ZM26.1754 37.934H28.5277V36.3662H26.96V37.1509H26.1754V37.9355V37.934ZM34.7986 37.1509H37.1509V34.7986H34.7986V37.1509ZM19.9045 34.7986H20.6891V33.2309H19.9045V34.7986ZM18.3368 34.7986H19.1214V34.0139H18.3368V34.7986ZM16.7691 34.7986H17.5537V34.0139H16.7691V30.8786H15.2014V30.094H13.6337V29.3093H12.8491V28.5248H13.6337V29.3093H14.4183V28.5248H13.6337V27.7401H14.4183V28.5248H15.2029V29.3093H15.9875V28.5248H15.2029V27.7401H14.4183V26.9556H12.8505V25.3878H12.0659V24.6033H11.2813V23.8186H10.4967V24.6033H11.2813V26.1709H12.0659V29.3065H12.8505V30.091H13.6351V30.8755H15.2029V31.6602H15.9875V32.4447H15.2029V34.0125H16.7706V34.797L16.7691 34.7986ZM20.6891 33.2309H21.4737V31.6631H20.6891V33.2309ZM18.3368 33.2309H19.1214V30.8786H18.3368V30.094H16.7691V30.8786H17.5537V31.6631H18.3383V33.2309H18.3368ZM12.8491 32.4478H14.4168V31.6631H13.6322V30.8786H12.8476V32.4463L12.8491 32.4478ZM27.7431 30.88H28.5277V30.0955H27.7431V30.88ZM24.6077 30.88H25.3923V29.3124H23.8246V28.5277H23.04V27.7432H22.2554V26.9585H20.6877V27.7432H22.2554V29.3108H23.04V30.0955H24.6077V30.88ZM25.3923 29.3124H26.1769V28.5277H25.3923V29.3124ZM26.1754 28.5277H26.96V27.7432H26.1754V28.5277ZM23.8246 28.5277H24.6092V27.7432H23.8246V28.5277ZM24.6077 27.7446H25.3923V26.9599H24.6077V27.7446ZM10.4982 26.9599H11.2828V26.1754H10.4982V26.9599ZM18.3368 26.1754H19.9045V25.3909H18.3368V26.1754ZM17.5537 24.6076H18.3383V22.2553H17.5537V21.4708H15.2014V20.6861H13.6337V19.9016H11.2813V20.6861H12.0659V21.4708H11.2813V20.6861H10.4967V21.4708H11.2813V22.2553H12.8491V23.04H14.4168V23.8245H13.6322V24.6092H15.9845V23.0415H16.7691V23.826H17.5537V24.6107V24.6076ZM12.0659 24.6076H12.8505V23.8231H12.0659V24.6076ZM9.71363 23.04H10.4982V21.4722H9.71363V23.04ZM19.1214 20.6892H19.906V19.9045H19.1214V20.6892ZM13.6337 19.9045H14.4183V19.1199H13.6337V19.9045ZM13.6337 18.3369H14.4183V17.5522H13.6337V18.3369ZM12.0659 18.3369H12.8505V17.5522H12.0659V18.3369ZM26.96 41.0694H26.1754V40.2849H26.96V41.0694ZM17.5537 41.0694H16.7691V40.2849H15.9845V39.5002H16.7691V40.2849H17.5537V41.0694ZM14.4183 41.0694H8.93051V35.5817H14.4183V41.0694ZM9.71363 40.2863H13.6337V36.3662H9.71363V40.2863ZM41.0695 39.5018H40.2849V38.7171H41.0695V39.5018ZM12.8491 39.5018H10.4967V37.1495H12.8491V39.5018ZM39.5017 38.7185H38.7171V37.934H39.5017V38.7185ZM15.986 38.7185H15.2014V37.934H15.986V38.7185ZM40.2863 37.934H39.5017V37.1495H38.7171V34.0139H37.9325V33.2294H37.148V32.4447H36.3634V30.0924H35.5788V28.5248H34.011V27.7401H36.3634V29.3079H37.148V30.0924H37.9325V31.6602H37.148V32.4447H38.7157V34.0125H40.2834V34.797H41.068V35.5817H40.2834V36.3662H41.068V37.1509H40.2834V37.9355L40.2863 37.934ZM36.3663 36.3662H35.5817V35.5817H36.3663V36.3662ZM33.2309 35.5832H32.4463V34.7986H33.2309V35.5832ZM14.4183 34.7986H13.6337V34.0139H14.4183V34.7986ZM12.8491 34.7986H10.4967V34.0139H12.8491V34.7986ZM9.71363 34.7986H8.92903V34.0139H9.71363V34.7986ZM41.0695 33.2309H39.5017V32.4463H40.2863V31.6616H39.5017V30.8771H40.2863V31.6616H41.0709V33.2294L41.0695 33.2309ZM9.71363 33.2309H8.92903V32.4463H9.71363V33.2309ZM34.7986 31.6631H34.014V29.3108H31.6617V27.7432H32.4463V28.5277H34.014V29.3124H34.7986V31.6647V31.6631ZM41.0695 30.0955H39.5017V29.3108H41.0695V30.0955ZM9.71363 30.0955H8.92903V29.3108H9.71363V30.0955ZM38.7186 29.3124H37.934V28.5277H37.1494V27.7432H36.3648V26.1754H35.5802V24.6076H36.3648V23.8231H34.7971V23.0386H35.5817V22.2539H36.3663V21.4694H35.5817V19.9016H34.7971V16.7662H34.0125V15.9815H33.2279V15.197H31.6602V15.9815H32.4448V17.5493H33.2294V18.3338H34.014V19.1185H33.2294V18.3338H32.4448V17.5493H31.6602V18.3338H32.4448V19.1185H30.8771V18.3338H30.0925V17.5493H30.8771V16.7646H31.6617V15.9801H30.8771V15.1955H29.3094V13.6278H28.5248V14.4123H27.7402V12.8447H26.9556V14.4123H27.7402V15.197H28.5248V16.7646H27.7402V15.197H26.9556V14.4123H26.171V11.2769H25.3864V10.4924H24.6018V8.92462H28.5218V9.70915H25.3864V10.4938H28.5218V11.2784H29.3064V12.8461H30.091V11.2784H29.3064V10.4938H30.091V8.92606H33.2264V12.0616H34.011V13.6292H34.7956V14.4139H34.011V13.6292H33.2264V12.8447H31.6587V12.06H30.8741V12.8447H31.6587V14.4123H32.4433V13.6278H33.2279V15.1955H34.7956V15.9801H35.5802V16.7646H37.148V17.5493H37.9325V18.3338H38.7171V23.037H39.5017V22.2524H41.0695V23.8201H40.2849V24.6047H41.0695V26.1725H40.2849V27.7401H41.0695V28.5248H40.2849V27.7401H38.7171V26.9556H37.1494V27.7401H37.934V28.5248H38.7186V29.3093V29.3124ZM38.7186 26.9599H39.5032V25.3923H38.7186V26.9599ZM37.1509 26.1754H37.9355V25.3909H37.1509V26.1754ZM39.5017 25.3923H40.2863V24.6076H39.5017V23.8231H37.1494V23.0386H36.3648V23.8231H37.1494V24.6076H39.5017V25.3923ZM37.1509 23.04H37.9355V20.6877H37.1509V19.903H37.9355V18.3354H37.1509V19.1199H36.3663V18.3354H35.5817V19.1199H36.3663V20.6877H37.1509V23.04ZM30.0954 14.4182H30.88V13.6337H30.0954V14.4182ZM27.7431 12.8506H28.5277V11.2828H27.7431V12.8506ZM30.88 11.2814H32.4478V9.71363H31.6632V10.4983H30.8786V11.2828L30.88 11.2814ZM30.0954 29.3124H29.3108V28.5277H30.0954V29.3124ZM18.3368 28.5277H17.5522V27.7432H18.3368V28.5277ZM34.0155 26.9599H33.2309V26.1754H32.4463V25.3909H31.6617V23.8231H32.4463V22.2553H31.6617V21.4708H30.8771V20.6861H27.7416V19.9016H30.094V19.1171H28.5262V17.5493H29.3108V18.3338H30.0954V19.1185H30.88V19.903H32.4478V20.6877H34.0155V21.4722H34.8001V22.2569H34.0155V23.0415H33.2309V26.1768H34.0155V26.9615V26.9599ZM32.4478 22.2569H33.2324V21.4722H32.4478V22.2569ZM34.7986 25.3923H34.014V23.8245H34.7986V25.3923ZM25.3923 24.6076H23.04V23.8231H21.4723V22.2553H22.2568V23.04H23.0414V23.8245H24.6092V23.04H23.0414V22.2553H22.2568V21.4708H23.0414V20.6861H22.2568V19.1185H19.9045V17.5507H19.1199V15.1984H18.3353V13.6307H17.5507V12.8461H16.7661V10.4938H15.1984V8.92606H15.983V9.71074H17.5507V10.4953H19.1185V11.28H18.3339V12.8476H19.9016V13.6323H20.6862V14.4168H21.4708V15.2015H20.6862V14.4168H19.9016V13.6323H19.117V15.1999H19.9016V16.7676H20.6862V17.5522H23.0385V18.3369H23.8231V19.1214H23.0385V19.9061H23.8231V22.2584H24.6077V23.0429H25.3923V24.6107V24.6076ZM31.6632 23.04H28.5277V21.4722H29.3123V22.2569H30.0969V21.4722H30.8815V22.2569H31.6661V23.0415L31.6632 23.04ZM26.96 23.04H25.3923V22.2553H24.6077V19.1199H25.3923V19.9045H26.1769V18.3369H26.9615V20.6892H27.7461V22.2569H26.9615V21.4722H26.1769V20.6877H25.3923V22.2553H26.96V23.04ZM15.2014 23.04H14.4168V22.2553H12.8491V20.6877H13.6337V21.4722H14.4183V22.2569H15.2029V23.0415L15.2014 23.04ZM41.0695 21.4722H40.2849V20.6877H39.5003V19.1199H40.2849V19.9045H41.0695V21.4722ZM34.7986 20.6892H34.014V19.9045H34.7986V20.6892ZM41.0695 19.1214H40.2849V18.3369H41.0695V19.1214ZM39.5017 18.3369H38.7171V17.5522H37.9325V15.9846H36.3648V15.1999H38.7171V15.9846H39.5017V15.1999H41.0695V15.9846H40.2849V17.5522H39.5003V18.3369H39.5017ZM27.7431 18.3369H26.9585V17.5522H27.7431V18.3369ZM25.3923 18.3369H23.8246V17.5522H23.04V16.7676H25.3923V18.3354V18.3369ZM19.1214 18.3369H18.3368V17.5522H19.1214V18.3369ZM34.0155 17.5538H33.2309V16.7691H34.0155V17.5538ZM30.0954 16.7691H29.3108V15.9846H30.0954V16.7691ZM18.3368 16.7691H17.5522V15.9846H16.7676V15.1999H15.983V14.4153H15.1984V11.28H15.983V14.4153H16.7676V13.6307H17.5522V15.1984H18.3368V16.7662V16.7691ZM26.96 15.986H26.1754V15.2015H25.3908V14.4168H24.6062V13.6323H23.8216V15.9846H22.2539V15.1999H23.0385V13.6323H22.2539V14.4168H21.4693V12.849H20.6847V12.0645H21.4693V11.28H20.6847V10.4953H21.4693V11.28H22.2539V10.4953H23.0385V12.063H23.8231V12.8476H24.6077V13.6323H25.3923V14.4168H26.1769V15.2015H26.9615V15.986H26.96ZM22.2568 12.8506H23.0414V12.0659H22.2568V12.8506ZM25.3923 15.986H24.6077V15.2015H25.3923V15.986ZM41.0695 14.4182H35.5817V8.93054H41.0695V14.4182ZM36.3663 13.6337H40.2863V9.71363H36.3663V13.6337ZM14.4183 14.4182H8.93051V8.93054H14.4183V14.4182ZM9.71363 13.6337H13.6337V9.71363H9.71363V13.6337ZM39.5017 12.8506H37.1494V10.4983H39.5017V12.8506ZM25.3923 12.8506H24.6077V12.0659H23.8231V11.2814H24.6077V12.0659H25.3923V12.8506ZM12.8491 12.8506H10.4967V10.4983H12.8491V12.8506ZM34.7986 12.0659H34.014V10.4983H34.7986V12.0659ZM23.8246 10.4983H23.04V8.93054H23.8246V10.4983ZM21.4723 9.71363H19.1199V8.92909H21.4723V9.71363Z" fill="white"/>
</g>
</g>
</svg>
