<svg width="51" height="50" viewBox="0 0 51 50" fill="none" xmlns="http://www.w3.org/2000/svg">
<g id="Property 1=El Camaron">
<path id="Vector" d="M50.5 0H0.5V50H50.5V0Z" fill="#F79820"/>
<g id="Group">
<path id="Vector_2" d="M9.36798 5.16464C9.49221 5.27113 9.62384 5.36873 9.7392 5.48409C10.5068 6.24725 11.2581 7.02519 12.0375 7.77503C14.2353 9.89146 16.6327 11.7357 19.3984 13.0609C21.1111 13.8818 22.8341 14.676 24.6548 15.235C25.6457 15.5397 26.6662 15.7689 27.6246 16.1535C30.1551 17.168 32.4934 18.5627 34.8198 19.9737C35.5904 20.441 35.6451 20.8123 35.0372 21.4867C34.4427 22.1448 33.8082 22.7675 33.187 23.402C31.884 24.7316 30.4124 25.8497 28.8181 26.8066C28.6598 26.9012 28.4942 26.9974 28.3197 27.0506C27.8819 27.1837 27.5358 26.9634 27.2489 26.6809C25.3824 24.8469 23.9286 22.766 23.2704 20.1792C22.5324 17.2775 20.799 15.0753 18.3262 13.4307C15.7646 11.7269 13.3538 9.83526 11.1679 7.66559C10.5127 7.01484 9.90633 6.32119 9.44193 5.51662C9.38721 5.42049 9.35023 5.31399 9.30438 5.21194C9.32509 5.19715 9.34431 5.18088 9.36502 5.16609L9.36798 5.16464ZM26.1116 19.3614C26.1056 20.1024 26.7431 20.7369 27.4855 20.7295C28.228 20.7221 28.8299 20.1097 28.827 19.3643C28.824 18.6012 28.2235 18.014 27.45 18.0214C26.7209 18.0274 26.1175 18.6323 26.1116 19.3629V19.3614Z" fill="white"/>
<path id="Vector_3" d="M41.8997 31.9697C41.9071 30.8146 41.7518 29.6802 41.4368 28.5695C41.4338 28.5621 41.4338 28.5532 41.4309 28.5443C41.2475 27.8995 41.0375 27.8034 40.4459 28.1287C39.7877 28.4911 39.1517 28.8963 38.4847 29.2409C36.7528 30.1313 34.9026 30.6726 33.0007 31.0497C32.6117 31.1266 32.2183 31.1814 31.8308 31.2657C31.7642 31.2805 31.6651 31.3914 31.6681 31.4535C31.6947 32.0363 31.7154 32.6204 31.7938 33.1957C31.8189 33.3762 31.9757 33.6025 32.1369 33.6868C32.7463 34.0092 33.366 34.3213 34.0108 34.5638C35.2901 35.046 36.6316 35.2782 37.9878 35.3817C38.8264 35.4453 39.6724 35.4261 40.5154 35.4349C40.6396 35.4349 40.7653 35.3995 40.8896 35.3728C41.2771 35.2856 41.5166 35.0741 41.6083 34.66C41.8036 33.7726 41.9041 32.8793 41.8982 31.9712L41.8997 31.9697Z" fill="white"/>
<path id="Vector_4" d="M29.0784 28.1702C29.4733 28.5015 29.8534 28.8195 30.232 29.1404C30.439 29.3149 30.6624 29.4747 30.8428 29.6743C31.1223 29.9864 31.4699 30.0426 31.8544 30.0234C32.7729 29.9805 33.6573 29.7749 34.5269 29.4924C35.8758 29.0546 37.2128 28.5813 38.4729 27.9202C38.9728 27.6585 39.4579 27.3612 39.9252 27.0432C40.5213 26.638 40.6514 26.2564 40.3275 25.6101C40.0613 25.0791 39.7344 24.5585 39.341 24.1178C38.7021 23.4005 38.007 22.729 37.2971 22.0812C36.809 21.636 36.5339 21.6627 36.0414 22.1197C35.3537 22.7571 34.7177 23.4537 34.0049 24.063C32.4371 25.403 30.8354 26.7045 29.2485 28.0223C29.1982 28.0637 29.1508 28.1081 29.0798 28.1717L29.0784 28.1702Z" fill="white"/>
<path id="Vector_5" d="M38.9373 36.5235C36.8534 36.6388 35.0904 36.1345 33.3556 35.4956C32.9045 35.3299 32.4623 35.1421 32.0112 34.975C31.6207 34.83 31.3811 34.904 31.1652 35.2516C30.9049 35.6731 30.6609 36.1064 30.4124 36.5353C30.2645 36.7927 30.3503 37.0367 30.4997 37.2482C30.8738 37.7806 31.2391 38.3204 31.6533 38.8218C32.6205 39.9932 33.712 41.0403 34.9839 41.8818C35.8166 42.4335 36.278 42.6967 37.4213 41.6999C38.359 40.882 39.06 39.8571 39.7699 38.8485C40.1145 38.3604 40.4162 37.8368 40.7046 37.3133C40.9516 36.8637 40.8126 36.6241 40.3024 36.5856C39.7803 36.5472 39.2567 36.5368 38.9373 36.522V36.5235Z" fill="white"/>
<path id="Vector_6" d="M13.3582 33.8968C12.9545 34.4884 12.9219 35.0903 13.2088 35.7115C13.5239 36.3904 14.0563 36.8858 14.6331 37.3354C15.7187 38.1814 16.9374 38.8056 18.1723 39.3987C18.4696 39.5406 18.7565 39.7048 19.0597 39.8305C19.3747 39.9621 19.5552 39.9059 19.6794 39.6442C20.1719 38.6118 20.901 37.7422 21.5725 36.8311C21.6834 36.6817 21.8077 36.5412 21.9053 36.3845C22.0635 36.1316 22.0339 35.9038 21.818 35.6982C20.589 34.5254 19.3525 33.36 18.1279 32.1812C17.705 31.7745 17.2302 31.5157 16.6342 31.4713C16.1106 31.4328 15.5871 31.3619 15.0753 31.5171C14.8638 31.5807 14.6627 31.705 14.4822 31.8366C14.3255 31.949 14.3107 32.088 14.4749 32.2537C15.556 33.3378 16.6238 34.4337 17.702 35.5208C17.9874 35.8077 18.2951 36.0724 18.5923 36.3475L18.5184 36.4407C16.8028 35.5947 15.0857 34.7502 13.3582 33.8983V33.8968Z" fill="white"/>
<path id="Vector_7" d="M27.2873 40.601C27.3731 41.7029 27.4559 42.8225 27.5521 43.9406C27.5683 44.1225 27.6334 44.3029 27.6896 44.4789C27.7695 44.7259 27.941 44.8295 28.2072 44.8354C29.2041 44.8576 30.1787 44.689 31.1401 44.4671C32.2478 44.2127 33.3467 43.911 34.4441 43.6152C34.5669 43.5827 34.7532 43.4614 34.7547 43.3771C34.7577 43.2573 34.6364 43.1153 34.5343 43.0177C33.6248 42.1466 32.69 41.3021 31.7997 40.4117C31.1312 39.7432 30.513 39.0215 29.8815 38.316C29.6788 38.0897 29.5102 37.8338 29.315 37.6016C29.0813 37.3251 28.9364 37.3295 28.6406 37.5188C28.469 37.6283 28.2649 37.7052 28.0638 37.7481C27.663 37.8338 27.5447 37.8945 27.4944 38.3071C27.4027 39.0599 27.3539 39.8186 27.2844 40.601H27.2873Z" fill="white"/>
<path id="Vector_8" d="M26.3482 43.877C26.3275 43.7675 26.2935 43.5679 26.2521 43.3711C26.0347 42.3092 26.0613 41.2355 26.1308 40.1662C26.1678 39.5983 26.2994 39.0363 26.3955 38.4728C26.4414 38.2066 26.3704 38.0364 26.1086 37.9625C25.8513 37.8885 25.5821 37.8398 25.3159 37.8132C24.7317 37.7525 24.2347 37.5099 23.7822 37.1505C23.3133 36.7778 23.2039 36.769 22.843 37.2497C22.3476 37.9122 21.8846 38.5985 21.4217 39.2847C21.191 39.6264 20.9765 39.9828 20.7798 40.3452C20.5846 40.7075 20.629 40.8465 20.8996 41.1616C21.7944 42.1998 22.9658 42.8639 24.1179 43.5531C24.5291 43.8001 24.9654 44.0071 25.3943 44.2245C25.5288 44.2926 25.6753 44.3399 25.8217 44.3769C26.1973 44.4715 26.3497 44.3487 26.3467 43.8784L26.3482 43.877Z" fill="white"/>
<path id="Vector_9" d="M30.5766 32.2507C30.5766 31.6295 30.3355 30.9877 29.877 30.4774C29.3195 29.8592 28.7086 29.278 28.0653 28.75C27.4826 28.2722 27.0418 28.3344 26.5819 28.9274C25.9784 29.7083 25.4268 30.5292 24.8574 31.3367C24.7405 31.5023 24.7183 31.6739 24.8722 31.844C25.1088 32.1058 25.3573 32.0969 25.5525 31.804C25.9903 31.1518 26.4103 30.4863 26.8688 29.8488C27.2533 29.3149 27.3687 29.2986 27.978 29.5412C28.1392 29.6063 28.3049 29.6935 28.4291 29.8119C28.5031 29.8814 28.5578 30.0588 28.5193 30.1402C28.469 30.2467 28.3285 30.3251 28.2117 30.3857C28.0298 30.4803 27.7828 30.4996 27.6556 30.6371C27.1527 31.1799 26.7697 31.8055 26.5257 32.511C26.4709 32.6678 26.4488 32.8438 26.6159 32.9103C26.7623 32.968 26.9694 32.9887 27.1054 32.9266C27.24 32.8645 27.3347 32.69 27.419 32.548C27.731 32.017 28.1333 31.5778 28.6953 31.3175C28.8743 31.2346 29.102 31.2125 29.3017 31.2302C29.5265 31.2509 29.6744 31.4269 29.7247 31.6473C29.7809 31.8898 29.7084 32.1013 29.4969 32.2477C29.4141 32.3054 29.3209 32.3468 29.2322 32.3942C28.6539 32.6988 28.3892 33.1987 28.3492 33.8317C28.3374 34.0092 28.3773 34.1778 28.5962 34.2118C28.7959 34.2429 28.9408 34.1423 28.9793 33.9604C29.0503 33.6276 29.2854 33.4975 29.5724 33.4102C29.6848 33.3762 29.7972 33.3378 29.9081 33.2993C30.4982 33.0982 30.5855 32.971 30.5736 32.2522L30.5766 32.2507Z" fill="white"/>
<path id="Vector_10" d="M8.02942 7.29137C8.08858 7.43631 8.1152 7.56202 8.18471 7.65667C8.6432 8.29263 9.05583 8.97297 9.58679 9.54238C11.4725 11.5612 13.5978 13.2931 16.0145 14.6463C16.5587 14.951 17.1266 15.2143 17.6887 15.4849C18.894 16.0676 19.9101 16.8929 20.8034 17.8809C20.9084 17.9977 21.0179 18.1101 21.1717 18.2758C21.1554 18.1722 21.1584 18.1382 21.145 18.1131C20.62 17.134 20.0802 16.149 19.1898 15.4598C18.6766 15.0634 18.0599 14.7913 17.4698 14.5044C15.1315 13.3641 12.882 12.0833 10.9046 10.3736C9.90329 9.50838 8.99815 8.55146 8.22908 7.4718C8.19506 7.42299 8.15809 7.37715 8.12112 7.3313C8.11224 7.31947 8.09154 7.31799 8.02942 7.28989V7.29137Z" fill="white"/>
<path id="Vector_11" d="M22.1627 13.2679C22.3224 13.2679 22.4259 13.2946 22.5058 13.2635C22.8889 13.1112 23.2823 12.9751 23.6402 12.7755C24.1135 12.5107 24.5912 12.4516 25.0689 12.6778C25.5407 12.9012 26.0066 13.1497 26.434 13.4455C27.984 14.5162 29.4984 15.6417 31.1593 16.5424C32.5185 17.2804 33.8969 17.9756 35.4114 18.3468C35.7545 18.4311 36.108 18.474 36.46 18.5154C36.6049 18.5331 36.7558 18.4962 36.92 18.4828C34.3081 17.7936 31.9802 16.538 29.6981 15.2054C28.7856 14.6715 27.9899 13.9394 27.1424 13.2931C26.5434 12.8361 25.943 12.3806 25.2183 12.138C24.1992 11.7964 23.0841 12.1143 22.3964 12.9396C22.3268 13.0224 22.2706 13.1156 22.1612 13.2709L22.1627 13.2679Z" fill="white"/>
</g>
</g>
</svg>
