<svg width="50" height="50" viewBox="0 0 50 50" fill="none" xmlns="http://www.w3.org/2000/svg">
<g id="Property 1=Aurora">
<g id="Group 9">
<path id="Vector" d="M50 0H0V50H50V0Z" fill="#16233C"/>
<path id="Vector_2" d="M22.1092 32.9324C31.2208 32.9324 36.9463 30.9569 38.6068 28.7701H38.6394C38.2431 34.7277 37.106 37.6695 37.106 37.6695C36.0901 39.6983 29.7643 41.2586 22.1107 41.2586C14.4571 41.2586 7.85183 39.6259 7.0563 37.5336C7.0563 37.5336 7.05482 37.5292 7.05186 37.5218C6.97497 37.3134 5.94729 34.4647 5.5791 28.773L5.61607 28.7701C7.27514 30.4146 13.0021 32.9324 22.1122 32.9324H22.1092Z" fill="#30ACB2"/>
<path id="Vector_3" d="M38.6052 28.77C36.9446 30.9584 31.2192 32.9324 22.1076 32.9324C12.9959 32.9324 7.2705 30.4131 5.61143 28.77L5.57446 28.773C5.49313 27.5215 5.44434 26.134 5.44434 24.6077C5.44434 23.0814 5.47243 21.6688 5.52566 20.4409L5.61143 20.4454C7.78804 22.8257 12.9974 24.6077 22.1076 24.6077C31.2177 24.6077 36.9446 22.381 38.6052 20.4454L38.6909 20.4409C38.7427 21.6688 38.7722 23.0503 38.7722 24.6077C38.7722 26.1651 38.722 27.5185 38.6377 28.773H38.6052V28.77Z" fill="#30ACB2"/>
<path id="Vector_4" d="M22.1092 24.6077C12.9991 24.6077 7.78972 22.8257 5.61311 20.4454L5.52734 20.4409C5.75654 15.0965 6.43377 12.6792 7.14058 11.4941C7.02968 11.698 6.97053 11.9064 6.97053 12.1192C6.97053 14.4168 13.7473 16.2815 22.1078 16.2815C30.4682 16.2815 37.2465 14.4183 37.2465 12.1192C37.2465 11.9138 37.1917 11.7099 37.0868 11.5119C37.7906 12.7013 38.4634 15.1231 38.6911 20.4394L38.6054 20.4438C36.9448 22.3795 31.2194 24.6062 22.1078 24.6062L22.1092 24.6077Z" fill="#30ACB2"/>
<path id="Vector_5" d="M37.0884 11.5133C37.1934 11.7113 37.2481 11.9137 37.2481 12.1206C37.2481 14.4182 30.4698 16.283 22.1094 16.283C13.7489 16.283 6.97217 14.4197 6.97217 12.1206C6.97217 11.9078 7.02984 11.6995 7.14222 11.4956C7.14369 11.4926 7.14665 11.4897 7.14665 11.4868C7.18953 11.4173 7.23094 11.3523 7.27234 11.2917C8.66969 9.39004 14.7811 7.95825 22.1094 7.95825C29.4377 7.95825 36.0208 9.50237 37.0884 11.5148V11.5133Z" fill="white"/>
<path id="Vector_6" d="M7.27217 11.2903C7.23077 11.3508 7.18789 11.4158 7.14648 11.4853C7.18345 11.4203 7.22485 11.3553 7.27217 11.2903Z" fill="white"/>
<path id="Vector_7" d="M22.1091 25.2726C12.2375 25.2726 6.57415 22.5967 5.48584 21.2063L5.57752 19.4229C6.92459 20.896 11.3222 23.9428 22.1091 23.9428C26.1873 23.9428 29.9432 23.4832 32.9685 22.6129C35.4172 21.9096 37.826 20.3301 38.6393 19.38L38.7191 21.0496C36.8427 23.2365 31.2503 25.2711 22.1091 25.2711V25.2726Z" fill="white"/>
<path id="Vector_8" d="M22.1092 33.5973C14.4793 33.5973 7.15685 31.1726 5.63677 29.6669L5.52734 27.9131C7.13762 29.5089 13.2889 32.2675 22.1092 32.2675C30.9295 32.2675 37.2198 29.8044 38.6926 27.8643L38.6394 29.0774C36.5677 31.808 29.1492 33.5988 22.1092 33.5988V33.5973Z" fill="white"/>
<path id="Vector_9" d="M48.119 34.3937L42.6183 36.8584L40.1533 34.3937H48.119Z" fill="white"/>
<path id="Vector_10" d="M48.119 34.3937H40.1533L42.6183 31.9306L48.119 34.3937Z" fill="white"/>
<path id="Vector_11" d="M40.1533 26.434L42.6183 31.9306L40.1533 34.3937V26.434Z" fill="white"/>
<path id="Vector_12" d="M42.6183 36.8584L40.1533 42.3549V34.3937L42.6183 36.8584Z" fill="white"/>
<path id="Vector_13" d="M40.1534 34.3937V42.3549L37.687 36.8584L40.1534 34.3937Z" fill="white"/>
<path id="Vector_14" d="M40.1534 26.434V34.3937L37.687 31.9306L40.1534 26.434Z" fill="white"/>
<path id="Vector_15" d="M40.1536 34.3937L37.6872 36.8584L32.1865 34.3937H40.1536Z" fill="white"/>
<path id="Vector_16" d="M40.1536 34.3937H32.1865L37.6872 31.9306L40.1536 34.3937Z" fill="white"/>
<path id="Vector_17" d="M44.9712 9.15368H43.7735V7.95682H42.4427V9.15368H41.2095V10.4835H42.4427V11.7143H43.7735V10.4835H44.9712V9.15368Z" fill="white"/>
<path id="Vector_18" d="M38.734 5.03561H37.4031V6.23247H36.1699V7.5623H37.4031V8.79458H38.734V7.5623H39.9317V6.23247H38.734V5.03561Z" fill="white"/>
</g>
</g>
</svg>
