<svg width="51" height="50" viewBox="0 0 51 50" fill="none" xmlns="http://www.w3.org/2000/svg">
<g id="Property 1=El Gorrito">
<path id="Vector" d="M50.5 0H0.5V50H50.5V0Z" fill="#E5157C"/>
<g id="Group">
<path id="Vector_2" d="M12.079 19.7444C13.7236 14.3698 17.2687 10.9297 22.7646 9.74648C30.1773 8.14918 37.5012 12.9559 39.1621 20.3493C39.2331 20.6658 39.2804 20.9883 39.3411 21.3077C39.3973 21.602 39.2967 21.713 38.9787 21.7174C38.2747 21.7263 37.5559 21.6952 36.8727 21.8298C35.3892 22.1241 34.2948 23.5203 34.2904 25.0259C34.2815 28.0016 34.28 30.9773 34.2904 33.953C34.2977 35.7367 35.8107 37.2689 37.587 37.2615C38.6548 37.2571 39.7522 37.2985 40.7846 37.0796C42.9868 36.6122 44.5634 34.5949 44.6018 32.3439C44.6358 30.3887 44.6284 28.4305 44.5959 26.4753C44.5752 25.227 44.0413 24.1681 43.1761 23.2836C42.9705 23.0736 42.8936 22.8651 42.8788 22.5722C42.7013 19.1129 41.6217 15.9582 39.56 13.1703C36.8653 9.52318 33.2832 7.18342 28.8255 6.36555C23.4568 5.37906 18.5865 6.60957 14.3684 10.1251C11.1753 12.7858 9.23045 16.2082 8.45399 20.2842C8.30313 21.0799 8.28243 21.8993 8.1789 22.7053C8.15671 22.8769 8.08128 23.0736 7.96444 23.1949C6.99719 24.1962 6.46032 25.3705 6.4618 26.774C6.46475 28.7307 6.43961 30.6874 6.48102 32.6426C6.52539 34.7413 8.54864 36.9139 10.6518 37.1905C10.7997 37.2097 10.9549 37.2792 11.0925 37.2526C11.7477 37.1269 11.8601 37.5425 12.0243 38.0424C13.135 41.4367 15.4451 43.5117 18.9784 44.1107C19.9856 44.2822 21.0342 44.226 22.0651 44.2393C23.0841 44.2526 24.1046 44.2571 25.1207 44.2023C26.2595 44.1417 27.1705 43.0902 27.2386 41.9484C27.3347 40.3407 26.2328 39.2759 25.2005 39.1738C24.2495 39.0806 23.2749 39.0984 22.3239 39.1945C21.5386 39.2744 20.978 39.8113 20.6305 40.5197C20.5166 40.7504 20.3909 40.8273 20.138 40.8273C17.9905 40.8273 15.8016 39.1324 15.2839 37.0367C15.2529 36.908 15.3313 36.6862 15.4363 36.6019C16.3518 35.8594 16.7999 34.9144 16.7969 33.7341C16.7881 30.8531 16.7999 27.972 16.7895 25.0909C16.7836 23.2807 15.3978 21.8253 13.5905 21.7322C12.9841 21.7011 12.3748 21.7277 11.6619 21.7277C11.8098 21.003 11.8897 20.3582 12.0775 19.7444H12.079Z" fill="black"/>
<path id="Vector_3" d="M11.6649 21.7277C11.8128 21.003 11.8927 20.3582 12.0805 19.7444C13.7251 14.3698 17.2703 10.9297 22.7662 9.74648C30.1788 8.14918 37.5028 12.9559 39.1637 20.3493C39.2346 20.6658 39.282 20.9883 39.3426 21.3077C39.3988 21.602 39.2982 21.713 38.9803 21.7174C38.2763 21.7263 37.5575 21.6952 36.8742 21.8298C35.3908 22.1241 34.2963 23.5203 34.2919 25.0259C34.283 28.0016 34.2815 30.9773 34.2919 33.953C34.2993 35.7367 35.8123 37.2689 37.5885 37.2615C38.6564 37.2571 39.7538 37.2985 40.7861 37.0796C42.9883 36.6122 44.5649 34.5949 44.6034 32.3439C44.6374 30.3887 44.63 28.4305 44.5974 26.4753C44.5767 25.227 44.0428 24.1681 43.1776 23.2836C42.972 23.0736 42.8951 22.8651 42.8803 22.5722C42.7029 19.1129 41.6232 15.9582 39.5615 13.1703C36.8668 9.52318 33.2847 7.18342 28.827 6.36555C23.4583 5.37906 18.588 6.60957 14.37 10.1251C11.1768 12.7858 9.23198 16.2082 8.45551 20.2842C8.30466 21.0799 8.28395 21.8993 8.18042 22.7053C8.15824 22.8769 8.08281 23.0736 7.96597 23.1949C6.99871 24.1962 6.46184 25.3705 6.46332 26.774C6.46628 28.7307 6.44114 30.6874 6.48255 32.6426C6.52692 34.7413 8.55017 36.9139 10.6533 37.1905C10.8012 37.2097 10.9565 37.2792 11.094 37.2526C11.7492 37.1269 11.8616 37.5425 12.0258 38.0424C13.1365 41.4367 15.4467 43.5117 18.98 44.1107C19.9871 44.2822 21.0357 44.226 22.0666 44.2393C23.0856 44.2526 24.1061 44.2571 25.1222 44.2023C26.261 44.1417 27.1721 43.0902 27.2401 41.9484C27.3362 40.3407 26.2344 39.2759 25.202 39.1738C24.2511 39.0806 23.2764 39.0984 22.3254 39.1945C21.5401 39.2744 20.9795 39.8113 20.632 40.5197C20.5181 40.7504 20.3924 40.8273 20.1395 40.8273C17.992 40.8273 15.8031 39.1324 15.2855 37.0367C15.2544 36.908 15.3328 36.6862 15.4378 36.6019C16.3533 35.8594 16.8014 34.9144 16.7985 33.7341C16.7896 30.8531 16.8014 27.972 16.7911 25.0909C16.7851 23.2807 15.3993 21.8253 13.592 21.7322C12.9856 21.7011 12.3763 21.7277 11.6634 21.7277H11.6649Z" fill="white"/>
</g>
</g>
</svg>
