<svg width="51" height="50" viewBox="0 0 51 50" fill="none" xmlns="http://www.w3.org/2000/svg">
<g id="Property 1=La Estrell;a">
<path id="Vector" d="M50.5 0H0.5V50H50.5V0Z" fill="#32ACB2"/>
<path id="Vector_2" d="M16.4919 40.4445L14.8124 41.3871C14.7379 41.429 14.6486 41.3641 14.6654 41.2804L15.0424 39.3924L17.0631 29.2683C17.0699 29.2341 17.0585 29.1989 17.0329 29.1753L9.44827 22.1726L8.03296 20.8675C7.97016 20.8096 8.00419 20.7047 8.08902 20.6947L10.0009 20.469L20.2543 19.2639C20.2889 19.2598 20.3189 19.238 20.3335 19.2064L24.6482 9.82744L25.4528 8.0789C25.4885 8.0013 25.5987 8.0013 25.6345 8.0789L26.439 9.82744L30.7552 19.2064C30.7698 19.238 30.7998 19.2598 30.8344 19.2639L41.0863 20.469L42.9983 20.6947C43.0831 20.7047 43.1172 20.8096 43.0544 20.8675L41.6404 22.1726L34.0543 29.1753C34.0287 29.1989 34.0173 29.2341 34.0241 29.2683L36.0448 39.3924L36.4218 41.2803C36.4386 41.3641 36.3493 41.4289 36.2748 41.387L34.5968 40.4445L25.5925 35.3934C25.5621 35.3764 25.5251 35.3764 25.4947 35.3934L16.4919 40.4445Z" fill="white"/>
</g>
</svg>
