<svg width="51" height="50" viewBox="0 0 51 50" fill="none" xmlns="http://www.w3.org/2000/svg">
<g id="Property 1=El Sol">
<path id="Vector" d="M50.5 0H0.5V50H50.5V0Z" fill="#F79820"/>
<path id="Vector_2" d="M25.5687 37.3844C32.4333 37.3844 37.9982 31.8196 37.9982 24.955C37.9982 18.0904 32.4333 12.5255 25.5687 12.5255C18.7041 12.5255 13.1393 18.0904 13.1393 24.955C13.1393 31.8196 18.7041 37.3844 25.5687 37.3844Z" fill="white"/>
<g id="Group">
<path id="Vector_3" d="M25.8686 4.83908L22.383 10.6726L29.1784 10.7746L25.8686 4.83908Z" fill="white"/>
<path id="Vector_4" d="M40.0047 10.943L33.4161 12.6038L38.1488 17.4798L40.0047 10.943Z" fill="white"/>
<path id="Vector_5" d="M45.6846 25.2549L39.8511 21.7708L39.7506 28.5647L45.6846 25.2549Z" fill="white"/>
<path id="Vector_6" d="M39.5821 39.391L37.9213 32.8024L33.0453 37.5351L39.5821 39.391Z" fill="white"/>
<path id="Vector_7" d="M25.2702 45.0708L28.7544 39.2373L21.9604 39.1368L25.2702 45.0708Z" fill="white"/>
<path id="Vector_8" d="M11.1327 38.9683L17.7227 37.3075L12.99 32.4315L11.1327 38.9683Z" fill="white"/>
<path id="Vector_9" d="M5.45288 24.6565L11.2864 28.1406L11.3869 21.3467L5.45288 24.6565Z" fill="white"/>
<path id="Vector_10" d="M11.5568 10.519L13.2176 17.109L18.0936 12.3763L11.5568 10.519Z" fill="white"/>
</g>
</g>
</svg>
