<svg width="50" height="50" viewBox="0 0 50 50" fill="none" xmlns="http://www.w3.org/2000/svg">
<g id="Property 1=Cloud Watch">
<path id="Vector" d="M50 0H0V50H50V0Z" fill="#725FA8"/>
<path id="Vector_2" d="M35.0345 15.1801C34.6027 15.1801 34.1798 15.2229 33.7717 15.3057C33.6519 13.0522 31.7873 11.2616 29.5028 11.2616C28.8743 11.2616 28.2799 11.3976 27.7431 11.6416C26.5498 8.95633 23.8616 7.08435 20.7327 7.08435C16.4963 7.08435 13.0628 10.5178 13.0628 14.7542C13.0628 14.942 13.0717 15.1283 13.085 15.3132C10.1927 15.9091 8.01758 18.4702 8.01758 21.5384C8.01758 25.0488 10.864 27.8952 14.3744 27.8952H35.0315C38.5419 27.8952 41.3884 25.0488 41.3884 21.5384C41.3884 18.028 38.5419 15.1816 35.0315 15.1816L35.0345 15.1801Z" fill="white"/>
<path id="Vector_3" d="M33.0942 27.1925C32.4172 26.3254 31.1656 26.1713 30.2985 26.8482C29.4314 27.5251 29.2773 28.7768 29.9542 29.6439L38.2494 40.2689C38.9263 41.1359 40.178 41.2901 41.0451 40.6131C41.9122 39.9362 42.0663 38.6845 41.3893 37.8174L33.0942 27.1925Z" fill="#735FA8"/>
<path id="Vector (Stroke)" fill-rule="evenodd" clip-rule="evenodd" d="M30.9549 27.6886C30.552 28.0032 30.4803 28.5849 30.7949 28.9879L39.0901 39.6128C39.4047 40.0158 39.9864 40.0874 40.3894 39.7728C40.7923 39.4582 40.8639 38.8765 40.5493 38.4735L32.2542 27.8486C31.9396 27.4456 31.3578 27.374 30.9549 27.6886ZM29.1142 30.3C28.075 28.9689 28.3115 27.0472 29.6427 26.0079C30.9739 24.9686 32.8956 25.2053 33.9349 26.5364L42.23 37.1614C43.2693 38.4925 43.0327 40.4142 41.7015 41.4535C40.3703 42.4928 38.4487 42.2561 37.4094 40.925L29.1142 30.3Z" fill="white"/>
<path id="Vector_4" d="M29.51 34.8583C34.423 34.8583 38.4057 30.8756 38.4057 25.9626C38.4057 21.0496 34.423 17.0669 29.51 17.0669C24.597 17.0669 20.6143 21.0496 20.6143 25.9626C20.6143 30.8756 24.597 34.8583 29.51 34.8583Z" fill="#735FA8"/>
<path id="Vector (Stroke)_2" fill-rule="evenodd" clip-rule="evenodd" d="M29.5102 18.0539C25.1423 18.0539 21.6015 21.5948 21.6015 25.9626C21.6015 30.3305 25.1423 33.8713 29.5102 33.8713C33.878 33.8713 37.4189 30.3305 37.4189 25.9626C37.4189 21.5948 33.878 18.0539 29.5102 18.0539ZM19.6274 25.9626C19.6274 20.5045 24.0521 16.0799 29.5102 16.0799C34.9683 16.0799 39.3929 20.5045 39.3929 25.9626C39.3929 31.4207 34.9683 35.8453 29.5102 35.8453C24.0521 35.8453 19.6274 31.4207 19.6274 25.9626Z" fill="white"/>
<path id="Vector_5" d="M29.5101 31.3228C32.4705 31.3228 34.8703 28.923 34.8703 25.9626C34.8703 23.0023 32.4705 20.6024 29.5101 20.6024C26.5497 20.6024 24.1499 23.0023 24.1499 25.9626C24.1499 28.923 26.5497 31.3228 29.5101 31.3228Z" fill="#735FA8"/>
<path id="Vector (Stroke)_3" fill-rule="evenodd" clip-rule="evenodd" d="M29.5098 21.5894C27.0946 21.5894 25.1366 23.5474 25.1366 25.9626C25.1366 28.3779 27.0946 30.3358 29.5098 30.3358C31.9251 30.3358 33.883 28.3779 33.883 25.9626C33.883 23.5474 31.9251 21.5894 29.5098 21.5894ZM23.1626 25.9626C23.1626 22.4571 26.0043 19.6154 29.5098 19.6154C33.0153 19.6154 35.857 22.4571 35.857 25.9626C35.857 29.4681 33.0153 32.3098 29.5098 32.3098C26.0043 32.3098 23.1626 29.4681 23.1626 25.9626Z" fill="white"/>
</g>
</svg>
