<svg width="50" height="50" viewBox="0 0 50 50" fill="none" xmlns="http://www.w3.org/2000/svg">
<g id="Property 1=EC2">
<path id="Vector" d="M50 0H0V50H50V0Z" fill="#725FA8"/>
<path id="Vector_2" opacity="0.5" d="M23.1921 26.7725H5.96045V44.0042H23.1921V26.7725Z" fill="white"/>
<path id="Vector_3" opacity="0.5" d="M44.0988 5.86713H26.8672V23.0987H44.0988V5.86713Z" fill="white"/>
<path id="Vector_4" d="M18.0865 11.1426H16.3398V14.2928H18.0865V11.1426Z" fill="white"/>
<path id="Vector_5" d="M38.8988 16.1372V14.3802H35.6672V11.1426H33.9087V14.3802H32.1502V11.1426H30.3932V14.3802H28.6347V11.1426H26.8762V14.3802H25.1191V11.1426H23.3606V14.3802H21.6021V11.1426H19.8451V14.3802H18.0925V16.0499H14.855V17.8084H18.0925V19.5669H14.855V21.3239H18.0925V23.0825H14.855V24.841H18.0925V26.598H14.855V28.3566H18.0925V30.115H14.855V31.8721H18.0925V35.1865H19.8495V31.8721H21.608V35.1865H23.3665V31.8721H25.1236V35.1865H26.8821V31.8721H28.6406V35.1865H30.3976V31.8721H32.1561V35.1865H33.9146V31.8721H35.6672V30.2023H38.8988V28.4438H35.6672V26.6853H38.8988V24.9282H35.6672V23.1697H38.8988V21.4112H35.6672V19.6542H38.8988V17.8957H35.6672V16.1372H38.8988Z" fill="white"/>
<path id="Vector_6" d="M37.4181 31.9594H35.6714V35.185H37.4181V31.9594Z" fill="white"/>
</g>
</svg>
