<svg width="50" height="50" viewBox="0 0 50 50" fill="none" xmlns="http://www.w3.org/2000/svg">
<g id="Property 1=Secretes">
<path id="Vector" d="M50 0H0V50H50V0Z" fill="#E5157C"/>
<path id="Vector_2" d="M30.1135 24.523H19.9766V18.1131C19.9766 15.3178 22.2498 13.0446 25.045 13.0446C27.8403 13.0446 30.1135 15.3178 30.1135 18.1131V24.523ZM21.948 22.5515H28.142V18.1146C28.142 16.4064 26.7533 15.0176 25.045 15.0176C23.3368 15.0176 21.948 16.4064 21.948 18.1146V22.5515Z" fill="white"/>
<path id="Vector_3" d="M32.0201 22.3549H18.0688V33.0124H32.0201V22.3549Z" fill="white"/>
<path id="Vector_4" d="M25.0451 45.3974C13.7989 45.3974 4.64844 36.2469 4.64844 25.0007C4.64844 13.7546 13.7989 4.6041 25.0451 4.6041C36.2913 4.6041 45.4418 13.7546 45.4418 25.0007C45.4418 36.2469 36.2913 45.3974 25.0451 45.3974ZM25.0451 6.57556C14.886 6.57556 6.61992 14.8401 6.61992 25.0007C6.61992 35.1614 14.8845 43.4259 25.0451 43.4259C35.2057 43.4259 43.4703 35.1614 43.4703 25.0007C43.4703 14.8401 35.2057 6.57556 25.0451 6.57556Z" fill="white"/>
<path id="Vector_5" d="M26.0301 2.92841H24.0586V9.36939H26.0301V2.92841Z" fill="white"/>
<path id="Vector_6" d="M47.1158 24.0143H40.6748V25.9857H47.1158V24.0143Z" fill="white"/>
<path id="Vector_7" d="M26.0301 40.6321H24.0586V47.0731H26.0301V40.6321Z" fill="white"/>
<path id="Vector_8" d="M9.41363 24.0143H2.97266V25.9857H9.41363V24.0143Z" fill="white"/>
<path id="Vector_9" d="M39.9237 8.66352L33.103 15.4842L34.4971 16.8783L41.3178 10.0576L39.9237 8.66352Z" fill="white"/>
<path id="Vector_10" d="M15.5917 33.1211L8.771 39.9418L10.1651 41.3359L16.9858 34.5152L15.5917 33.1211Z" fill="white"/>
<path id="Vector_11" d="M10.1025 8.72778L8.7085 10.1218L15.5292 16.9425L16.9232 15.5485L10.1025 8.72778Z" fill="white"/>
<path id="Vector_12" d="M34.5576 33.0624L33.1636 34.4564L39.9843 41.2771L41.3783 39.8831L34.5576 33.0624Z" fill="white"/>
</g>
</svg>
