<svg width="50" height="50" viewBox="0 0 50 50" fill="none" xmlns="http://www.w3.org/2000/svg">
<g id="Property 1=Route 53">
<path id="Vector" d="M50 0H0V50H50V0Z" fill="#725FA8"/>
<g id="Group">
<path id="Vector_2" d="M25.5837 38.4136C26.4548 37.8738 27.2047 37.226 28.0758 36.9036C30.0769 36.1611 32.1327 35.5606 34.1766 34.9321C35.7355 34.4529 37.2736 33.9101 38.2216 32.4843C39.7213 30.2274 40.029 27.8226 38.2305 25.1782C36.7145 22.9494 36.3463 20.62 37.562 18.1515C37.9332 17.3973 38.4065 16.6918 38.8325 15.9626C38.1595 15.0871 37.5073 14.2337 36.8521 13.3833C36.1895 12.524 35.524 11.6662 34.854 10.8025C34.7386 10.8927 34.675 10.9311 34.6247 10.9814C32.2258 13.3803 28.4722 13.9764 25.9194 11.011C25.5482 10.5806 25.2258 10.591 24.7703 11.014C22.8816 12.771 20.6912 13.3788 18.2332 12.4012C17.2777 12.0211 16.4051 11.4355 15.4335 10.9104C13.9456 12.7074 12.4075 14.5635 10.8797 16.4078C11.35 17.2745 11.844 18.0864 12.2433 18.9428C12.8438 20.2295 13.1277 21.5872 12.6278 22.973C12.332 23.7924 11.9667 24.5969 11.5408 25.3571C10.8442 26.598 10.5794 27.901 10.7244 29.3031C10.9788 31.7478 12.0688 33.6882 14.4233 34.5608C16.1419 35.1983 17.9758 35.5473 19.7743 35.9482C21.867 36.414 24.0249 36.6817 25.5822 38.4106L25.5837 38.4136Z" fill="white"/>
<path id="Vector_3" d="M25.5832 38.4137C24.0258 36.6848 21.868 36.417 19.7753 35.9512C17.9753 35.5504 16.1429 35.2013 14.4243 34.5639C12.0683 33.6898 10.9783 31.7509 10.7253 29.3061C10.5804 27.904 10.8451 26.5996 11.5417 25.3602C11.9677 24.6 12.333 23.7954 12.6288 22.976C13.1302 21.5888 12.8462 20.2325 12.2443 18.9458C11.8449 18.091 11.351 17.279 10.8806 16.4109C12.4084 14.5666 13.9466 12.7104 15.4344 10.9135C16.4061 11.4385 17.2787 12.0257 18.2341 12.4043C20.6922 13.3804 22.8826 12.7726 24.7713 11.017C25.2268 10.5925 25.5507 10.5822 25.9204 11.014C28.4732 13.9809 32.2268 13.3849 34.6257 10.9845C34.676 10.9342 34.7396 10.8943 34.855 10.8055C35.5235 11.6692 36.1905 12.5271 36.8531 13.3863C37.5083 14.2368 38.1605 15.0886 38.8334 15.9657C38.406 16.6948 37.9342 17.4003 37.563 18.1546C36.3487 20.623 36.717 22.9524 38.2315 25.1812C40.0299 27.8242 39.7223 30.2305 38.2226 32.4874C37.2746 33.9131 35.7364 34.4559 34.1776 34.9351C32.1351 35.5637 30.0793 36.1642 28.0768 36.9066C27.2057 37.229 26.4558 37.8768 25.5847 38.4167L25.5832 38.4137Z" fill="white"/>
</g>
<g id="Group_2">
<path id="Vector_4" d="M19.8433 27.3716C20.4748 27.6171 21.0664 27.7384 21.6196 27.7384C22.0145 27.7384 22.3147 27.6215 22.5203 27.3893C22.7258 27.1571 22.8279 26.8184 22.8279 26.3762C22.8279 25.9103 22.714 25.5702 22.4848 25.3572C22.2555 25.1442 21.8961 25.0377 21.4066 25.0377C21.0354 25.0377 20.605 25.0777 20.1154 25.156V24.1607L20.3047 20.6555H24.1649V21.9703H21.6181L21.5116 23.9241C21.7645 23.8693 22.0248 23.8412 22.2925 23.8412C22.7347 23.8412 23.1178 23.9492 23.4417 24.1666C23.7656 24.384 24.014 24.6813 24.1871 25.0614C24.3601 25.44 24.4474 25.866 24.4474 26.3407C24.4474 26.8776 24.3335 27.3494 24.1043 27.7561C23.875 28.1628 23.5615 28.4749 23.1621 28.6923C22.7628 28.9097 22.3073 29.0177 21.7941 29.0177C21.4229 29.0177 21.0812 28.9837 20.7691 28.9171C20.4571 28.8506 20.148 28.7411 19.8389 28.5917V27.3716H19.8433Z" fill="#725FA8"/>
<path id="Vector_5" d="M27.376 29.0177C26.7992 29.0177 26.215 28.8801 25.6234 28.6036V27.3597C25.8837 27.4707 26.1647 27.5609 26.4634 27.6319C26.7637 27.7028 27.0195 27.7384 27.234 27.7384C28.0711 27.7384 28.4897 27.2887 28.4897 26.388C28.4897 25.6145 28.0474 25.2271 27.163 25.2271C26.99 25.2271 26.7755 25.2507 26.5241 25.2981V24.2909L28.2294 21.9703H25.7062V20.6555H29.8045V21.8638L28.1465 24.1134C28.7544 24.177 29.2306 24.4077 29.5737 24.8055C29.9169 25.2049 30.0884 25.7269 30.0884 26.3747C30.0884 27.1882 29.8429 27.8315 29.3549 28.3048C28.8653 28.7781 28.2057 29.0147 27.3775 29.0147L27.376 29.0177Z" fill="#725FA8"/>
</g>
</g>
</svg>
