<svg width="50" height="50" viewBox="0 0 50 50" fill="none" xmlns="http://www.w3.org/2000/svg">
<g id="Property 1=Cloud">
<g id="Vector">
<path d="M50 0H0V50H50V0Z" fill="#E5157C"/>
<path d="M13.2458 29.4599H9.64889V31.1799H13.2458V29.4599Z" fill="white"/>
<path d="M16.1135 32.0407H12.5166V33.7608H16.1135V32.0407Z" fill="white"/>
<path d="M18.5509 29.4599H16.8308V31.1799H18.5509V29.4599Z" fill="white"/>
<path d="M22.028 29.0295H20.3079V30.7495H22.028V29.0295Z" fill="white"/>
<path d="M7.84749 29.4599H6.12743V31.1799H7.84749V29.4599Z" fill="white"/>
<path d="M15.8872 27.7398H14.1672V29.4599H15.8872V27.7398Z" fill="white"/>
<path d="M28.9008 31.1814H22.2498V32.9015H28.9008V31.1814Z" fill="white"/>
<path d="M19.4102 32.0407H17.6901V33.7608H19.4102V32.0407Z" fill="white"/>
<path d="M30.0175 33.9412H28.2974V35.6613H30.0175V33.9412Z" fill="white"/>
<path d="M37.0973 19.919C36.6182 19.919 36.1493 19.9678 35.6953 20.058C35.5622 17.5555 33.4916 15.5678 30.9566 15.5678C30.26 15.5678 29.5989 15.7186 29.0014 15.9893C27.6762 13.0077 24.6916 10.9282 21.2175 10.9282C16.5143 10.9282 12.7015 14.741 12.7015 19.4442C12.7015 19.6527 12.7119 19.8598 12.7267 20.0654C9.71988 20.6851 7.41119 23.2186 7.13018 26.3348H17.8114V27.972H24.4062V29.6921H30.9803V34.0344H37.0973C40.9959 34.0344 44.1551 30.8738 44.1551 26.9767C44.1551 23.0795 40.9945 19.919 37.0973 19.919Z" fill="white"/>
</g>
</g>
</svg>
