<svg width="50" height="50" viewBox="0 0 50 50" fill="none" xmlns="http://www.w3.org/2000/svg">
<g id="Property 1=Dynamo db">
<path id="Vector" d="M50 0H0V50H50V0Z" fill="#E5157C"/>
<path id="Vector_2" d="M11.127 30.9103V36.2734C11.127 38.6512 17.3581 40.5794 25.0443 40.5794C32.7304 40.5794 38.9616 38.6512 38.9616 36.2734V30.9103H11.127Z" fill="#F79820"/>
<path id="Vector_3" d="M25.0443 35.2162C32.7306 35.2162 38.9616 33.2884 38.9616 30.9103C38.9616 28.5322 32.7306 26.6044 25.0443 26.6044C17.3579 26.6044 11.127 28.5322 11.127 30.9103C11.127 33.2884 17.3579 35.2162 25.0443 35.2162Z" fill="white"/>
<path id="Vector_4" d="M11.127 22.2985V27.6617C11.127 30.0394 17.3581 31.9676 25.0443 31.9676C32.7304 31.9676 38.9616 30.0394 38.9616 27.6617V22.2985H11.127Z" fill="#F79820"/>
<path id="Vector_5" d="M25.0443 26.6044C32.7306 26.6044 38.9616 24.6766 38.9616 22.2985C38.9616 19.9204 32.7306 17.9926 25.0443 17.9926C17.3579 17.9926 11.127 19.9204 11.127 22.2985C11.127 24.6766 17.3579 26.6044 25.0443 26.6044Z" fill="white"/>
<path id="Vector_6" d="M11.127 13.6882V19.0513C11.127 21.429 17.3581 23.3573 25.0443 23.3573C32.7304 23.3573 38.9616 21.429 38.9616 19.0513V13.6882H11.127Z" fill="#F79820"/>
<path id="Vector_7" d="M25.0443 17.9941C32.7306 17.9941 38.9616 16.0662 38.9616 13.6882C38.9616 11.3101 32.7306 9.38223 25.0443 9.38223C17.3579 9.38223 11.127 11.3101 11.127 13.6882C11.127 16.0662 17.3579 17.9941 25.0443 17.9941Z" fill="white"/>
<path id="Vector_8" d="M41.357 11.7363H26.8778L22.2998 23.0408H26.5658L22.8321 34.9752L30.5774 27.2299L38.3242 19.4831H33.6117L41.357 11.7363Z" fill="#E4157B"/>
<path id="Vector (Stroke)" fill-rule="evenodd" clip-rule="evenodd" d="M26.28 10.8491H43.4988L35.7535 18.5959H40.4663L20.9082 38.154L25.3588 23.928H20.9835L26.28 10.8491ZM27.4759 12.6235L23.6165 22.1536H27.7731L24.7564 31.7964L36.1825 20.3703H31.4702L39.2155 12.6235H27.4759Z" fill="white"/>
</g>
</svg>
