<svg width="50" height="50" viewBox="0 0 50 50" fill="none" xmlns="http://www.w3.org/2000/svg">
<g id="Property 1=Sage Maker">
<path id="Vector" d="M50 0H0V50H50V0Z" fill="#32ACB2"/>
<path id="Vector_2" d="M24.344 34.1829V33.7549L18.5293 37.0472L18.097 36.2833L20.3492 35.0082V32.1249L17.2133 29.3293V22.1386L13.3894 19.2086L8.39404 22.0919V25.4178L13.328 22.6235L13.7604 23.3874L8.39404 26.427V28.3988L13.8027 31.5216L15.9571 30.3021L16.3895 31.066L13.8553 32.5003V37.8579L19.3166 41.0113L24.344 38.1091V34.1829Z" fill="white"/>
<path id="Vector_3" d="M35.702 18.9399V12.6329L30.2407 9.47943L25.2176 12.3788V20.3289L27.0989 22.0422C27.3575 21.8786 27.6627 21.7823 27.9914 21.7823C28.9116 21.7823 29.6579 22.5287 29.6579 23.4488C29.6579 24.369 28.9116 25.1154 27.9914 25.1154C27.0712 25.1154 26.3248 24.369 26.3248 23.4488C26.3248 23.1757 26.392 22.9186 26.5088 22.6907L24.3413 20.716V12.3788L19.3182 9.47943L17.732 10.3952H17.8547V17.0016H16.9768V10.8319L13.8555 12.6344V18.4608L17.6312 21.3543L21.4507 17.9744V15.4855H22.3285V18.3688L18.0898 22.1197V28.9349L21.2272 31.7305V34.5101L24.3442 32.7457V29.2373L19.8601 25.4192L20.4297 24.7502L25.222 28.8312V33.7418H26.3847C26.5775 33.0349 27.2231 32.5134 27.9914 32.5134C28.9116 32.5134 29.6579 33.2598 29.6579 34.18C29.6579 35.1002 28.9116 35.8466 27.9914 35.8466C27.2231 35.8466 26.5775 35.3251 26.3847 34.6182H25.222V38.1106L30.2407 41.0084L35.702 37.8549V31.548L37.3671 30.5869L35.9006 28.1082C35.7604 28.1462 35.6129 28.1695 35.461 28.1695C34.5408 28.1695 33.7944 27.4231 33.7944 26.503C33.7944 25.5828 34.5408 24.8364 35.461 24.8364C36.3812 24.8364 37.1276 25.5828 37.1276 26.503C37.1276 26.9543 36.9479 27.3633 36.6558 27.6627L38.1237 30.1457L37.7469 30.3678L41.1618 28.3959V22.089L35.7005 18.9355L35.702 18.9399ZM35.702 16.4349H32.1205C31.9277 17.1419 31.2821 17.6633 30.5139 17.6633C29.5937 17.6633 28.8473 16.9169 28.8473 15.9967C28.8473 15.0766 29.5937 14.3302 30.5139 14.3302C31.2821 14.3302 31.9277 14.8516 32.1205 15.5586H35.702V16.4364V16.4349Z" fill="white"/>
</g>
</svg>
