<svg width="50" height="50" viewBox="0 0 50 50" fill="none" xmlns="http://www.w3.org/2000/svg">
<g id="Property 1=La Escalera">
<path id="Vector" d="M50 0H0V50H50V0Z" fill="#725FA8"/>
<path id="Vector_2" d="M36.0767 20.571C35.6157 20.571 35.165 20.6169 34.7291 20.7055C34.602 18.2985 32.6088 16.385 30.1708 16.385C29.4999 16.385 28.8646 16.5314 28.2913 16.7899C27.0161 13.9219 24.1452 11.9213 20.8043 11.9213C16.28 11.9213 12.6126 15.5885 12.6126 20.1129C12.6126 20.3139 12.623 20.5119 12.6363 20.7098C9.54663 21.3467 7.22534 24.0817 7.22534 27.359C7.22534 31.1091 10.2647 34.1485 14.0148 34.1485H36.0781C39.8283 34.1485 42.8676 31.1091 42.8676 27.359C42.8676 23.6089 39.8283 20.5695 36.0781 20.5695L36.0767 20.571Z" fill="white"/>
<path id="Vector_3" d="M21.5815 31.5892C21.6367 31.5892 21.6815 31.634 21.6815 31.6892V40.7799C21.6815 40.8351 21.7262 40.8799 21.7815 40.8799H28.2185C28.2738 40.8799 28.3185 40.8351 28.3185 40.7799V31.6892C28.3185 31.634 28.3633 31.5892 28.4185 31.5892H31.7511C31.8413 31.5892 31.8854 31.4794 31.8203 31.417L25.0684 24.9462C25.0297 24.9091 24.9687 24.9091 24.93 24.9462L18.1796 31.4171C18.1146 31.4794 18.1587 31.5892 18.2488 31.5892H21.5815Z" fill="#E5157C"/>
</g>
</svg>
