<svg width="50" height="50" viewBox="0 0 50 50" fill="none" xmlns="http://www.w3.org/2000/svg">
<g id="Property 1=RDS">
<path id="Vector" d="M50 0H0V50H50V0Z" fill="#16233C"/>
<path id="Vector_2" d="M25.0445 6.46777C16.5643 6.46777 9.68994 8.62662 9.68994 11.2897V38.4841C9.68994 41.1472 16.5643 43.306 25.0445 43.306C33.5247 43.306 40.3991 41.1472 40.3991 38.4841V11.2897C40.3991 8.62662 33.5247 6.46777 25.0445 6.46777Z" fill="#32ACB2"/>
<path id="Vector_3" d="M25.0443 16.0348C33.6526 16.0348 40.631 13.8932 40.631 11.2513C40.631 8.60944 33.6526 6.46777 25.0443 6.46777C16.4359 6.46777 9.45752 8.60944 9.45752 11.2513C9.45752 13.8932 16.4359 16.0348 25.0443 16.0348Z" fill="white"/>
<path id="Vector_4" d="M25.0445 33.146C16.5643 33.146 9.68994 30.9872 9.68994 28.3241V32.3313C10.6555 32.9952 11.9198 33.5748 13.4576 34.0583C16.588 35.0416 20.7031 35.5829 25.0445 35.5829C29.3859 35.5829 33.5026 35.0416 36.6314 34.0583C38.1678 33.5763 39.4335 32.9952 40.3991 32.3313V28.3241C40.3991 30.9872 33.5247 33.146 25.0445 33.146Z" fill="white"/>
<path id="Vector_5" d="M25.0445 23.4725C16.5643 23.4725 9.68994 21.3137 9.68994 18.6506V22.6578C10.6555 23.3217 11.9198 23.9013 13.4576 24.3848C16.588 25.3681 20.7031 25.9094 25.0445 25.9094C29.3859 25.9094 33.5026 25.3681 36.6314 24.3848C38.1678 23.9028 39.4335 23.3217 40.3991 22.6578V18.6506C40.3991 21.3137 33.5247 23.4725 25.0445 23.4725Z" fill="white"/>
</g>
</svg>
