<svg width="51" height="50" viewBox="0 0 51 50" fill="none" xmlns="http://www.w3.org/2000/svg">
<g id="Property 1=El Coraz&#195;&#179;n">
<path id="Vector" d="M50.5 0H0.5V50H50.5V0Z" fill="#E5157C"/>
<path id="Vector_2" d="M25.5037 15.6092C25.3617 15.3474 25.2419 15.1167 25.1118 14.8919C23.3089 11.7727 20.1143 10.2272 16.6298 10.7847C13.3672 11.3068 10.5911 14.074 10.0128 17.523C9.53364 20.3819 10.3781 22.9745 11.8719 25.3897C15.2396 30.8309 19.9309 35.0149 24.8041 39.0289C25.3262 39.4593 25.8069 39.4386 26.3083 39.0289C31.1061 35.0993 35.7072 30.9773 39.0675 25.6826C40.4888 23.4434 41.3791 21.046 41.178 18.3039C40.9399 15.0709 38.8027 12.1883 35.6791 11.0968C32.6842 10.0497 29.2441 10.9341 27.1143 13.3567C26.5301 14.0208 26.0775 14.8002 25.5037 15.6136V15.6092Z" fill="white"/>
</g>
</svg>
