<svg width="51" height="50" viewBox="0 0 51 50" fill="none" xmlns="http://www.w3.org/2000/svg">
<g id="Property 1=La Ara&#195;&#177;a">
<path id="Vector" d="M50.5 0H0.5V50H50.5V0Z" fill="#E5157C"/>
<g id="Group">
<path id="Vector_2" d="M32.3973 20.8611C32.3973 20.0772 31.9935 19.6705 31.2185 19.6675C30.9035 19.666 30.5885 19.6675 30.2734 19.6675H26.3305V39.8261C26.3763 39.8261 26.4103 39.8291 26.4414 39.8246C29.1642 39.4519 31.5661 37.2142 32.1991 34.484C32.449 33.4058 32.3943 32.3143 32.3958 31.2258C32.4002 27.7709 32.3987 24.316 32.3973 20.8611ZM30.2291 17.631C29.9347 15.7482 28.0712 13.5312 25.1754 13.6007C22.8179 13.6569 20.5047 15.6255 20.3909 17.631H30.2291ZM24.2835 39.9059V19.6941C24.2229 19.6823 24.1904 19.6705 24.1593 19.6705C22.5265 19.6705 20.8952 19.6616 19.2639 19.672C18.6279 19.6749 18.2138 20.1231 18.2138 20.7842C18.2108 24.8247 18.1561 28.8668 18.2315 32.9044C18.2877 35.9275 19.7993 38.0912 22.5487 39.3528C23.0856 39.5998 23.6801 39.7166 24.2835 39.9059ZM16.1876 33.8539V29.7986H15.7853C13.6482 29.7986 11.5096 29.7838 9.37244 29.8074C8.76014 29.8148 8.33419 29.6152 8.08276 29.0576V28.5163C8.33123 27.9572 8.75866 27.759 9.37096 27.765C11.517 27.7901 13.6644 27.7753 15.8119 27.7753H16.1625V23.7199C15.6892 23.7199 15.241 23.7244 14.7914 23.7185C14.3315 23.7125 13.8641 23.7466 13.413 23.677C11.2522 23.3443 9.84867 22.1108 9.15946 20.0432C8.81042 18.9916 8.44216 17.9475 8.08276 16.9003V16.359C8.31053 15.8932 8.63295 15.5604 9.20235 15.6225C9.77176 15.6846 10.0025 16.0869 10.1593 16.5779C10.4905 17.6043 10.8204 18.6293 11.1842 19.6439C11.5909 20.7753 12.3999 21.4763 13.5979 21.6346C14.2294 21.7189 14.8772 21.6819 15.5176 21.6952C15.7365 21.7011 15.9569 21.6967 16.1876 21.6967V20.7679C16.192 19.4131 16.828 18.4666 18.0334 17.875C18.1458 17.8188 18.2597 17.6694 18.2818 17.5467C18.6043 15.7719 19.4384 14.3003 20.8346 13.1526C20.978 13.0358 21.123 12.9204 21.2768 12.7947C20.6275 12.1395 20.2548 11.3911 20.243 10.4904C20.2341 9.88257 20.2681 9.27322 20.2326 8.66832C20.1971 8.05306 20.4234 7.62712 20.9825 7.37717H21.5223C22.0813 7.62712 22.3091 8.05306 22.2721 8.66536C22.2381 9.22589 22.2573 9.79087 22.2662 10.3529C22.278 11.0924 22.7632 11.5642 23.4997 11.5657H27.0759C27.8597 11.5657 28.336 11.0998 28.3434 10.3189C28.3493 9.76721 28.3729 9.21406 28.3374 8.66536C28.3005 8.05158 28.5282 7.62712 29.0873 7.37717H29.6271C30.1862 7.62712 30.4125 8.05454 30.377 8.66832C30.3415 9.2392 30.4125 9.82045 30.3563 10.3884C30.306 10.8824 30.1936 11.3837 30.0146 11.8452C29.8771 12.2001 29.5931 12.4974 29.3668 12.8287C29.3979 12.8538 29.4393 12.8923 29.4837 12.9248C31.0144 14.0651 31.9536 15.5767 32.2937 17.452C32.3396 17.7049 32.4357 17.8173 32.6635 17.9312C33.7875 18.4888 34.388 19.4013 34.4205 20.6688C34.4279 21.0016 34.4205 21.3358 34.4205 21.6967C35.1659 21.6967 35.8729 21.6997 36.5798 21.6952C38.0588 21.6893 39.1532 20.8951 39.6236 19.4856C39.9711 18.4429 40.3113 17.3958 40.6662 16.3561C40.8689 15.7645 41.4294 15.479 41.9737 15.6684C42.5298 15.8621 42.7886 16.4093 42.5934 17.0083C42.234 18.1072 41.8894 19.212 41.4945 20.2976C40.8467 22.0812 39.5866 23.2437 37.7216 23.6002C36.8268 23.7717 35.8847 23.6889 34.9648 23.7199C34.7888 23.7244 34.6142 23.7199 34.4486 23.7199V27.7753H34.8464C37.0649 27.7753 39.2819 27.7738 41.4989 27.7768C41.6439 27.7768 41.7947 27.7783 41.9323 27.8182C42.4277 27.9602 42.7235 28.4246 42.657 28.9304C42.5889 29.4362 42.1659 29.7971 41.6158 29.7971C39.3529 29.8001 37.0901 29.7986 34.8287 29.7986H34.4116V33.8539C35.1644 33.8539 35.9276 33.851 36.6907 33.8539C38.8471 33.8599 40.7032 35.1318 41.4442 37.1536C41.8613 38.2909 42.2281 39.4474 42.5978 40.6025C42.6584 40.7933 42.6599 41.0285 42.6126 41.2267C42.5105 41.6586 42.1334 41.9381 41.7075 41.9543C41.2135 41.9736 40.8349 41.7147 40.6633 41.2134C40.2921 40.1189 39.9489 39.0156 39.5585 37.9271C39.1547 36.7956 38.3442 36.0561 37.1448 35.9452C36.0755 35.8476 34.9899 35.9245 33.9221 35.9245C32.4254 39.4682 29.8223 41.6837 25.9267 41.9114C21.4572 42.1717 18.4327 39.9266 16.649 35.8772C15.843 35.8772 15.0222 35.8772 14.1998 35.8772C12.675 35.8801 11.5998 36.6611 11.1147 38.1179C10.773 39.1398 10.4358 40.1633 10.0912 41.1838C9.90487 41.7355 9.46118 42.0238 8.93318 41.9484C8.4954 41.8848 8.26616 41.5742 8.08276 41.2134V40.6735C8.44216 39.625 8.83557 38.5867 9.15503 37.5277C9.83388 35.2782 11.9059 33.7563 14.2575 33.8495C14.9068 33.8746 15.559 33.8539 16.1876 33.8539Z" fill="white"/>
</g>
</g>
</svg>
