<svg width="50" height="50" viewBox="0 0 50 50" fill="none" xmlns="http://www.w3.org/2000/svg">
<g id="Property 1=Redshift">
<path id="Vector" d="M50 0H0V50H50V0Z" fill="#32ACB2"/>
<g id="Group 1">
<path id="Vector_2" d="M8.45083 29.201H8.41681C8.33251 27.9365 8.28223 26.5315 8.28223 24.98C8.28223 23.4286 8.31033 22.0384 8.36357 20.8093L8.44935 20.8137C8.44935 23.115 15.8369 24.98 24.9504 24.98C34.0639 24.98 41.4514 23.115 41.4514 20.8137L41.5372 20.8093C41.5889 22.0384 41.6185 23.4212 41.6185 24.98C41.6185 26.5389 41.5668 27.9336 41.481 29.2026H41.4514C41.3375 31.4757 33.9929 33.3126 24.9519 33.3126C15.9108 33.3126 8.56619 31.4757 8.45231 29.1996L8.45083 29.201Z" fill="#F79820"/>
<path id="Vector_3" d="M41.5359 19.3008L41.4501 19.3052C41.4501 21.6065 34.0626 23.4715 24.9491 23.4715C15.8356 23.4715 8.44809 21.6065 8.44809 19.3052L8.3623 19.3008C8.59155 13.9676 9.26596 11.545 9.97144 10.3559C9.86347 10.5571 9.80727 10.7626 9.80727 10.9711C9.80727 13.2724 16.5855 15.1374 24.9476 15.1374C33.3098 15.1374 40.088 13.2724 40.088 10.9711C40.088 10.7626 40.0318 10.5571 39.9238 10.3559C40.6293 11.545 41.3037 13.9676 41.5329 19.3008H41.5359Z" fill="#F79820"/>
<path id="Vector_4" d="M41.4501 30.6519H41.4797C41.0803 36.5782 39.9489 39.5051 39.9489 39.5051C38.9328 41.5343 32.6043 43.0975 24.9505 43.0975C17.2968 43.0975 10.6872 41.4633 9.893 39.369C9.893 39.369 9.89152 39.3646 9.88857 39.3572C9.81166 39.1487 8.78968 36.315 8.41846 30.6534H8.45247C8.56636 32.9266 15.911 34.7635 24.952 34.7635C33.993 34.7635 41.3377 32.9266 41.4516 30.6505L41.4501 30.6519Z" fill="#F79820"/>
<path id="Vector_5" d="M39.9267 10.3558C40.0346 10.557 40.0908 10.7625 40.0908 10.971C40.0908 13.2723 33.3126 15.1373 24.9505 15.1373C16.5883 15.1373 9.81012 13.2723 9.81012 10.971C9.81012 10.7625 9.86632 10.557 9.97429 10.3558C9.97724 10.3514 9.97872 10.3469 9.98168 10.3425C10.0246 10.27 10.0675 10.2035 10.1104 10.1399C11.508 8.23646 17.6206 6.80331 24.9505 6.80331C32.2803 6.80331 38.393 8.23646 39.7906 10.1399C39.8335 10.2035 39.8764 10.27 39.9193 10.3425C39.9222 10.3469 39.9237 10.3499 39.9267 10.3558Z" fill="white"/>
<path id="Vector_6" d="M33.5535 16.5898C32.0538 16.5898 30.8396 17.8056 30.8396 19.3038C30.8396 20.1911 31.267 20.975 31.9251 21.4705L29.1905 26.2046C28.8636 26.0656 28.5043 25.9873 28.1256 25.9873C27.3891 25.9873 26.7236 26.2816 26.234 26.7578L23.6916 24.7094C23.9519 24.2923 24.1043 23.8013 24.1043 23.2748C24.1043 21.7751 22.8886 20.5609 21.3903 20.5609C19.8921 20.5609 18.6764 21.7766 18.6764 23.2748C18.6764 24.1755 19.1171 24.9712 19.7916 25.4652L16.9918 30.4715C16.6739 30.3414 16.3263 30.2674 15.9625 30.2674C14.4628 30.2674 13.2485 31.4832 13.2485 32.9814C13.2485 34.4796 14.4643 35.6953 15.9625 35.6953C17.4607 35.6953 18.6764 34.4796 18.6764 32.9814C18.6764 32.0807 18.2357 31.285 17.5613 30.791L20.361 25.7846C20.6789 25.9148 21.0265 25.9887 21.3903 25.9887C22.1269 25.9887 22.7924 25.6944 23.282 25.2197L25.8243 27.268C25.564 27.6851 25.4117 28.1747 25.4117 28.7027C25.4117 30.2024 26.6274 31.4166 28.1256 31.4166C29.6238 31.4166 30.8396 30.2009 30.8396 28.7027C30.8396 27.8153 30.4121 27.0299 29.754 26.536L32.4886 21.8017C32.8155 21.9407 33.1749 22.0192 33.5535 22.0192C35.0532 22.0192 36.2674 20.8034 36.2674 19.3052C36.2674 17.807 35.0517 16.5913 33.5535 16.5913V16.5898Z" fill="white"/>
</g>
</g>
</svg>
