<svg width="50" height="50" viewBox="0 0 50 50" fill="none" xmlns="http://www.w3.org/2000/svg">
<g id="Property 1=Glue">
<path id="Vector" d="M50 0H0V50H50V0Z" fill="#F79822"/>
<path id="Vector_2" d="M41.0433 17.489L40.9176 17.6117C38.7301 19.6261 32.4592 21.08 25.0673 21.08C17.6753 21.08 11.4044 19.6261 9.21702 17.6117L9.09131 17.489H17.7271V18.7712H22.0339V17.489H41.0447H41.0433Z" fill="#DD354C"/>
<path id="Vector_3" d="M40.916 17.6117L41.0417 17.489H22.0309V14.4645H17.7241V17.489H9.08827L9.21399 17.6117C8.67564 17.1163 8.38428 16.5868 8.38428 16.0366C8.38428 13.4721 14.7158 11.3527 22.9109 11.0332V12.5862H27.2177V11.0332C28.0784 11.0673 28.9185 11.1205 29.7334 11.1915V14.534H34.0402V11.7831C38.6724 12.6793 41.7442 14.25 41.7442 16.0366C41.7442 16.5868 41.4529 17.1163 40.9145 17.6117H40.916Z" fill="#DD354C"/>
<path id="Vector_4" d="M40.9159 17.6117L30.56 27.6733V33.2993C30.56 34.2162 28.1005 34.9617 25.0656 34.9617C22.0307 34.9617 19.5712 34.2177 19.5712 33.2993V27.6733L9.21533 17.6117C11.4027 19.6261 17.6736 21.08 25.0656 21.08C32.4576 21.08 38.7284 19.6261 40.9159 17.6117Z" fill="white"/>
<path id="Vector_5" d="M34.0431 11.7846V14.5355H29.7363V11.193C31.276 11.3276 32.7239 11.5302 34.0431 11.7846Z" fill="white"/>
<path id="Vector_6" d="M34.0431 10.2287V11.7846C32.7224 11.5302 31.276 11.329 29.7363 11.193V10.2271H34.0431V10.2287Z" fill="white"/>
<path id="Vector_7" d="M28.901 40.1958L25.066 42.8225L21.231 40.1958H23.2468V36.559H26.8851V40.1958H28.901Z" fill="#DD354C"/>
<path id="Vector_8" d="M27.2194 11.0347V12.5877H22.9126V11.0347C23.6181 11.0066 24.3369 10.9933 25.066 10.9933C25.7951 10.9933 26.5139 11.0066 27.2194 11.0347Z" fill="white"/>
<path id="Vector_9" d="M27.2194 8.27933V11.0347C26.5154 11.0066 25.7951 10.9933 25.066 10.9933C24.3369 10.9933 23.6181 11.0066 22.9126 11.0347V8.27933H27.2194Z" fill="white"/>
<path id="Vector_10" d="M22.0324 17.489H17.7256V18.7712H22.0324V17.489Z" fill="white"/>
<path id="Vector_11" d="M22.0324 14.4645H17.7256V17.489H22.0324V14.4645Z" fill="white"/>
</g>
</svg>
