<svg width="51" height="50" viewBox="0 0 51 50" fill="none" xmlns="http://www.w3.org/2000/svg">
<g id="Property 1=La Corona">
<path id="Vector" d="M50.5 0H0.5V50H50.5V0Z" fill="#F79820"/>
<path id="Vector_2" d="M33.6023 20.5221L25.7135 9.52298L17.9813 20.5221M17.9813 20.5221L8.5824 9.52298L10.3141 37.2883C10.3141 40.375 17.1184 42.8781 25.5126 42.8781C33.9067 42.8781 40.711 40.375 40.711 37.2883L42.8461 9.52298L33.6023 20.5221M25.5111 41.2778C18.4586 41.2778 12.7418 39.4914 12.7418 37.2883C12.7418 35.0852 18.4586 33.2988 25.5111 33.2988C32.5636 33.2988 38.2804 35.0852 38.2804 37.2883C38.2804 39.4914 32.5636 41.2778 25.5111 41.2778Z" fill="white"/>
</g>
</svg>
