<svg width="51" height="50" viewBox="0 0 51 50" fill="none" xmlns="http://www.w3.org/2000/svg">
<g id="Property 1=El Mundo">
<path id="Vector" d="M50.5 0H0.5V50H50.5V0Z" fill="#32ACB2"/>
<path id="Vector_2" d="M25.5435 6.83533C15.5388 6.83533 7.3988 14.9753 7.3988 24.98C7.3988 34.9848 15.5388 43.1248 25.5435 43.1248C35.5483 43.1248 43.6883 34.9848 43.6883 24.98C43.6883 14.9753 35.5483 6.83533 25.5435 6.83533ZM24.066 14.7744C23.0021 14.7271 21.9574 14.6281 20.9468 14.4833C21.8274 12.422 22.9297 10.9533 24.066 10.2544V14.7744ZM24.066 17.7355V23.501H19.0835C19.1811 21.2196 19.5032 19.1421 19.9804 17.3335C21.2925 17.5448 22.6608 17.6793 24.066 17.7355ZM24.066 26.4591V32.3443C22.6726 32.4004 21.3147 32.5335 20.0115 32.7418C19.518 30.9052 19.184 28.7878 19.0835 26.4576H24.066V26.4591ZM24.066 35.3069V39.7071C22.9504 39.0215 21.8673 37.5942 20.9955 35.5921C21.9914 35.4502 23.0198 35.3542 24.066 35.3069ZM27.0226 35.3069C28.0687 35.3542 29.0971 35.4502 30.093 35.5921C29.2213 37.5942 28.1382 39.0215 27.0226 39.7071V35.3069ZM27.0226 32.3458V26.4606H32.005C31.9046 28.7893 31.5706 30.9081 31.0771 32.7448C29.7739 32.5364 28.416 32.4034 27.0226 32.3473V32.3458ZM27.0226 23.501V17.7355C28.4278 17.6793 29.796 17.5434 31.1067 17.3335C31.5839 19.1436 31.906 21.2211 32.0035 23.501H27.0211H27.0226ZM27.0226 14.7744V10.2544C28.1589 10.9533 29.2612 12.4206 30.1418 14.4833C29.1311 14.6296 28.0865 14.7271 27.0226 14.7744ZM32.5148 12.558C32.2695 12.0438 32.0095 11.5636 31.7361 11.1144C32.9817 11.6729 34.1372 12.394 35.1789 13.2495C34.5199 13.4918 33.8225 13.7075 33.094 13.8952C32.9123 13.4327 32.7202 12.9865 32.5148 12.5565V12.558ZM18.5738 12.558C18.3684 12.9865 18.1748 13.4342 17.9946 13.8967C17.2661 13.7091 16.5687 13.4918 15.9097 13.251C16.9514 12.394 18.1069 11.6729 19.3525 11.1158C19.0806 11.565 18.8205 12.0453 18.5738 12.5595V12.558ZM17.0873 16.7218C16.548 18.8141 16.22 21.1118 16.1239 23.501H10.4293C10.7204 20.5074 11.8833 17.765 13.6623 15.5339C14.7173 15.9993 15.8654 16.3982 17.0873 16.7218ZM16.1239 26.4591C16.2215 28.8927 16.5613 31.2287 17.1169 33.3505C15.9112 33.6697 14.7764 34.0584 13.7332 34.5149C11.9143 32.2675 10.7234 29.4926 10.4293 26.4591H16.1239ZM18.0374 36.1743C18.2059 36.5983 18.3846 37.0091 18.5738 37.4036C18.8191 37.9178 19.0791 38.398 19.3525 38.8472C18.1482 38.3079 17.0267 37.6149 16.0131 36.7948C16.6544 36.5628 17.3311 36.356 18.0389 36.1757L18.0374 36.1743ZM32.5148 37.4036C32.7039 37.0091 32.8827 36.5983 33.0512 36.1743C33.7574 36.356 34.4357 36.5629 35.0769 36.7934C34.0618 37.6134 32.9418 38.3063 31.7376 38.8457C32.0095 38.3965 32.2695 37.9163 32.5163 37.4021L32.5148 37.4036ZM33.9717 33.3505C34.5273 31.2287 34.8671 28.8912 34.9646 26.4591H40.6592C40.3652 29.4926 39.1743 32.2675 37.3554 34.5149C36.3122 34.0584 35.1774 33.6697 33.9717 33.3505ZM34.9646 23.501C34.8686 21.1118 34.5406 18.8141 34.0012 16.7218C35.2232 16.3967 36.3713 15.9993 37.4263 15.5339C39.2038 17.7665 40.3682 20.5074 40.6592 23.501H34.9646Z" fill="white"/>
</g>
</svg>
