<svg width="172" height="48" viewBox="0 0 172 48" fill="none" xmlns="http://www.w3.org/2000/svg">
<path fill-rule="evenodd" clip-rule="evenodd" d="M99.378 12.6042C98.9616 12.0717 96.6278 12.3518 95.5791 12.4775C95.2613 12.5156 95.2122 12.238 95.4984 12.037C97.3605 10.7292 100.411 11.1068 100.766 11.5447C101.123 11.9862 100.672 15.0451 98.9272 16.5049C98.6588 16.7293 98.4036 16.6097 98.5224 16.3131C98.9153 15.3326 99.7943 13.1372 99.378 12.6042Z" fill="#FF9900"/>
<path fill-rule="evenodd" clip-rule="evenodd" d="M98.0243 14.1496C94.7713 16.5501 90.0555 17.8267 85.9946 17.8267C80.3035 17.8267 75.1783 15.7229 71.3 12.221C70.9953 11.946 71.2669 11.5705 71.6331 11.7834C75.8173 14.2182 80.992 15.6846 86.3365 15.6846C89.9417 15.6846 93.9046 14.9365 97.5515 13.3896C98.1011 13.1564 98.5624 13.752 98.0243 14.1496Z" fill="#FF9900"/>
<path d="M96.1556 9.28428C95.637 9.28428 95.1294 9.2264 94.6341 9.1115C94.1383 8.99638 93.7579 8.86362 93.493 8.71386C93.3314 8.62155 93.2305 8.52967 93.1905 8.43715C93.1498 8.34505 93.1298 8.25296 93.1298 8.16044V7.65908C93.1298 7.45166 93.2047 7.34794 93.3547 7.34794C93.4124 7.34794 93.4726 7.35956 93.5363 7.38259C93.5993 7.40582 93.6833 7.44025 93.787 7.4863C94.1211 7.63606 94.4841 7.75139 94.8762 7.83187C95.2678 7.91277 95.6598 7.95301 96.0519 7.95301C96.6742 7.95301 97.1553 7.8437 97.4957 7.62466C97.8354 7.40582 98.0056 7.09447 98.0056 6.69102C98.0056 6.41431 97.9163 6.18386 97.7378 5.99924C97.5587 5.81505 97.2274 5.64227 96.7434 5.48067L95.3082 5.03118C94.5822 4.80073 94.0549 4.46656 93.7265 4.02826C93.3982 3.5906 93.2338 3.11205 93.2338 2.59327C93.2338 2.17842 93.3228 1.81262 93.5016 1.49546C93.6802 1.17872 93.9167 0.907606 94.2106 0.682751C94.5044 0.458111 94.8473 0.288123 95.2392 0.172791C95.631 0.057889 96.0459 7.62939e-06 96.4839 7.62939e-06C96.703 7.62939e-06 96.9248 0.0144243 97.1497 0.0432577C97.3745 0.0720911 97.5876 0.10953 97.7894 0.155578C97.9908 0.201839 98.1782 0.253696 98.3512 0.311148C98.5242 0.369029 98.6624 0.42648 98.7663 0.484146C98.9044 0.564837 99.0023 0.645741 99.0602 0.726216C99.1179 0.806906 99.1465 0.916213 99.1465 1.05457V1.52128C99.1465 1.72892 99.0716 1.83263 98.9219 1.83263C98.8409 1.83263 98.7144 1.7924 98.5416 1.71171C97.9766 1.45823 97.3427 1.33128 96.6397 1.33128C96.0749 1.33128 95.637 1.42359 95.3257 1.60778C95.0145 1.7924 94.859 2.08632 94.859 2.48956C94.859 2.76627 94.9569 2.99952 95.1529 3.18973C95.3487 3.37994 95.7117 3.56155 96.2419 3.73455L97.6424 4.18404C98.3568 4.41471 98.8672 4.73166 99.1725 5.13489C99.4776 5.53855 99.6306 5.99924 99.6306 6.51802C99.6306 6.94449 99.5443 7.32793 99.3713 7.66769C99.1986 8.00788 98.9591 8.29879 98.6537 8.54086C98.3482 8.78293 97.9822 8.96755 97.5562 9.09407C97.1295 9.22081 96.6625 9.28428 96.1556 9.28428ZM83.4651 9.025C83.2923 9.025 83.1654 8.99337 83.0849 8.92989C83.004 8.86663 82.9349 8.7371 82.8775 8.54086L80.5607 0.898999C80.5028 0.703192 80.4742 0.570431 80.4742 0.50136C80.4742 0.340196 80.5547 0.259291 80.7163 0.259291H81.6846C81.8688 0.259291 81.9983 0.291137 82.0734 0.354397C82.1483 0.417873 82.2143 0.547407 82.2722 0.743429L83.9321 7.27887L85.4708 0.743429C85.5168 0.547407 85.5803 0.417873 85.6612 0.354397C85.7417 0.291137 85.8742 0.259291 86.0586 0.259291H86.8539C87.0383 0.259291 87.1708 0.291137 87.2515 0.354397C87.332 0.417873 87.3955 0.547407 87.4417 0.743429L88.9977 7.36537L90.7094 0.743429C90.767 0.547407 90.8333 0.417873 90.9082 0.354397C90.9831 0.291137 91.1126 0.259291 91.2974 0.259291H92.2136C92.375 0.259291 92.4557 0.340196 92.4557 0.50136C92.4557 0.547407 92.4497 0.599479 92.4385 0.65693C92.4269 0.714811 92.4038 0.795286 92.3692 0.898999L89.9831 8.54086C89.9255 8.7371 89.8564 8.86663 89.7759 8.92989C89.6952 8.99337 89.5685 9.025 89.3955 9.025H88.5484C88.3638 9.025 88.2312 8.99036 88.1507 8.92129C88.0698 8.852 88.0064 8.71967 87.9605 8.52365L86.4218 2.1612L84.9003 8.52365C84.8541 8.71967 84.7906 8.852 84.7101 8.92129C84.6292 8.99036 84.4967 9.025 84.3123 9.025H83.4651ZM75.5293 7.95301C75.8521 7.95301 76.1921 7.89255 76.5495 7.7714C76.9067 7.65048 77.2178 7.44025 77.4831 7.14052C77.6445 6.95633 77.7568 6.74567 77.8203 6.50941C77.8835 6.27315 77.9154 5.98805 77.9154 5.65346V5.2386C77.6271 5.16932 77.3245 5.11488 77.0076 5.07443C76.6906 5.03419 76.3823 5.01396 76.0828 5.01396C75.4256 5.01396 74.9357 5.14651 74.6131 5.41139C74.2904 5.6767 74.129 6.05712 74.129 6.55266C74.129 7.01378 74.2501 7.36257 74.492 7.59862C74.7341 7.83509 75.0798 7.95301 75.5293 7.95301ZM79.5406 6.44895C79.5406 6.81797 79.5778 7.11168 79.6529 7.33051C79.7278 7.54956 79.8345 7.78603 79.9729 8.03951C80.0187 8.1202 80.0419 8.19508 80.0419 8.26415C80.0419 8.36786 79.9785 8.46598 79.8517 8.55807L79.2292 8.97314C79.1369 9.03059 79.0504 9.05964 78.97 9.05964C78.8662 9.05964 78.7683 9.0136 78.676 8.92129C78.5379 8.78293 78.4195 8.63016 78.3216 8.46318C78.2237 8.29621 78.1228 8.10298 78.0191 7.88394C77.2469 8.79455 76.2786 9.24986 75.1145 9.24986C74.2846 9.24986 73.6276 9.0136 73.1435 8.54086C72.6594 8.06834 72.4173 7.43444 72.4173 6.63895C72.4173 5.79784 72.717 5.12047 73.3163 4.6075C73.9155 4.09475 74.7227 3.83804 75.737 3.83804C76.0711 3.83804 76.4197 3.86408 76.7829 3.91594C77.1459 3.96779 77.5233 4.03988 77.9154 4.13219V3.40598C77.9154 2.65675 77.7598 2.12957 77.4487 1.82403C77.1373 1.5187 76.6013 1.36592 75.8407 1.36592C75.4949 1.36592 75.1403 1.40896 74.7773 1.49546C74.4143 1.58196 74.0599 1.69428 73.7141 1.83263C73.5525 1.9017 73.4374 1.94495 73.3684 1.96238C73.2991 1.9796 73.2472 1.9882 73.2128 1.9882C73.0742 1.9882 73.0051 1.88449 73.0051 1.67706V1.19293C73.0051 1.03155 73.0282 0.916213 73.0742 0.847143C73.1203 0.777858 73.2128 0.708787 73.3509 0.639716C73.6967 0.466718 74.1118 0.317172 74.5959 0.19022C75.0798 0.0634832 75.5928 7.62939e-06 76.1346 7.62939e-06C77.3101 7.62939e-06 78.1717 0.267898 78.7193 0.803893C79.2667 1.33989 79.5406 2.1498 79.5406 3.23298V6.44895Z" fill="white"/>
<path fill-rule="evenodd" clip-rule="evenodd" d="M13.8786 44.705H51.7131V45.1713H13.8786V44.705ZM120.254 44.705H158.088V45.1713H120.254V44.705Z" fill="white"/>
<path d="M7.12136 37.6492C4.7947 37.6492 3.02641 37.034 1.81606 35.803C0.605281 34.5724 0 32.7733 0 30.4064C0 28.0802 0.632393 26.2747 1.89718 24.9897C3.16175 23.7049 4.92315 23.0622 7.18204 23.0622C8.26414 23.0622 9.27847 23.2042 10.2254 23.4882C10.4417 23.556 10.5869 23.6472 10.6616 23.7621C10.7358 23.8772 10.7733 24.0634 10.7733 24.3201V26.0242C10.7733 26.3894 10.6313 26.5721 10.347 26.5721C10.2792 26.5721 10.1103 26.5383 9.83985 26.4705C9.17712 26.3216 8.51417 26.2474 7.85166 26.2474C6.6071 26.2474 5.66722 26.5753 5.0316 27.2313C4.39577 27.8874 4.07795 28.8578 4.07795 30.1426V30.5889C4.07795 31.8468 4.38544 32.8073 5.00105 33.4699C5.61644 34.1326 6.52576 34.464 7.72987 34.464C8.5684 34.464 9.35292 34.3762 10.0834 34.2004C10.2997 34.1464 10.455 34.119 10.5501 34.119C10.834 34.119 10.976 34.3015 10.976 34.6669V36.371C10.976 36.6282 10.9385 36.8143 10.8645 36.929C10.7901 37.0439 10.6444 37.1353 10.4281 37.2029C9.50827 37.5003 8.40616 37.6492 7.12136 37.6492Z" fill="white"/>
<path d="M19.1111 34.6262C20.1388 34.6262 20.9134 34.268 21.4341 33.551C21.9549 32.8343 22.2154 31.7793 22.2154 30.386C22.2154 28.9659 21.9514 27.8941 21.424 27.1705C20.8966 26.4469 20.1257 26.0852 19.1111 26.0852C18.0968 26.0852 17.3291 26.4436 16.8086 27.1604C16.2876 27.8773 16.0275 28.9323 16.0275 30.3254C16.0275 31.7322 16.2876 32.8005 16.8086 33.5306C17.3291 34.2611 18.0968 34.6262 19.1111 34.6262ZM19.1111 37.7303C17.6368 37.7303 16.3653 37.4226 15.297 36.8072C14.2287 36.1918 13.417 35.3298 12.8625 34.2204C12.3078 33.1116 12.0307 31.8133 12.0307 30.3254C12.0307 28.797 12.3214 27.4816 12.903 26.3793C13.4846 25.277 14.3061 24.435 15.368 23.8534C16.4297 23.272 17.6774 22.9809 19.1111 22.9809C20.5853 22.9809 21.8567 23.2853 22.9255 23.8941C23.9936 24.5028 24.8087 25.3615 25.3701 26.4705C25.931 27.5798 26.2121 28.8846 26.2121 30.386C26.2121 31.9146 25.9209 33.2332 25.3395 34.3422C24.7579 35.4514 23.9327 36.2934 22.8644 36.8681C21.7961 37.4428 20.5446 37.7303 19.1111 37.7303Z" fill="white"/>
<path d="M29.4174 37.3854C29.2009 37.3854 29.0453 37.3381 28.9507 37.2434C28.856 37.149 28.8086 36.9934 28.8086 36.7767V23.9346C28.8086 23.7048 28.856 23.546 28.9507 23.4577C29.0453 23.3699 29.2009 23.326 29.4174 23.326H32.4606C32.6497 23.326 32.7954 23.3564 32.8967 23.4171C32.9983 23.4782 33.0962 23.6099 33.1908 23.8128L36.3763 30.9541L39.6019 23.8128C39.6964 23.6099 39.7947 23.4782 39.8961 23.4171C39.9976 23.3564 40.1429 23.326 40.3324 23.326H43.2336C43.4632 23.326 43.6222 23.3699 43.7104 23.4577C43.798 23.546 43.8421 23.7048 43.8421 23.9346V36.7767C43.8421 36.9934 43.798 37.149 43.7104 37.2434C43.6222 37.3381 43.4632 37.3854 43.2336 37.3854H41.083C40.8665 37.3854 40.7107 37.3381 40.6165 37.2434C40.5216 37.149 40.4744 36.9934 40.4744 36.7767V28.7024L38.2629 33.6931C38.1682 33.8958 38.0703 34.0279 37.9688 34.0888C37.8674 34.1495 37.722 34.18 37.5326 34.18H35.1184C34.9286 34.18 34.7833 34.1495 34.6822 34.0888C34.5806 34.0279 34.4823 33.8958 34.3881 33.6931L32.1765 28.7024V36.7767C32.1765 36.9934 32.1324 37.149 32.0446 37.2434C31.9566 37.3381 31.7978 37.3854 31.5678 37.3854H29.4174Z" fill="white"/>
<path d="M47.4532 37.3854C47.2368 37.3854 47.0812 37.3381 46.9867 37.2434C46.892 37.149 46.8447 36.9934 46.8447 36.7767V23.9346C46.8447 23.7048 46.892 23.546 46.9867 23.4577C47.0812 23.3699 47.2368 23.326 47.4532 23.326H50.4966C50.6858 23.326 50.8312 23.3564 50.9328 23.4171C51.0343 23.4782 51.1322 23.6099 51.2269 23.8128L54.4121 30.9541L57.638 23.8128C57.7322 23.6099 57.8308 23.4782 57.9321 23.4171C58.0335 23.3564 58.1787 23.326 58.3683 23.326H61.2695C61.4993 23.326 61.6583 23.3699 61.7463 23.4577C61.8341 23.546 61.8782 23.7048 61.8782 23.9346V36.7767C61.8782 36.9934 61.8341 37.149 61.7463 37.2434C61.6583 37.3381 61.4993 37.3854 61.2695 37.3854H59.119C58.9023 37.3854 58.7468 37.3381 58.6523 37.2434C58.5574 37.149 58.5103 36.9934 58.5103 36.7767V28.7024L56.2988 33.6931C56.2041 33.8958 56.1062 34.0279 56.0046 34.0888C55.9033 34.1495 55.7578 34.18 55.5687 34.18H53.1542C52.9647 34.18 52.8194 34.1495 52.7181 34.0888C52.6165 34.0279 52.5184 33.8958 52.4239 33.6931L50.2124 28.7024V36.7767C50.2124 36.9934 50.1685 37.149 50.0807 37.2434C49.9925 37.3381 49.8337 37.3854 49.6039 37.3854H47.4532Z" fill="white"/>
<path d="M70.9468 37.7303C68.999 37.7303 67.4877 37.2535 66.4124 36.3002C65.3372 35.3466 64.7995 33.9906 64.7995 32.2322V23.9345C64.7995 23.7049 64.8466 23.5461 64.9415 23.4577C65.036 23.3699 65.1915 23.326 65.4082 23.326H68.1065C68.3363 23.326 68.4949 23.3699 68.5833 23.4577C68.6711 23.5461 68.715 23.7049 68.715 23.9345V32.3542C68.715 33.098 68.9044 33.6627 69.2833 34.0482C69.6615 34.4336 70.2163 34.6262 70.9468 34.6262C72.4482 34.6262 73.1988 33.869 73.1988 32.3542V23.9345C73.1988 23.7049 73.2461 23.5461 73.3408 23.4577C73.435 23.3699 73.5908 23.326 73.8075 23.326H76.5058C76.7353 23.326 76.8944 23.3699 76.9826 23.4577C77.0704 23.5461 77.1143 23.7049 77.1143 23.9345V32.2526C77.1143 33.9972 76.5731 35.3466 75.4912 36.3002C74.4091 37.2535 72.8945 37.7303 70.9468 37.7303Z" fill="white"/>
<path d="M80.6442 37.3854C80.4278 37.3854 80.2722 37.3381 80.1775 37.2434C80.0829 37.149 80.0355 36.9934 80.0355 36.7767V23.9346C80.0355 23.7048 80.0829 23.546 80.1775 23.4577C80.2722 23.3699 80.4278 23.326 80.6442 23.326H83.505C83.7348 23.326 83.9071 23.3598 84.0222 23.4274C84.1369 23.4952 84.2419 23.6099 84.3366 23.7723L89.0231 32.212V23.9346C89.0231 23.7048 89.0704 23.546 89.1653 23.4577C89.2598 23.3699 89.4155 23.326 89.632 23.326H91.7824C92.0123 23.326 92.1711 23.3699 92.2591 23.4577C92.3471 23.546 92.3912 23.7048 92.3912 23.9346V36.7767C92.3912 36.9934 92.3471 37.149 92.2591 37.2434C92.1711 37.3381 92.0123 37.3854 91.7824 37.3854H88.9219C88.6915 37.3854 88.5194 37.3519 88.4045 37.2839C88.2893 37.2165 88.1845 37.1014 88.0901 36.9392L83.4034 28.5804V36.7767C83.4034 36.9934 83.3593 37.149 83.2715 37.2434C83.1835 37.3381 83.0247 37.3854 82.7949 37.3854H80.6442Z" fill="white"/>
<path d="M96.0833 37.3854C95.8668 37.3854 95.7113 37.3381 95.6168 37.2434C95.5221 37.149 95.4748 36.9934 95.4748 36.7767V23.9346C95.4748 23.7048 95.5221 23.546 95.6168 23.4577C95.7113 23.3699 95.8668 23.326 96.0833 23.326H98.7818C99.0114 23.326 99.1704 23.3699 99.2586 23.4577C99.3462 23.546 99.3903 23.7048 99.3903 23.9346V36.7767C99.3903 36.9934 99.3462 37.149 99.2586 37.2434C99.1704 37.3381 99.0114 37.3854 98.7818 37.3854H96.0833Z" fill="white"/>
<path d="M105.842 37.3854C105.625 37.3854 105.47 37.3381 105.375 37.2434C105.281 37.149 105.233 36.9934 105.233 36.7767V26.3892H101.764C101.548 26.3892 101.392 26.3421 101.298 26.2472C101.203 26.1528 101.155 25.9972 101.155 25.7805V23.9346C101.155 23.7048 101.203 23.546 101.298 23.4577C101.392 23.3699 101.548 23.326 101.764 23.326H112.618C112.848 23.326 113.007 23.3699 113.095 23.4577C113.183 23.546 113.227 23.7048 113.227 23.9346V25.7805C113.227 25.9972 113.183 26.1528 113.095 26.2472C113.007 26.3421 112.848 26.3892 112.618 26.3892H109.149V36.7767C109.149 36.9934 109.105 37.149 109.017 37.2434C108.929 37.3381 108.77 37.3854 108.54 37.3854H105.842Z" fill="white"/>
<path d="M119.597 37.3854C119.38 37.3854 119.225 37.3381 119.13 37.2434C119.035 37.149 118.988 36.9934 118.988 36.7767V32.0903L114.748 24.3404C114.586 24.0563 114.505 23.8534 114.505 23.7316C114.505 23.4614 114.68 23.326 115.032 23.326H117.913C118.129 23.326 118.302 23.3665 118.43 23.4476C118.559 23.5287 118.663 23.6641 118.745 23.8534L121.057 29.2904L123.411 23.8534C123.492 23.6641 123.597 23.5287 123.725 23.4476C123.854 23.3665 124.026 23.326 124.243 23.326H126.921C127.272 23.326 127.448 23.4614 127.448 23.7316C127.448 23.8534 127.367 24.0563 127.205 24.3404L122.904 32.1309V36.7767C122.904 36.9934 122.86 37.149 122.772 37.2434C122.684 37.3381 122.525 37.3854 122.295 37.3854H119.597Z" fill="white"/>
<path d="M136.963 34.3829H138.302C140.344 34.3829 141.365 33.0979 141.365 30.5281V30.1629C141.365 27.6067 140.357 26.3283 138.342 26.3283H136.963V34.3829ZM133.656 37.3854C133.439 37.3854 133.284 37.3381 133.189 37.2434C133.094 37.1489 133.047 36.9934 133.047 36.7767V23.9345C133.047 23.7049 133.094 23.5459 133.189 23.4577C133.284 23.3699 133.439 23.326 133.656 23.326H138.545C140.709 23.326 142.386 23.9345 143.577 25.1518C144.767 26.369 145.362 28.1005 145.362 30.3454C145.362 31.82 145.098 33.0878 144.571 34.1494C144.043 35.2115 143.289 36.0161 142.309 36.5639C141.328 37.1117 140.155 37.3854 138.789 37.3854H133.656Z" fill="white"/>
<path d="M154.37 31.9076L152.909 26.6937L151.489 31.9076H154.37ZM146.559 37.3854C146.207 37.3854 146.031 37.2503 146.031 36.9796C146.031 36.8716 146.085 36.6687 146.194 36.3709L150.677 23.8128C150.745 23.6234 150.826 23.4952 150.921 23.4274C151.015 23.3598 151.171 23.326 151.387 23.326H154.634C154.85 23.326 155.005 23.3598 155.1 23.4274C155.195 23.4952 155.276 23.6234 155.343 23.8128L159.848 36.3709C159.956 36.6687 160.01 36.8716 160.01 36.9796C160.01 37.2503 159.834 37.3854 159.482 37.3854H156.439C156.223 37.3854 156.064 37.345 155.962 37.2639C155.861 37.1825 155.776 37.0203 155.709 36.7767L155.1 34.6667H150.759L150.17 36.7767C150.102 37.0203 150.018 37.1825 149.917 37.2639C149.815 37.345 149.656 37.3854 149.44 37.3854H146.559Z" fill="white"/>
<path d="M164.149 37.3854C163.932 37.3854 163.777 37.3381 163.682 37.2434C163.587 37.149 163.54 36.9934 163.54 36.7767V32.0903L159.3 24.3404C159.137 24.0563 159.056 23.8534 159.056 23.7316C159.056 23.4614 159.232 23.326 159.584 23.326H162.465C162.681 23.326 162.853 23.3665 162.982 23.4476C163.11 23.5287 163.215 23.6641 163.296 23.8534L165.609 29.2904L167.963 23.8534C168.044 23.6641 168.148 23.5287 168.277 23.4476C168.406 23.3665 168.578 23.326 168.795 23.326H171.472C171.824 23.326 172 23.4614 172 23.7316C172 23.8534 171.919 24.0563 171.756 24.3404L167.455 32.1309V36.7767C167.455 36.9934 167.411 37.149 167.324 37.2434C167.235 37.3381 167.077 37.3854 166.847 37.3854H164.149Z" fill="white"/>
<path d="M96.1587 47.4081C95.5267 47.4081 95.0277 47.2276 94.6618 46.8664C94.3006 46.5005 94.12 46.0015 94.12 45.3695C94.12 44.7802 94.2317 44.248 94.4551 43.7727C94.6832 43.2975 95.0039 42.9197 95.4174 42.6394C95.8308 42.359 96.306 42.2188 96.843 42.2188C97.475 42.2188 97.9716 42.4018 98.3328 42.7677C98.6987 43.1288 98.8817 43.6278 98.8817 44.2646C98.8817 44.8539 98.77 45.3861 98.5467 45.8613C98.3233 46.3318 98.0025 46.7072 97.5843 46.9876C97.1709 47.268 96.6957 47.4081 96.1587 47.4081ZM96.23 46.5528C96.5199 46.5528 96.7836 46.4625 97.0212 46.2819C97.2588 46.0965 97.4489 45.8352 97.5915 45.4978C97.7388 45.1556 97.8124 44.7683 97.8124 44.3359C97.8124 43.9319 97.7222 43.6207 97.5416 43.4021C97.361 43.1835 97.1044 43.0742 96.7717 43.0742C96.5579 43.0742 96.3559 43.1265 96.1658 43.231C95.9805 43.3308 95.8142 43.4805 95.6669 43.6801C95.5195 43.8749 95.4031 44.1125 95.3176 44.3929C95.232 44.6685 95.1893 44.9727 95.1893 45.3053C95.1893 45.7045 95.2796 46.0134 95.4601 46.232C95.6407 46.4458 95.8973 46.5528 96.23 46.5528Z" fill="#FF9900"/>
<path d="M93.4797 46.8949C93.2136 47.0802 92.9475 47.2133 92.6814 47.2941C92.4153 47.3796 92.1301 47.4224 91.826 47.4224C91.232 47.4224 90.7639 47.2418 90.4217 46.8806C90.0796 46.5195 89.9085 46.0229 89.9085 45.3908C89.9085 44.8348 90.0297 44.3169 90.272 43.8369C90.5192 43.3569 90.8637 42.9696 91.3056 42.675C91.7523 42.3756 92.2489 42.2259 92.7954 42.2259C93.2326 42.2259 93.6199 42.3162 93.9573 42.4968L93.8005 43.288C93.4869 43.1597 93.1637 43.0956 92.8311 43.0956C92.4889 43.0956 92.18 43.1858 91.9044 43.3664C91.6288 43.547 91.4078 43.806 91.2415 44.1434C91.0799 44.4761 90.9991 44.8538 90.9991 45.2768C90.9991 46.1227 91.3342 46.5456 92.0042 46.5456C92.3796 46.5456 92.7954 46.4149 93.2516 46.1536L93.4797 46.8949Z" fill="#FF9900"/>
<path d="M87.4771 47.287L88.4394 42.3471H89.473L88.5106 47.287H87.4771Z" fill="#FF9900"/>
<path d="M85.8023 47.287L85.118 45.4978L83.8064 47.287H82.616L84.7117 44.6281L83.7494 42.3471H84.8614L85.4531 43.951L86.615 42.3471H87.8125L85.8665 44.8063L86.9143 47.287H85.8023Z" fill="#FF9900"/>
<path d="M79.1648 47.287L80.1271 42.3471H83.2777L83.1209 43.1597H81.0038L80.7686 44.3501H82.4936L82.3368 45.1627H80.6118L80.3552 46.4743H82.4723L82.3154 47.287H79.1648ZM82.1729 41.8054H81.3104L82.1729 40.8858H83.2991L82.1729 41.8054Z" fill="#FF9900"/>
<path d="M76.9949 47.287L77.6792 43.7799L76.1467 46.068H75.2913L74.6497 43.7585L73.9583 47.287H73.0459L74.0082 42.3471H75.1416L75.8972 45.12L77.7577 42.3471H78.8697L77.9073 47.287H76.9949Z" fill="#FF9900"/>
</svg>
