<svg width="1285" height="356" viewBox="0 0 1285 356" fill="none" xmlns="http://www.w3.org/2000/svg">
<path fill-rule="evenodd" clip-rule="evenodd" d="M741.726 94.16C738.616 90.18 721.186 92.27 713.346 93.21C710.976 93.49 710.606 91.42 712.746 89.92C726.656 80.15 749.446 82.97 752.096 86.24C754.766 89.54 751.396 112.39 738.356 123.29C736.356 124.97 734.446 124.07 735.336 121.86C738.276 114.54 744.836 98.13 741.726 94.15" fill="#FF9900"/>
<path fill-rule="evenodd" clip-rule="evenodd" d="M731.616 105.7C707.316 123.63 672.086 133.17 641.756 133.17C599.246 133.17 560.956 117.45 531.986 91.29C529.706 89.24 531.736 86.43 534.476 88.02C565.736 106.21 604.386 117.16 644.316 117.16C671.246 117.16 700.856 111.57 728.096 100.02C732.206 98.28 735.646 102.73 731.626 105.7" fill="#FF9900"/>
<path d="M717.656 69.36C713.786 69.36 709.986 68.93 706.286 68.07C702.586 67.21 699.736 66.22 697.766 65.1C696.556 64.41 695.806 63.72 695.506 63.03C695.206 62.34 695.056 61.65 695.056 60.96V57.21C695.056 55.66 695.616 54.89 696.736 54.89C697.166 54.89 697.616 54.98 698.096 55.15C698.566 55.32 699.196 55.58 699.966 55.92C702.466 57.04 705.176 57.9 708.106 58.5C711.036 59.1 713.956 59.4 716.886 59.4C721.536 59.4 725.126 58.58 727.676 56.95C730.216 55.32 731.486 52.99 731.486 49.98C731.486 47.91 730.816 46.19 729.486 44.81C728.146 43.43 725.676 42.14 722.056 40.94L711.336 37.58C705.916 35.86 701.976 33.36 699.516 30.09C697.066 26.82 695.836 23.25 695.836 19.37C695.836 16.27 696.506 13.54 697.836 11.17C699.166 8.8 700.936 6.78 703.136 5.1C705.326 3.42 707.896 2.15 710.816 1.29C713.746 0.43 716.846 0 720.116 0C721.756 0 723.406 0.11 725.086 0.32C726.766 0.54 728.356 0.82 729.866 1.16C731.366 1.51 732.766 1.89 734.066 2.32C735.356 2.75 736.386 3.18 737.166 3.61C738.196 4.21 738.926 4.82 739.366 5.42C739.796 6.02 740.006 6.84 740.006 7.87V11.36C740.006 12.91 739.446 13.69 738.326 13.69C737.726 13.69 736.776 13.39 735.486 12.79C731.266 10.9 726.526 9.95 721.276 9.95C717.056 9.95 713.786 10.64 711.456 12.02C709.136 13.4 707.966 15.59 707.966 18.61C707.966 20.68 708.696 22.42 710.166 23.84C711.626 25.26 714.336 26.62 718.306 27.91L728.766 31.27C734.106 32.99 737.916 35.36 740.196 38.37C742.476 41.39 743.616 44.83 743.616 48.7C743.616 51.89 742.976 54.75 741.676 57.29C740.386 59.83 738.596 62 736.316 63.81C734.036 65.62 731.296 67 728.116 67.94C724.926 68.89 721.436 69.36 717.656 69.36ZM622.856 67.42C621.566 67.42 620.616 67.18 620.016 66.71C619.416 66.24 618.896 65.27 618.466 63.8L601.156 6.71C600.726 5.25 600.506 4.26 600.506 3.74C600.506 2.54 601.106 1.93 602.316 1.93H609.546C610.926 1.93 611.886 2.17 612.446 2.64C613.006 3.11 613.496 4.08 613.936 5.55L626.336 54.37L637.826 5.55C638.166 4.09 638.646 3.12 639.246 2.64C639.846 2.17 640.836 1.93 642.216 1.93H648.156C649.536 1.93 650.526 2.17 651.126 2.64C651.726 3.11 652.206 4.08 652.546 5.55L664.166 55.02L676.956 5.55C677.386 4.09 677.886 3.12 678.446 2.64C679.006 2.17 679.976 1.93 681.356 1.93H688.196C689.406 1.93 690.006 2.53 690.006 3.74C690.006 4.08 689.956 4.47 689.876 4.9C689.786 5.33 689.616 5.93 689.356 6.71L671.536 63.8C671.106 65.27 670.586 66.23 669.986 66.71C669.386 67.18 668.436 67.42 667.146 67.42H660.816C659.436 67.42 658.446 67.16 657.846 66.65C657.246 66.13 656.766 65.14 656.426 63.68L644.936 16.15L633.566 63.68C633.216 65.14 632.746 66.13 632.146 66.65C631.546 67.17 630.556 67.42 629.176 67.42H622.846H622.856ZM563.576 59.41C565.986 59.41 568.526 58.96 571.196 58.05C573.866 57.15 576.186 55.58 578.166 53.34C579.376 51.96 580.206 50.39 580.686 48.63C581.156 46.87 581.396 44.74 581.396 42.24V39.14C579.246 38.62 576.986 38.22 574.616 37.91C572.246 37.61 569.946 37.46 567.706 37.46C562.796 37.46 559.136 38.45 556.726 40.43C554.316 42.41 553.106 45.25 553.106 48.96C553.106 52.4 554.006 55.01 555.816 56.77C557.626 58.54 560.206 59.42 563.566 59.42M593.536 48.18C593.536 50.94 593.816 53.13 594.376 54.77C594.936 56.41 595.736 58.17 596.766 60.07C597.106 60.67 597.286 61.23 597.286 61.75C597.286 62.52 596.816 63.26 595.866 63.95L591.216 67.05C590.526 67.48 589.876 67.7 589.276 67.7C588.506 67.7 587.766 67.36 587.076 66.67C586.046 65.64 585.156 64.5 584.426 63.25C583.696 62 582.936 60.56 582.166 58.92C576.396 65.72 569.166 69.12 560.466 69.12C554.266 69.12 549.356 67.36 545.746 63.82C542.126 60.29 540.326 55.55 540.326 49.61C540.326 43.33 542.566 38.27 547.046 34.43C551.526 30.6 557.556 28.68 565.126 28.68C567.626 28.68 570.226 28.87 572.936 29.26C575.646 29.65 578.466 30.19 581.396 30.88V25.46C581.396 19.86 580.236 15.92 577.906 13.64C575.576 11.36 571.576 10.22 565.896 10.22C563.316 10.22 560.666 10.54 557.956 11.19C555.246 11.84 552.596 12.68 550.016 13.71C548.806 14.23 547.946 14.55 547.436 14.68C546.916 14.81 546.536 14.87 546.276 14.87C545.236 14.87 544.726 14.1 544.726 12.55V8.93C544.726 7.72 544.896 6.86 545.246 6.35C545.586 5.83 546.286 5.32 547.316 4.8C549.896 3.51 552.996 2.39 556.616 1.44C560.216 0.47 564.046 0 568.096 0C576.876 0 583.316 2 587.406 6.01C591.496 10.01 593.546 16.06 593.546 24.16V48.18H593.536Z" fill="white"/>
<path d="M1181.29 335.7H898.66Z" fill="white"/>
<path d="M1181.29 335.7H898.66" stroke="white" stroke-width="3.21" stroke-miterlimit="13.33"/>
<path d="M386.63 335.7H104Z" fill="white"/>
<path d="M386.63 335.7H104" stroke="white" stroke-width="3.21" stroke-miterlimit="13.33"/>
<path d="M53.2 281.25C35.82 281.25 22.61 276.65 13.57 267.46C4.53 258.27 0 244.83 0 227.15C0 209.47 4.72 196.28 14.17 186.69C23.62 177.09 36.77 172.29 53.65 172.29C61.73 172.29 69.31 173.35 76.39 175.47C78.01 175.98 79.09 176.66 79.65 177.52C80.2 178.38 80.48 179.77 80.48 181.69V194.42C80.48 197.15 79.42 198.51 77.3 198.51C76.79 198.51 75.53 198.26 73.51 197.75C68.56 196.64 63.61 196.08 58.66 196.08C49.36 196.08 42.34 198.53 37.59 203.43C32.84 208.33 30.47 215.58 30.47 225.18V228.51C30.47 237.91 32.77 245.08 37.37 250.03C41.97 254.98 48.76 257.46 57.76 257.46C64.02 257.46 69.88 256.8 75.34 255.49C76.96 255.09 78.12 254.88 78.83 254.88C80.95 254.88 82.01 256.24 82.01 258.97V271.7C82.01 273.62 81.73 275.01 81.18 275.87C80.62 276.73 79.54 277.41 77.92 277.92C71.05 280.14 62.82 281.25 53.22 281.25" fill="white"/>
<path d="M142.77 258.67C150.45 258.67 156.23 255.99 160.12 250.64C164.01 245.29 165.96 237.4 165.96 227C165.96 216.6 163.99 208.38 160.05 202.98C156.11 197.57 150.35 194.87 142.77 194.87C135.19 194.87 129.46 197.55 125.57 202.9C121.68 208.26 119.74 216.14 119.74 226.54C119.74 236.94 121.68 245.03 125.57 250.48C129.46 255.94 135.19 258.66 142.77 258.66M142.77 281.86C131.76 281.86 122.26 279.56 114.28 274.96C106.3 270.36 100.24 263.92 96.0899 255.64C91.9499 247.36 89.8799 237.66 89.8799 226.54C89.8799 215.42 92.0499 205.3 96.3999 197.06C100.74 188.83 106.88 182.54 114.81 178.19C122.74 173.85 132.06 171.67 142.77 171.67C153.48 171.67 163.28 173.94 171.26 178.49C179.24 183.04 185.33 189.45 189.52 197.74C193.71 206.03 195.81 215.77 195.81 226.99C195.81 238.21 193.64 248.26 189.29 256.54C184.95 264.83 178.78 271.12 170.8 275.41C162.82 279.7 153.47 281.85 142.76 281.85" fill="white"/>
<path d="M219.76 279.28C218.14 279.28 216.98 278.93 216.27 278.22C215.56 277.51 215.21 276.35 215.21 274.73V178.8C215.21 177.08 215.56 175.9 216.27 175.24C216.98 174.58 218.14 174.26 219.76 174.26H242.49C243.9 174.26 244.99 174.49 245.75 174.94C246.51 175.4 247.24 176.38 247.95 177.9L271.75 231.25L295.85 177.9C296.56 176.38 297.29 175.4 298.05 174.94C298.81 174.49 299.89 174.26 301.31 174.26H322.98C324.7 174.26 325.88 174.59 326.54 175.24C327.19 175.9 327.52 177.09 327.52 178.8V274.73C327.52 276.35 327.19 277.51 326.54 278.22C325.88 278.93 324.69 279.28 322.98 279.28H306.91C305.29 279.28 304.13 278.93 303.43 278.22C302.72 277.51 302.37 276.35 302.37 274.73V214.41L285.85 251.69C285.14 253.2 284.41 254.19 283.65 254.65C282.89 255.1 281.81 255.33 280.39 255.33H262.35C260.93 255.33 259.85 255.1 259.09 254.65C258.33 254.2 257.6 253.21 256.89 251.69L240.37 214.41V274.73C240.37 276.35 240.04 277.51 239.38 278.22C238.72 278.93 237.54 279.28 235.82 279.28H219.76Z" fill="white"/>
<path d="M354.49 279.28C352.87 279.28 351.71 278.93 351.01 278.22C350.3 277.51 349.95 276.35 349.95 274.73V178.8C349.95 177.08 350.3 175.9 351.01 175.24C351.72 174.58 352.88 174.26 354.49 174.26H377.23C378.64 174.26 379.73 174.49 380.49 174.94C381.25 175.4 381.98 176.38 382.69 177.9L406.48 231.25L430.58 177.9C431.28 176.38 432.02 175.4 432.78 174.94C433.54 174.49 434.62 174.26 436.04 174.26H457.71C459.43 174.26 460.61 174.59 461.27 175.24C461.93 175.9 462.26 177.09 462.26 178.8V274.73C462.26 276.35 461.93 277.51 461.27 278.22C460.61 278.93 459.42 279.28 457.71 279.28H441.65C440.03 279.28 438.87 278.93 438.16 278.22C437.45 277.51 437.1 276.35 437.1 274.73V214.41L420.58 251.69C419.87 253.2 419.14 254.19 418.38 254.65C417.62 255.1 416.54 255.33 415.12 255.33H397.08C395.66 255.33 394.58 255.1 393.82 254.65C393.06 254.2 392.33 253.21 391.62 251.69L375.1 214.41V274.73C375.1 276.35 374.77 277.51 374.12 278.22C373.46 278.93 372.27 279.28 370.56 279.28H354.49Z" fill="white"/>
<path d="M529.99 281.86C515.44 281.86 504.15 278.3 496.12 271.18C488.09 264.06 484.07 253.93 484.07 240.79V178.8C484.07 177.08 484.42 175.9 485.13 175.24C485.84 174.58 487 174.26 488.62 174.26H508.78C510.5 174.26 511.68 174.59 512.34 175.24C513 175.9 513.32 177.09 513.32 178.8V241.7C513.32 247.26 514.73 251.47 517.57 254.36C520.4 257.24 524.54 258.68 530 258.68C541.22 258.68 546.82 253.02 546.82 241.71V178.81C546.82 177.09 547.17 175.91 547.88 175.25C548.58 174.59 549.75 174.27 551.37 174.27H571.53C573.25 174.27 574.43 174.6 575.09 175.25C575.75 175.91 576.07 177.1 576.07 178.81V240.95C576.07 253.98 572.03 264.06 563.95 271.19C555.87 278.31 544.55 281.87 530 281.87" fill="white"/>
<path d="M602.44 279.28C600.82 279.28 599.66 278.93 598.95 278.22C598.24 277.51 597.89 276.35 597.89 274.73V178.8C597.89 177.08 598.24 175.9 598.95 175.24C599.66 174.58 600.82 174.26 602.44 174.26H623.81C625.53 174.26 626.81 174.51 627.67 175.02C628.53 175.53 629.31 176.38 630.02 177.6L665.03 240.65V178.81C665.03 177.09 665.38 175.91 666.09 175.25C666.8 174.59 667.96 174.27 669.58 174.27H685.64C687.36 174.27 688.54 174.6 689.2 175.25C689.86 175.91 690.19 177.1 690.19 178.81V274.74C690.19 276.36 689.86 277.52 689.2 278.23C688.54 278.94 687.36 279.29 685.64 279.29H664.27C662.55 279.29 661.26 279.04 660.4 278.53C659.54 278.03 658.76 277.17 658.05 275.95L623.04 213.51V274.74C623.04 276.36 622.71 277.52 622.05 278.23C621.39 278.94 620.21 279.29 618.49 279.29H602.42L602.44 279.28Z" fill="white"/>
<path d="M717.77 279.28C716.15 279.28 714.99 278.93 714.29 278.22C713.58 277.51 713.23 276.35 713.23 274.73V178.8C713.23 177.08 713.58 175.9 714.29 175.24C715 174.58 716.16 174.26 717.77 174.26H737.93C739.65 174.26 740.83 174.59 741.49 175.24C742.14 175.9 742.47 177.09 742.47 178.8V274.73C742.47 276.35 742.14 277.51 741.49 278.22C740.83 278.93 739.64 279.28 737.93 279.28H717.77Z" fill="white"/>
<path d="M790.67 279.28C789.05 279.28 787.89 278.93 787.18 278.22C786.47 277.51 786.12 276.35 786.12 274.73V197.13H760.2C758.58 197.13 757.42 196.78 756.72 196.07C756.01 195.36 755.66 194.2 755.66 192.58V178.79C755.66 177.07 756.01 175.89 756.72 175.23C757.42 174.57 758.59 174.25 760.2 174.25H841.28C843 174.25 844.18 174.58 844.84 175.23C845.5 175.89 845.82 177.08 845.82 178.79V192.58C845.82 194.2 845.49 195.36 844.84 196.07C844.18 196.78 843 197.13 841.28 197.13H815.36V274.73C815.36 276.35 815.03 277.51 814.37 278.22C813.71 278.93 812.52 279.28 810.81 279.28H790.65H790.67Z" fill="white"/>
<path d="M893.42 279.28C891.8 279.28 890.64 278.93 889.93 278.22C889.22 277.51 888.87 276.35 888.87 274.73V239.72L857.19 181.83C855.98 179.71 855.37 178.19 855.37 177.28C855.37 175.26 856.68 174.25 859.31 174.25H880.83C882.45 174.25 883.73 174.55 884.69 175.16C885.65 175.77 886.43 176.78 887.04 178.19L904.32 218.81L921.9 178.19C922.51 176.78 923.29 175.76 924.25 175.16C925.21 174.55 926.5 174.25 928.12 174.25H948.12C950.75 174.25 952.06 175.26 952.06 177.28C952.06 178.19 951.45 179.71 950.24 181.83L918.11 240.03V274.74C918.11 276.36 917.78 277.52 917.13 278.23C916.47 278.94 915.28 279.29 913.57 279.29H893.41L893.42 279.28Z" fill="white"/>
<path d="M1023.15 256.85H1033.15C1048.41 256.85 1056.03 247.25 1056.03 228.05V225.32C1056.03 206.22 1048.5 196.67 1033.45 196.67H1023.14V256.84L1023.15 256.85ZM998.45 279.28C996.83 279.28 995.67 278.93 994.97 278.22C994.26 277.51 993.91 276.35 993.91 274.73V178.8C993.91 177.08 994.26 175.9 994.97 175.24C995.67 174.58 996.84 174.26 998.45 174.26H1034.97C1051.13 174.26 1063.66 178.81 1072.56 187.9C1081.45 196.99 1085.9 209.93 1085.9 226.7C1085.9 237.72 1083.93 247.19 1079.99 255.12C1076.05 263.05 1070.42 269.06 1063.09 273.16C1055.76 277.25 1047 279.3 1036.79 279.3H998.45V279.28Z" fill="white"/>
<path d="M1153.19 238.36L1142.28 199.41L1131.67 238.36H1153.19ZM1092.11 271.7L1125.61 177.89C1126.11 176.48 1126.72 175.52 1127.43 175.01C1128.13 174.51 1129.3 174.25 1130.91 174.25H1155.16C1156.77 174.25 1157.94 174.5 1158.65 175.01C1159.35 175.52 1159.96 176.47 1160.47 177.89L1194.12 271.7C1194.93 273.92 1195.33 275.44 1195.33 276.25C1195.33 278.27 1194.02 279.28 1191.39 279.28H1168.65C1167.03 279.28 1165.85 278.98 1165.09 278.37C1164.33 277.76 1163.7 276.55 1163.2 274.73L1158.65 258.97H1126.22L1121.82 274.73C1121.31 276.55 1120.68 277.76 1119.93 278.37C1119.17 278.98 1117.98 279.28 1116.37 279.28H1094.85C1092.22 279.28 1090.91 278.27 1090.91 276.25C1090.91 275.44 1091.31 273.93 1092.12 271.7" fill="white"/>
<path d="M1226.24 279.28C1224.62 279.28 1223.46 278.93 1222.75 278.22C1222.04 277.51 1221.69 276.35 1221.69 274.73V239.72L1190.01 181.83C1188.8 179.71 1188.19 178.19 1188.19 177.28C1188.19 175.26 1189.5 174.25 1192.13 174.25H1213.65C1215.27 174.25 1216.55 174.55 1217.51 175.16C1218.47 175.77 1219.25 176.78 1219.86 178.19L1237.14 218.81L1254.72 178.19C1255.33 176.78 1256.11 175.76 1257.07 175.16C1258.03 174.55 1259.32 174.25 1260.94 174.25H1280.94C1283.57 174.25 1284.88 175.26 1284.88 177.28C1284.88 178.19 1284.27 179.71 1283.06 181.83L1250.93 240.03V274.74C1250.93 276.36 1250.6 277.52 1249.95 278.23C1249.29 278.94 1248.1 279.29 1246.39 279.29H1226.23L1226.24 279.28Z" fill="white"/>
<path d="M542.37 354.29C542.12 354.04 542 353.63 542 353.06V319.35C542 318.75 542.12 318.33 542.37 318.1C542.62 317.87 543.03 317.75 543.59 317.75H551.58C552.08 317.75 552.46 317.83 552.73 317.99C553 318.15 553.25 318.5 553.5 319.03L561.86 337.78L570.33 319.03C570.58 318.5 570.84 318.15 571.1 317.99C571.37 317.83 571.75 317.75 572.25 317.75H579.87C580.47 317.75 580.89 317.87 581.12 318.1C581.35 318.33 581.47 318.75 581.47 319.35V353.06C581.47 353.63 581.35 354.04 581.12 354.29C580.89 354.54 580.47 354.66 579.87 354.66H574.22C573.65 354.66 573.24 354.54 573 354.29C572.75 354.04 572.63 353.63 572.63 353.06V331.87L566.83 344.97C566.58 345.5 566.32 345.85 566.06 346.01C565.79 346.17 565.41 346.25 564.92 346.25H558.58C558.08 346.25 557.7 346.17 557.43 346.01C557.16 345.85 556.91 345.5 556.66 344.97L550.86 331.87V353.06C550.86 353.63 550.74 354.04 550.51 354.29C550.28 354.54 549.86 354.66 549.26 354.66H543.61C543.04 354.66 542.63 354.54 542.39 354.29H542.37Z" fill="#FF9900"/>
<path d="M589.71 354.29C589.46 354.04 589.34 353.63 589.34 353.06V319.35C589.34 318.75 589.46 318.33 589.71 318.1C589.96 317.87 590.37 317.75 590.93 317.75H613.46C614.06 317.75 614.48 317.87 614.71 318.1C614.94 318.33 615.06 318.75 615.06 319.35V323.93C615.06 324.5 614.94 324.91 614.71 325.15C614.48 325.4 614.06 325.52 613.46 325.52H599.35V331.96H610.53C611.13 331.96 611.55 332.08 611.78 332.31C612.01 332.54 612.13 332.96 612.13 333.56V338.14C612.13 338.71 612.01 339.12 611.78 339.36C611.55 339.61 611.13 339.73 610.53 339.73H599.35V346.87H613.57C614.17 346.87 614.59 346.99 614.82 347.22C615.05 347.45 615.17 347.87 615.17 348.47V353.05C615.17 353.62 615.05 354.03 614.82 354.28C614.59 354.53 614.17 354.65 613.57 354.65H590.94C590.37 354.65 589.96 354.53 589.72 354.28L589.71 354.29ZM598.92 312.8C598.92 312.44 599.17 312 599.67 311.47L602.92 307.96C603.49 307.36 603.91 306.97 604.2 306.79C604.48 306.61 604.86 306.52 605.32 306.52H611.07C611.92 306.52 612.35 306.84 612.35 307.48C612.35 307.91 612.01 308.4 611.34 308.97L607.35 312.43C606.75 312.93 606.28 313.26 605.94 313.44C605.6 313.62 605.2 313.71 604.74 313.71H600.05C599.3 313.71 598.93 313.41 598.93 312.8H598.92Z" fill="#FF9900"/>
<path d="M619.02 354.39C618.79 354.21 618.67 353.98 618.67 353.7C618.67 353.34 618.9 352.78 619.36 352L629.69 335.65L620.26 320.42C619.8 319.64 619.57 319.07 619.57 318.72C619.57 318.44 619.69 318.21 619.92 318.03C620.15 317.85 620.46 317.76 620.85 317.76H628.73C629.3 317.76 629.74 317.85 630.06 318.03C630.38 318.21 630.65 318.53 630.86 318.99L635.6 328.15L640.34 318.99C640.55 318.53 640.82 318.21 641.14 318.03C641.46 317.85 641.9 317.76 642.47 317.76H650.09C650.48 317.76 650.79 317.85 651.02 318.03C651.25 318.21 651.37 318.44 651.37 318.72C651.37 319.07 651.14 319.64 650.68 320.42L641.15 335.54L651.64 352C652.1 352.78 652.33 353.35 652.33 353.7C652.33 353.98 652.21 354.21 651.98 354.39C651.75 354.57 651.44 354.66 651.05 354.66H643.22C642.65 354.66 642.21 354.57 641.89 354.39C641.57 354.21 641.3 353.89 641.09 353.43L635.34 342.83L629.69 353.43C629.44 353.89 629.17 354.21 628.86 354.39C628.56 354.57 628.12 354.66 627.56 354.66H619.94C619.55 354.66 619.24 354.57 619.01 354.39H619.02Z" fill="#FF9900"/>
<path d="M657.76 354.29C657.51 354.04 657.39 353.63 657.39 353.06V319.35C657.39 318.75 657.51 318.33 657.76 318.1C658.01 317.87 658.42 317.75 658.99 317.75H666.07C666.67 317.75 667.09 317.87 667.32 318.1C667.55 318.33 667.67 318.75 667.67 319.35V353.06C667.67 353.63 667.55 354.04 667.32 354.29C667.09 354.54 666.67 354.66 666.07 354.66H658.99C658.42 354.66 658.01 354.54 657.76 354.29Z" fill="#FF9900"/>
<path d="M679.46 350.51C676.28 347.28 674.69 342.56 674.69 336.34C674.69 330.12 676.35 325.49 679.67 322.12C682.99 318.75 687.61 317.06 693.54 317.06C696.38 317.06 699.04 317.43 701.53 318.18C702.1 318.36 702.48 318.6 702.68 318.9C702.88 319.2 702.97 319.69 702.97 320.36V324.83C702.97 325.79 702.6 326.27 701.85 326.27C701.67 326.27 701.23 326.18 700.52 326C698.78 325.61 697.04 325.42 695.3 325.42C692.03 325.42 689.57 326.28 687.9 328C686.23 329.72 685.4 332.27 685.4 335.64V336.81C685.4 340.11 686.21 342.63 687.82 344.37C689.44 346.11 691.82 346.98 694.98 346.98C697.18 346.98 699.24 346.75 701.16 346.29C701.73 346.15 702.14 346.08 702.39 346.08C703.14 346.08 703.51 346.56 703.51 347.52V351.99C703.51 352.66 703.41 353.15 703.22 353.45C703.03 353.75 702.64 353.99 702.08 354.17C699.67 354.95 696.77 355.34 693.4 355.34C687.29 355.34 682.65 353.72 679.47 350.49L679.46 350.51Z" fill="#FF9900"/>
<path d="M714.84 353.14C712.04 351.52 709.91 349.26 708.45 346.35C706.99 343.44 706.27 340.03 706.27 336.13C706.27 332.23 707.03 328.67 708.56 325.77C710.09 322.88 712.24 320.67 715.03 319.14C717.82 317.61 721.09 316.85 724.86 316.85C728.63 316.85 732.07 317.65 734.87 319.25C737.67 320.85 739.81 323.1 741.29 326.01C742.77 328.92 743.5 332.35 743.5 336.29C743.5 340.23 742.74 343.76 741.21 346.67C739.68 349.58 737.52 351.79 734.71 353.3C731.9 354.81 728.62 355.56 724.86 355.56C721.1 355.56 717.65 354.75 714.85 353.14H714.84ZM730.95 344.59C732.32 342.71 733 339.94 733 336.28C733 332.62 732.31 329.74 730.92 327.84C729.54 325.94 727.51 324.99 724.85 324.99C722.19 324.99 720.17 325.93 718.81 327.81C717.44 329.69 716.76 332.46 716.76 336.12C716.76 339.78 717.44 342.62 718.81 344.53C720.18 346.45 722.19 347.41 724.85 347.41C727.51 347.41 729.58 346.47 730.95 344.59Z" fill="#FF9900"/>
</svg>
